{"glyphs":{"0":{"ha":746,"x_min":107,"x_max":643,"o":"m 107 696 q 128 801 107 752 q 185 886 149 850 q 271 943 222 922 q 375 964 319 964 q 479 943 431 964 q 565 886 528 922 q 622 801 601 850 q 643 696 643 752 l 643 268 q 622 163 643 212 q 565 78 601 115 q 479 21 528 42 q 375 0 431 0 q 271 21 319 0 q 185 78 222 42 q 128 163 149 115 q 107 268 107 212 l 107 696 m 375 107 q 437 120 408 107 q 489 154 467 132 q 523 205 511 176 q 536 268 536 235 l 536 549 l 214 295 l 214 268 q 227 205 214 235 q 261 154 239 176 q 313 120 283 132 q 375 107 342 107 m 375 857 q 313 845 342 857 q 261 810 283 832 q 227 759 239 788 q 214 696 214 730 l 214 432 l 536 686 l 536 696 q 523 759 536 730 q 489 810 511 788 q 437 845 467 832 q 375 857 408 857 z "},"1":{"ha":746,"x_min":214,"x_max":536,"o":"m 214 857 l 241 857 q 272 863 258 857 q 298 880 287 869 q 315 906 309 891 q 321 937 321 920 l 321 964 l 429 964 l 429 107 l 536 107 l 536 0 l 214 0 l 214 107 l 321 107 l 321 750 l 214 750 l 214 857 z "},"2":{"ha":746,"x_min":107,"x_max":643,"o":"m 429 964 q 512 947 473 964 q 580 901 551 930 q 626 833 609 872 q 643 750 643 794 l 643 643 q 625 584 643 613 q 576 527 606 555 q 507 472 546 499 q 429 419 469 446 q 350 367 389 393 q 281 316 311 341 q 233 265 251 290 q 214 214 214 239 l 214 107 l 643 107 l 643 0 l 107 0 l 107 241 q 125 301 107 271 q 174 360 144 331 q 243 417 204 389 q 321 473 281 446 q 400 526 361 500 q 469 575 439 551 q 517 622 499 600 q 536 664 536 644 l 536 750 q 527 792 536 772 q 504 826 519 811 q 470 849 490 840 q 429 857 451 857 l 321 857 q 280 849 299 857 q 246 826 260 840 q 223 792 231 811 q 214 750 214 772 l 107 750 q 124 833 107 794 q 170 901 141 872 q 238 947 199 930 q 321 964 277 964 l 429 964 z "},"3":{"ha":746,"x_min":107,"x_max":643,"o":"m 107 107 l 375 107 q 437 120 408 107 q 489 154 467 132 q 523 205 511 176 q 536 268 536 235 q 523 330 536 301 q 489 381 511 359 q 437 416 467 404 q 375 429 408 429 l 214 429 l 214 536 l 375 536 q 437 548 408 536 q 489 583 467 561 q 523 634 511 605 q 536 696 536 663 q 523 759 536 730 q 489 810 511 788 q 437 845 467 832 q 375 857 408 857 l 107 857 l 107 964 l 375 964 q 479 943 431 964 q 565 886 528 922 q 622 801 601 850 q 643 696 643 752 q 613 574 643 630 q 535 482 584 519 q 613 390 584 446 q 643 268 643 334 q 622 163 643 212 q 565 78 601 115 q 479 21 528 42 q 375 0 431 0 l 107 0 l 107 107 z "},"4":{"ha":746,"x_min":107,"x_max":643,"o":"m 429 964 l 536 964 l 536 321 l 643 321 l 643 214 l 536 214 l 536 0 l 429 0 l 429 214 l 107 214 l 107 321 l 429 964 m 429 321 l 429 750 l 214 321 l 429 321 z "},"5":{"ha":746,"x_min":107,"x_max":643,"o":"m 107 107 l 375 107 q 437 120 408 107 q 489 154 467 132 q 523 205 511 176 q 536 268 536 235 q 523 330 536 301 q 489 381 511 359 q 437 416 467 404 q 375 429 408 429 l 107 429 l 107 964 l 643 964 l 643 857 l 214 857 l 214 536 l 375 536 q 479 515 431 536 q 565 457 528 494 q 622 372 601 421 q 643 268 643 323 q 622 163 643 212 q 565 78 601 115 q 479 21 528 42 q 375 0 431 0 l 107 0 l 107 107 z "},"6":{"ha":746,"x_min":107,"x_max":643,"o":"m 375 0 q 271 21 319 0 q 185 78 222 42 q 128 163 149 115 q 107 268 107 212 q 110 383 107 330 q 124 487 113 437 q 155 589 134 538 q 212 696 176 640 q 300 818 248 753 q 429 964 353 884 l 536 964 q 319 688 395 786 q 227 490 243 589 q 296 524 259 512 q 375 536 334 536 q 479 515 431 536 q 565 457 528 494 q 622 372 601 421 q 643 268 643 323 q 622 163 643 212 q 565 78 601 115 q 479 21 528 42 q 375 0 431 0 m 214 268 q 227 205 214 235 q 261 154 239 176 q 313 120 283 132 q 375 107 342 107 q 437 120 408 107 q 489 154 467 132 q 523 205 511 176 q 536 268 536 235 q 523 330 536 301 q 489 381 511 359 q 437 416 467 404 q 375 429 408 429 q 313 416 342 429 q 261 381 283 404 q 227 330 239 359 q 214 268 214 301 z "},"7":{"ha":746,"x_min":107,"x_max":643,"o":"m 643 857 l 321 0 l 215 0 l 533 857 l 107 857 l 107 964 l 643 964 l 643 857 z "},"8":{"ha":746,"x_min":107,"x_max":643,"o":"m 107 268 q 116 331 107 300 q 139 390 124 362 q 176 440 155 417 q 221 482 197 464 q 176 524 197 500 q 139 574 155 547 q 116 632 124 602 q 107 696 107 663 q 128 801 107 752 q 185 886 149 850 q 271 943 222 922 q 375 964 319 964 q 479 943 431 964 q 565 886 528 922 q 622 801 601 850 q 643 696 643 752 q 634 632 643 663 q 610 574 625 602 q 574 524 595 547 q 528 482 553 500 q 574 440 553 464 q 610 390 595 417 q 634 331 625 362 q 643 268 643 300 q 622 163 643 212 q 565 78 601 115 q 479 21 528 42 q 375 0 431 0 q 271 21 319 0 q 185 78 222 42 q 128 163 149 115 q 107 268 107 212 m 214 268 q 227 205 214 235 q 261 154 239 176 q 313 120 283 132 q 375 107 342 107 q 437 120 408 107 q 489 154 467 132 q 523 205 511 176 q 536 268 536 235 q 526 330 536 301 q 495 381 515 359 q 445 416 475 404 q 375 429 415 429 q 305 416 335 429 q 255 381 275 404 q 224 330 235 359 q 214 268 214 301 m 214 696 q 224 634 214 663 q 255 583 235 605 q 305 548 275 561 q 375 536 335 536 q 445 548 415 536 q 495 583 475 561 q 526 634 515 605 q 536 696 536 663 q 523 759 536 730 q 489 810 511 788 q 437 845 467 832 q 375 857 408 857 q 313 845 342 857 q 261 810 283 832 q 227 759 239 788 q 214 696 214 730 z "},"9":{"ha":746,"x_min":107,"x_max":643,"o":"m 375 964 q 479 943 431 964 q 565 886 528 922 q 622 801 601 850 q 643 696 643 752 q 640 581 643 635 q 626 477 637 528 q 595 376 616 427 q 538 268 574 325 q 450 146 503 212 q 321 0 397 81 l 214 0 q 431 277 355 178 q 524 474 507 375 q 454 440 491 452 q 375 429 416 429 q 271 450 319 429 q 185 507 222 471 q 128 592 149 543 q 107 696 107 641 q 128 801 107 752 q 185 886 149 850 q 271 943 222 922 q 375 964 319 964 m 536 696 q 523 759 536 730 q 489 810 511 788 q 437 845 467 832 q 375 857 408 857 q 313 845 342 857 q 261 810 283 832 q 227 759 239 788 q 214 696 214 730 q 227 634 214 663 q 261 583 239 605 q 313 548 283 561 q 375 536 342 536 q 437 548 408 536 q 489 583 467 561 q 523 634 511 605 q 536 696 536 663 z "}," ":{"ha":746,"x_min":0,"x_max":0,"o":""}," ":{"ha":746,"x_min":0,"x_max":0,"o":""},"Ċ":{"ha":746,"x_min":107,"x_max":648,"o":"m 380 857 q 315 845 345 857 q 263 810 285 832 q 228 759 241 788 q 216 696 216 730 l 216 268 q 228 205 216 235 q 263 154 241 176 q 315 120 285 132 q 380 107 345 107 q 434 115 409 107 q 481 137 460 123 q 517 171 502 151 q 541 214 532 191 l 649 214 q 615 129 639 168 q 556 61 591 90 q 476 16 521 33 q 380 0 432 0 q 273 21 323 0 q 186 78 223 42 q 128 163 149 115 q 108 268 108 212 l 108 696 q 128 801 108 752 q 186 886 149 850 q 273 943 223 922 q 380 964 323 964 q 477 948 432 964 q 556 903 521 932 q 615 835 591 874 q 649 750 639 795 l 541 750 q 517 793 532 773 q 481 827 502 812 q 435 849 460 841 q 380 857 409 857 m 321 1125 q 337 1163 321 1147 q 375 1179 353 1179 q 413 1163 397 1179 q 429 1125 429 1147 q 413 1087 429 1103 q 375 1072 397 1072 q 337 1087 353 1072 q 321 1125 321 1103 z "},"Χ":{"ha":746,"x_min":106,"x_max":642,"o":"m 375 613 l 530 964 l 643 964 l 433 482 l 643 0 l 530 0 l 375 351 l 219 0 l 108 0 l 317 482 l 107 964 l 219 964 l 375 613 z "},"D":{"ha":746,"x_min":107,"x_max":643,"o":"m 107 964 l 375 964 q 479 943 431 964 q 565 886 528 922 q 622 801 601 850 q 643 696 643 752 l 643 268 q 622 163 643 212 q 565 78 601 115 q 479 21 528 42 q 375 0 431 0 l 107 0 l 107 964 m 375 107 q 437 120 408 107 q 489 154 467 132 q 523 205 511 176 q 536 268 536 235 l 536 696 q 523 759 536 730 q 489 810 511 788 q 437 845 467 832 q 375 857 408 857 l 214 857 l 214 107 l 375 107 z "},"Ď":{"ha":746,"x_min":107,"x_max":643,"o":"m 107 964 l 375 964 q 479 943 431 964 q 565 886 528 922 q 622 801 601 850 q 643 696 643 752 l 643 268 q 622 163 643 212 q 565 78 601 115 q 479 21 528 42 q 375 0 431 0 l 107 0 l 107 964 m 375 107 q 437 120 408 107 q 489 154 467 132 q 523 205 511 176 q 536 268 536 235 l 536 696 q 523 759 536 730 q 489 810 511 788 q 437 845 467 832 q 375 857 408 857 l 214 857 l 214 107 l 375 107 m 214 1232 l 268 1286 l 375 1179 l 482 1286 l 536 1232 l 375 1072 l 214 1232 z "},"Đ":{"ha":746,"x_min":0,"x_max":643,"o":"m 0 643 l 321 643 l 321 536 l 0 536 l 0 643 m 107 964 l 375 964 q 479 943 431 964 q 565 886 528 922 q 622 801 601 850 q 643 696 643 752 l 643 268 q 622 163 643 212 q 565 78 601 115 q 479 21 528 42 q 375 0 431 0 l 107 0 l 107 964 m 375 107 q 437 120 408 107 q 489 154 467 132 q 523 205 511 176 q 536 268 536 235 l 536 696 q 523 759 536 730 q 489 810 511 788 q 437 845 467 832 q 375 857 408 857 l 214 857 l 214 107 l 375 107 z "},"∆":{"ha":746,"x_min":107,"x_max":643,"o":"m 643 0 l 107 0 l 107 107 l 321 964 l 429 964 l 643 107 l 643 0 m 188 107 l 517 107 l 359 782 l 188 107 z "},"E":{"ha":746,"x_min":107,"x_max":643,"o":"m 107 964 l 643 964 l 643 857 l 214 857 l 214 536 l 536 536 l 536 429 l 214 429 l 214 107 l 643 107 l 643 0 l 107 0 l 107 964 z "},"É":{"ha":746,"x_min":107,"x_max":643,"o":"m 107 964 l 643 964 l 643 857 l 214 857 l 214 536 l 536 536 l 536 429 l 214 429 l 214 107 l 643 107 l 643 0 l 107 0 l 107 964 m 268 1072 l 214 1125 l 482 1286 l 536 1232 l 268 1072 z "},"Ĕ":{"ha":746,"x_min":107,"x_max":643,"o":"m 107 964 l 643 964 l 643 857 l 214 857 l 214 536 l 536 536 l 536 429 l 214 429 l 214 107 l 643 107 l 643 0 l 107 0 l 107 964 m 375 1072 q 305 1090 335 1072 q 255 1138 275 1108 q 224 1207 235 1168 q 214 1286 214 1246 l 321 1286 q 322 1246 321 1265 q 328 1212 323 1227 q 344 1188 333 1197 q 375 1179 355 1179 q 406 1188 395 1179 q 422 1212 417 1197 q 428 1246 427 1227 q 429 1286 429 1265 l 536 1286 q 526 1207 536 1246 q 495 1138 515 1168 q 445 1090 475 1108 q 375 1072 415 1072 z "},"Ě":{"ha":746,"x_min":107,"x_max":643,"o":"m 107 964 l 643 964 l 643 857 l 214 857 l 214 536 l 536 536 l 536 429 l 214 429 l 214 107 l 643 107 l 643 0 l 107 0 l 107 964 m 214 1232 l 268 1286 l 375 1179 l 482 1286 l 536 1232 l 375 1072 l 214 1232 z "},"Ê":{"ha":746,"x_min":107,"x_max":643,"o":"m 107 964 l 643 964 l 643 857 l 214 857 l 214 536 l 536 536 l 536 429 l 214 429 l 214 107 l 643 107 l 643 0 l 107 0 l 107 964 m 375 1286 l 536 1125 l 482 1072 l 375 1179 l 268 1072 l 214 1125 l 375 1286 z "},"Ë":{"ha":746,"x_min":107,"x_max":643,"o":"m 107 964 l 643 964 l 643 857 l 214 857 l 214 536 l 536 536 l 536 429 l 214 429 l 214 107 l 643 107 l 643 0 l 107 0 l 107 964 m 214 1125 q 230 1163 214 1147 q 268 1179 245 1179 q 306 1163 290 1179 q 321 1125 321 1147 q 306 1087 321 1103 q 268 1072 290 1072 q 230 1087 245 1072 q 214 1125 214 1103 m 429 1125 q 444 1163 429 1147 q 482 1179 460 1179 q 520 1163 505 1179 q 536 1125 536 1147 q 520 1087 536 1103 q 482 1072 505 1072 q 444 1087 460 1072 q 429 1125 429 1103 z "},"Ė":{"ha":746,"x_min":107,"x_max":643,"o":"m 107 964 l 643 964 l 643 857 l 214 857 l 214 536 l 536 536 l 536 429 l 214 429 l 214 107 l 643 107 l 643 0 l 107 0 l 107 964 m 319 1125 q 335 1163 319 1147 q 373 1179 351 1179 q 411 1163 395 1179 q 427 1125 427 1147 q 411 1087 427 1103 q 373 1072 395 1072 q 335 1087 351 1072 q 319 1125 319 1103 z "},"È":{"ha":746,"x_min":107,"x_max":643,"o":"m 107 964 l 643 964 l 643 857 l 214 857 l 214 536 l 536 536 l 536 429 l 214 429 l 214 107 l 643 107 l 643 0 l 107 0 l 107 964 m 214 1179 l 214 1286 l 536 1125 l 536 1018 l 214 1179 z "},"Ē":{"ha":746,"x_min":107,"x_max":643,"o":"m 107 964 l 643 964 l 643 857 l 214 857 l 214 536 l 536 536 l 536 429 l 214 429 l 214 107 l 643 107 l 643 0 l 107 0 l 107 964 m 107 1072 l 107 1179 l 643 1179 l 643 1072 l 107 1072 z "},"Ŋ":{"ha":746,"x_min":107,"x_max":643,"o":"m 372 -321 q 279 -305 323 -321 q 200 -260 235 -289 q 140 -192 165 -231 q 107 -107 116 -153 l 218 -107 q 242 -151 227 -131 q 278 -184 258 -170 q 322 -207 298 -199 q 372 -214 346 -214 q 435 -202 406 -214 q 487 -167 465 -189 q 522 -116 509 -145 q 534 -54 534 -87 l 534 0 l 531 0 l 216 712 l 216 0 l 109 0 l 109 964 l 220 964 l 536 254 l 536 964 l 643 964 l 643 -54 q 622 -158 643 -109 q 564 -243 600 -207 q 477 -300 527 -279 q 372 -321 428 -321 z "},"Ę":{"ha":746,"x_min":107,"x_max":643,"o":"m 107 964 l 643 964 l 643 857 l 214 857 l 214 536 l 536 536 l 536 429 l 214 429 l 214 107 l 643 107 l 643 0 l 107 0 l 107 964 m 429 0 q 439 -70 429 -40 q 475 -114 450 -99 q 542 -128 500 -129 q 643 -107 583 -127 l 643 -214 q 503 -226 563 -235 q 402 -188 442 -218 q 341 -109 361 -157 q 321 0 321 -60 l 429 0 z "},"Ε":{"ha":746,"x_min":107,"x_max":643,"o":"m 107 964 l 643 964 l 643 857 l 214 857 l 214 536 l 536 536 l 536 429 l 214 429 l 214 107 l 643 107 l 643 0 l 107 0 l 107 964 z "},"Η":{"ha":746,"x_min":107,"x_max":643,"o":"m 107 964 l 214 964 l 214 536 l 536 536 l 536 964 l 643 964 l 643 0 l 536 0 l 536 429 l 214 429 l 214 0 l 107 0 l 107 964 z "},"Ð":{"ha":746,"x_min":0,"x_max":643,"o":"m 0 536 l 107 536 l 107 964 l 375 964 q 479 943 431 964 q 565 886 528 922 q 622 801 601 850 q 643 696 643 752 l 643 268 q 622 163 643 212 q 565 78 601 115 q 479 21 528 42 q 375 0 431 0 l 107 0 l 107 429 l 0 429 l 0 536 m 375 107 q 437 120 408 107 q 489 154 467 132 q 523 205 511 176 q 536 268 536 235 l 536 696 q 523 759 536 730 q 489 810 511 788 q 437 845 467 832 q 375 857 408 857 l 214 857 l 214 536 l 321 536 l 321 429 l 214 429 l 214 107 l 375 107 z "},"€":{"ha":746,"x_min":0,"x_max":750,"o":"m 54 643 l 127 643 q 178 772 145 713 q 257 873 211 831 q 359 940 302 916 q 482 964 416 964 q 632 927 564 964 q 750 826 701 890 l 675 750 q 591 828 640 800 q 482 857 543 857 q 400 842 438 857 q 331 798 362 826 q 276 730 300 769 q 237 643 252 690 l 482 643 l 429 536 l 216 536 q 216 429 212 482 l 482 429 l 429 321 l 237 321 q 276 235 252 274 q 331 167 300 195 q 400 123 362 138 q 482 107 438 107 q 591 136 543 107 q 675 214 640 164 l 750 138 q 632 37 701 73 q 482 0 564 0 q 359 24 416 0 q 257 90 302 47 q 178 192 211 133 q 127 321 145 251 l 0 321 l 54 429 l 109 429 q 109 536 105 482 l 0 536 l 54 643 z "},"F":{"ha":746,"x_min":107,"x_max":643,"o":"m 107 964 l 643 964 l 643 857 l 214 857 l 214 536 l 536 536 l 536 429 l 214 429 l 214 0 l 107 0 l 107 964 z "},"G":{"ha":746,"x_min":107,"x_max":643,"o":"m 536 107 q 519 68 536 87 q 478 34 503 49 q 426 9 454 18 q 375 0 397 0 q 271 21 319 0 q 185 78 222 42 q 128 163 149 115 q 107 268 107 212 l 107 696 q 128 801 107 752 q 185 886 149 850 q 271 943 222 922 q 375 964 319 964 q 467 948 424 964 q 545 903 511 932 q 604 835 580 874 q 637 750 628 795 l 526 750 q 503 793 518 773 q 469 827 488 812 q 425 849 449 841 q 375 857 401 857 q 313 845 342 857 q 261 810 283 832 q 227 759 239 788 q 214 696 214 730 l 214 268 q 227 205 214 235 q 261 154 239 176 q 313 120 283 132 q 375 107 342 107 q 437 125 408 107 q 488 168 466 142 q 523 220 510 193 q 536 268 536 248 l 536 429 l 429 429 l 429 536 l 643 536 l 643 0 l 536 0 l 536 107 z "},"Γ":{"ha":746,"x_min":107,"x_max":643,"o":"m 107 964 l 643 964 l 643 857 l 214 857 l 214 0 l 107 0 l 107 964 z "},"Ğ":{"ha":746,"x_min":107,"x_max":643,"o":"m 536 107 q 519 68 536 87 q 478 34 503 49 q 426 9 454 18 q 375 0 397 0 q 271 21 319 0 q 185 78 222 42 q 128 163 149 115 q 107 268 107 212 l 107 696 q 128 801 107 752 q 185 886 149 850 q 271 943 222 922 q 375 964 319 964 q 467 948 424 964 q 545 903 511 932 q 604 835 580 874 q 637 750 628 795 l 526 750 q 503 793 518 773 q 469 827 488 812 q 425 849 449 841 q 375 857 401 857 q 313 845 342 857 q 261 810 283 832 q 227 759 239 788 q 214 696 214 730 l 214 268 q 227 205 214 235 q 261 154 239 176 q 313 120 283 132 q 375 107 342 107 q 437 125 408 107 q 488 168 466 142 q 523 220 510 193 q 536 268 536 248 l 536 429 l 429 429 l 429 536 l 643 536 l 643 0 l 536 0 l 536 107 m 374 1072 q 303 1090 334 1072 q 253 1138 273 1108 q 223 1207 233 1168 q 213 1286 213 1246 l 320 1286 q 321 1246 320 1265 q 327 1212 321 1227 q 342 1188 332 1197 q 374 1179 353 1179 q 405 1188 394 1179 q 421 1212 416 1197 q 427 1246 426 1227 q 427 1286 427 1265 l 534 1286 q 524 1207 534 1246 q 494 1138 514 1168 q 444 1090 474 1108 q 374 1072 414 1072 z "},"Ǧ":{"ha":746,"x_min":107,"x_max":643,"o":"m 536 107 q 519 68 536 87 q 478 34 503 49 q 426 9 454 18 q 375 0 397 0 q 271 21 319 0 q 185 78 222 42 q 128 163 149 115 q 107 268 107 212 l 107 696 q 128 801 107 752 q 185 886 149 850 q 271 943 222 922 q 375 964 319 964 q 467 948 424 964 q 545 903 511 932 q 604 835 580 874 q 637 750 628 795 l 526 750 q 503 793 518 773 q 469 827 488 812 q 425 849 449 841 q 375 857 401 857 q 313 845 342 857 q 261 810 283 832 q 227 759 239 788 q 214 696 214 730 l 214 268 q 227 205 214 235 q 261 154 239 176 q 313 120 283 132 q 375 107 342 107 q 437 125 408 107 q 488 168 466 142 q 523 220 510 193 q 536 268 536 248 l 536 429 l 429 429 l 429 536 l 643 536 l 643 0 l 536 0 l 536 107 m 214 1232 l 268 1286 l 375 1179 l 482 1286 l 536 1232 l 375 1072 l 214 1232 z "},"Ĝ":{"ha":746,"x_min":107,"x_max":643,"o":"m 536 107 q 519 68 536 87 q 478 34 503 49 q 426 9 454 18 q 375 0 397 0 q 271 21 319 0 q 185 78 222 42 q 128 163 149 115 q 107 268 107 212 l 107 696 q 128 801 107 752 q 185 886 149 850 q 271 943 222 922 q 375 964 319 964 q 467 948 424 964 q 545 903 511 932 q 604 835 580 874 q 637 750 628 795 l 526 750 q 503 793 518 773 q 469 827 488 812 q 425 849 449 841 q 375 857 401 857 q 313 845 342 857 q 261 810 283 832 q 227 759 239 788 q 214 696 214 730 l 214 268 q 227 205 214 235 q 261 154 239 176 q 313 120 283 132 q 375 107 342 107 q 437 125 408 107 q 488 168 466 142 q 523 220 510 193 q 536 268 536 248 l 536 429 l 429 429 l 429 536 l 643 536 l 643 0 l 536 0 l 536 107 m 375 1286 l 536 1125 l 482 1072 l 375 1179 l 268 1072 l 214 1125 l 375 1286 z "},"Ģ":{"ha":746,"x_min":107,"x_max":643,"o":"m 536 107 q 519 68 536 87 q 478 34 503 49 q 426 9 454 18 q 375 0 397 0 q 271 21 319 0 q 185 78 222 42 q 128 163 149 115 q 107 268 107 212 l 107 696 q 128 801 107 752 q 185 886 149 850 q 271 943 222 922 q 375 964 319 964 q 467 948 424 964 q 545 903 511 932 q 604 835 580 874 q 637 750 628 795 l 526 750 q 503 793 518 773 q 469 827 488 812 q 425 849 449 841 q 375 857 401 857 q 313 845 342 857 q 261 810 283 832 q 227 759 239 788 q 214 696 214 730 l 214 268 q 227 205 214 235 q 261 154 239 176 q 313 120 283 132 q 375 107 342 107 q 437 125 408 107 q 488 168 466 142 q 523 220 510 193 q 536 268 536 248 l 536 429 l 429 429 l 429 536 l 643 536 l 643 0 l 536 0 l 536 107 m 268 -428 q 230 -412 245 -428 q 214 -374 214 -397 q 230 -336 214 -352 q 268 -321 245 -321 q 299 -314 288 -321 q 315 -293 310 -307 q 321 -259 320 -279 q 321 -214 321 -239 q 280 -205 299 -214 q 246 -182 260 -197 q 223 -148 231 -168 q 214 -106 214 -129 q 223 -65 214 -84 q 246 -31 231 -45 q 280 -8 260 -16 q 321 1 299 1 q 363 -8 344 1 q 397 -31 382 -16 q 420 -65 412 -45 q 429 -106 429 -84 l 429 -214 q 418 -292 429 -254 q 388 -361 408 -331 q 338 -410 368 -391 q 268 -428 308 -428 z "},"Ġ":{"ha":746,"x_min":107,"x_max":643,"o":"m 536 107 q 519 68 536 87 q 478 34 503 49 q 426 9 454 18 q 375 0 397 0 q 271 21 319 0 q 185 78 222 42 q 128 163 149 115 q 107 268 107 212 l 107 696 q 128 801 107 752 q 185 886 149 850 q 271 943 222 922 q 375 964 319 964 q 467 948 424 964 q 545 903 511 932 q 604 835 580 874 q 637 750 628 795 l 526 750 q 503 793 518 773 q 469 827 488 812 q 425 849 449 841 q 375 857 401 857 q 313 845 342 857 q 261 810 283 832 q 227 759 239 788 q 214 696 214 730 l 214 268 q 227 205 214 235 q 261 154 239 176 q 313 120 283 132 q 375 107 342 107 q 437 125 408 107 q 488 168 466 142 q 523 220 510 193 q 536 268 536 248 l 536 429 l 429 429 l 429 536 l 643 536 l 643 0 l 536 0 l 536 107 m 319 1125 q 335 1163 319 1147 q 373 1179 351 1179 q 411 1163 395 1179 q 427 1125 427 1147 q 411 1087 427 1103 q 373 1072 395 1072 q 335 1087 351 1072 q 319 1125 319 1103 z "},"H":{"ha":746,"x_min":107,"x_max":643,"o":"m 107 964 l 214 964 l 214 536 l 536 536 l 536 964 l 643 964 l 643 0 l 536 0 l 536 429 l 214 429 l 214 0 l 107 0 l 107 964 z "},"●":{"ha":746,"x_min":214,"x_max":536,"o":"m 214 482 q 227 545 214 515 q 261 596 239 574 q 313 630 283 618 q 375 643 342 643 q 437 630 408 643 q 489 596 467 618 q 523 545 511 574 q 536 482 536 515 q 523 420 536 449 q 489 369 511 391 q 437 334 467 347 q 375 321 408 321 q 313 334 342 321 q 261 369 283 347 q 227 420 239 391 q 214 482 214 449 z "},"Ħ":{"ha":746,"x_min":107,"x_max":643,"o":"m 107 964 l 214 964 l 214 536 l 536 536 l 536 964 l 643 964 l 643 0 l 536 0 l 536 429 l 214 429 l 214 0 l 107 0 l 107 964 m 107 658 l 107 751 l 643 751 l 643 658 l 107 658 z "},"Ĥ":{"ha":746,"x_min":107,"x_max":643,"o":"m 107 964 l 214 964 l 214 536 l 536 536 l 536 964 l 643 964 l 643 0 l 536 0 l 536 429 l 214 429 l 214 0 l 107 0 l 107 964 m 375 1286 l 536 1125 l 482 1072 l 375 1179 l 268 1072 l 214 1125 l 375 1286 z "},"I":{"ha":746,"x_min":107,"x_max":643,"o":"m 107 107 l 321 107 l 321 857 l 107 857 l 107 964 l 643 964 l 643 857 l 429 857 l 429 107 l 643 107 l 643 0 l 107 0 l 107 107 z "},"Ĳ":{"ha":746,"x_min":0,"x_max":643,"o":"m 0 107 l 107 107 l 107 857 l 0 857 l 0 964 l 321 964 l 321 857 l 214 857 l 214 107 l 321 107 l 321 0 l 0 0 l 0 107 m 482 0 q 412 11 442 0 q 362 47 382 22 q 332 113 342 72 q 321 214 321 154 l 432 214 q 431 175 431 194 q 436 141 431 156 q 451 116 440 125 q 482 107 462 107 q 513 116 503 107 q 529 141 524 125 q 535 175 534 156 q 536 214 536 194 l 536 964 l 643 964 l 643 214 q 633 113 643 154 q 603 47 623 72 q 552 11 583 22 q 482 0 522 0 z "},"Í":{"ha":746,"x_min":107,"x_max":643,"o":"m 107 107 l 321 107 l 321 857 l 107 857 l 107 964 l 643 964 l 643 857 l 429 857 l 429 107 l 643 107 l 643 0 l 107 0 l 107 107 m 268 1072 l 214 1125 l 482 1286 l 536 1232 l 268 1072 z "},"Ĭ":{"ha":746,"x_min":107,"x_max":643,"o":"m 107 107 l 321 107 l 321 857 l 107 857 l 107 964 l 643 964 l 643 857 l 429 857 l 429 107 l 643 107 l 643 0 l 107 0 l 107 107 m 375 1072 q 305 1090 335 1072 q 255 1138 275 1108 q 224 1207 235 1168 q 214 1286 214 1246 l 321 1286 q 322 1246 321 1265 q 328 1212 323 1227 q 344 1188 333 1197 q 375 1179 355 1179 q 406 1188 395 1179 q 422 1212 417 1197 q 428 1246 427 1227 q 429 1286 429 1265 l 536 1286 q 526 1207 536 1246 q 495 1138 515 1168 q 445 1090 475 1108 q 375 1072 415 1072 z "},"Î":{"ha":746,"x_min":107,"x_max":643,"o":"m 107 107 l 321 107 l 321 857 l 107 857 l 107 964 l 643 964 l 643 857 l 429 857 l 429 107 l 643 107 l 643 0 l 107 0 l 107 107 m 375 1286 l 536 1125 l 482 1072 l 375 1179 l 268 1072 l 214 1125 l 375 1286 z "},"Ï":{"ha":746,"x_min":107,"x_max":643,"o":"m 107 107 l 321 107 l 321 857 l 107 857 l 107 964 l 643 964 l 643 857 l 429 857 l 429 107 l 643 107 l 643 0 l 107 0 l 107 107 m 214 1125 q 230 1163 214 1147 q 268 1179 245 1179 q 306 1163 290 1179 q 321 1125 321 1147 q 306 1087 321 1103 q 268 1072 290 1072 q 230 1087 245 1072 q 214 1125 214 1103 m 429 1125 q 444 1163 429 1147 q 482 1179 460 1179 q 520 1163 505 1179 q 536 1125 536 1147 q 520 1087 536 1103 q 482 1072 505 1072 q 444 1087 460 1072 q 429 1125 429 1103 z "},"İ":{"ha":746,"x_min":107,"x_max":643,"o":"m 107 107 l 321 107 l 321 857 l 107 857 l 107 964 l 643 964 l 643 857 l 429 857 l 429 107 l 643 107 l 643 0 l 107 0 l 107 107 m 321 1125 q 337 1163 321 1147 q 375 1179 353 1179 q 413 1163 397 1179 q 429 1125 429 1147 q 413 1087 429 1103 q 375 1072 397 1072 q 337 1087 353 1072 q 321 1125 321 1103 z "},"Ì":{"ha":746,"x_min":107,"x_max":643,"o":"m 107 107 l 321 107 l 321 857 l 107 857 l 107 964 l 643 964 l 643 857 l 429 857 l 429 107 l 643 107 l 643 0 l 107 0 l 107 107 m 214 1179 l 214 1286 l 536 1125 l 536 1018 l 214 1179 z "},"Ī":{"ha":746,"x_min":107,"x_max":643,"o":"m 107 107 l 321 107 l 321 857 l 107 857 l 107 964 l 643 964 l 643 857 l 429 857 l 429 107 l 643 107 l 643 0 l 107 0 l 107 107 m 107 1072 l 107 1179 l 643 1179 l 643 1072 l 107 1072 z "},"Į":{"ha":746,"x_min":107,"x_max":643,"o":"m 107 107 l 321 107 l 321 857 l 107 857 l 107 964 l 643 964 l 643 857 l 429 857 l 429 107 l 643 107 l 643 0 l 107 0 l 107 107 m 429 0 q 439 -70 429 -40 q 475 -114 450 -99 q 542 -128 500 -129 q 643 -107 583 -127 l 643 -214 q 503 -226 563 -235 q 402 -188 442 -218 q 341 -109 361 -157 q 321 0 321 -60 l 429 0 z "},"Ι":{"ha":746,"x_min":107,"x_max":643,"o":"m 107 107 l 321 107 l 321 857 l 107 857 l 107 964 l 643 964 l 643 857 l 429 857 l 429 107 l 643 107 l 643 0 l 107 0 l 107 107 z "},"Ϊ":{"ha":746,"x_min":107,"x_max":643,"o":"m 107 107 l 321 107 l 321 857 l 107 857 l 107 964 l 643 964 l 643 857 l 429 857 l 429 107 l 643 107 l 643 0 l 107 0 l 107 107 m 214 1125 q 230 1163 214 1147 q 268 1179 245 1179 q 306 1163 290 1179 q 321 1125 321 1147 q 306 1087 321 1103 q 268 1072 290 1072 q 230 1087 245 1072 q 214 1125 214 1103 m 429 1125 q 444 1163 429 1147 q 482 1179 460 1179 q 520 1163 505 1179 q 536 1125 536 1147 q 520 1087 536 1103 q 482 1072 505 1072 q 444 1087 460 1072 q 429 1125 429 1103 z "},"Ĩ":{"ha":746,"x_min":107,"x_max":643,"o":"m 107 107 l 321 107 l 321 857 l 107 857 l 107 964 l 643 964 l 643 857 l 429 857 l 429 107 l 643 107 l 643 0 l 107 0 l 107 107 m 643 1232 q 482 1072 562 1072 q 418 1079 442 1072 q 379 1099 394 1087 q 355 1125 364 1112 q 335 1151 346 1139 q 310 1171 325 1163 q 268 1179 294 1179 q 229 1170 248 1179 q 194 1145 210 1160 q 170 1111 179 1130 q 161 1072 161 1092 l 107 1125 q 268 1286 187 1286 q 332 1278 308 1286 q 371 1258 356 1270 q 395 1232 386 1246 q 415 1206 404 1219 q 440 1186 425 1194 q 482 1179 455 1179 q 522 1188 503 1179 q 556 1212 541 1197 q 580 1246 571 1227 q 589 1286 589 1265 l 643 1232 z "},"J":{"ha":746,"x_min":107,"x_max":643,"o":"m 107 321 l 214 321 l 214 268 q 227 205 214 235 q 261 154 239 176 q 313 120 283 132 q 375 107 342 107 q 437 120 408 107 q 489 154 467 132 q 523 205 511 176 q 536 268 536 235 l 536 964 l 643 964 l 643 268 q 622 163 643 212 q 565 78 601 115 q 479 21 528 42 q 375 0 431 0 q 271 21 319 0 q 185 78 222 42 q 128 163 149 115 q 107 268 107 212 l 107 321 z "},"Ĵ":{"ha":746,"x_min":107,"x_max":643,"o":"m 107 321 l 214 321 l 214 268 q 227 205 214 235 q 261 154 239 176 q 313 120 283 132 q 375 107 342 107 q 437 120 408 107 q 489 154 467 132 q 523 205 511 176 q 536 268 536 235 l 536 964 l 643 964 l 643 268 q 622 163 643 212 q 565 78 601 115 q 479 21 528 42 q 375 0 431 0 q 271 21 319 0 q 185 78 222 42 q 128 163 149 115 q 107 268 107 212 l 107 321 m 375 1286 l 536 1125 l 482 1072 l 375 1179 l 268 1072 l 214 1125 l 375 1286 z "},"K":{"ha":746,"x_min":107,"x_max":643,"o":"m 214 516 l 522 964 l 643 964 l 321 482 l 643 0 l 521 0 l 214 452 l 214 0 l 107 0 l 107 964 l 214 964 l 214 516 z "},"Κ":{"ha":746,"x_min":107,"x_max":637,"o":"m 214 516 l 518 964 l 638 964 l 320 482 l 638 0 l 517 0 l 214 452 l 214 0 l 107 0 l 107 964 l 214 964 l 214 516 z "},"Ķ":{"ha":746,"x_min":107,"x_max":643,"o":"m 214 516 l 522 964 l 643 964 l 321 482 l 643 0 l 521 0 l 214 452 l 214 0 l 107 0 l 107 964 l 214 964 l 214 516 m 268 -428 q 230 -412 245 -428 q 214 -374 214 -397 q 230 -336 214 -352 q 268 -321 245 -321 q 299 -314 288 -321 q 315 -293 310 -307 q 321 -259 320 -279 q 321 -214 321 -239 q 280 -205 299 -214 q 246 -182 260 -197 q 223 -148 231 -168 q 214 -106 214 -129 q 223 -65 214 -84 q 246 -31 231 -45 q 280 -8 260 -16 q 321 1 299 1 q 363 -8 344 1 q 397 -31 382 -16 q 420 -65 412 -45 q 429 -106 429 -84 l 429 -214 q 418 -292 429 -254 q 388 -361 408 -331 q 338 -410 368 -391 q 268 -428 308 -428 z "},"L":{"ha":746,"x_min":107,"x_max":643,"o":"m 107 964 l 214 964 l 214 107 l 643 107 l 643 0 l 107 0 l 107 964 z "},"Ĺ":{"ha":746,"x_min":107,"x_max":643,"o":"m 107 964 l 214 964 l 214 107 l 643 107 l 643 0 l 107 0 l 107 964 m 268 1072 l 214 1125 l 482 1286 l 536 1232 l 268 1072 z "},"Λ":{"ha":746,"x_min":111,"x_max":638,"o":"m 217 0 l 375 705 l 533 0 l 639 0 l 428 964 l 322 964 l 111 0 l 217 0 z "},"Ľ":{"ha":746,"x_min":107,"x_max":643,"o":"m 107 964 l 214 964 l 214 107 l 643 107 l 643 0 l 107 0 l 107 964 m 319 856 q 281 871 297 856 q 266 909 266 887 q 281 947 266 932 q 319 963 297 963 q 351 970 340 963 q 367 991 361 977 q 372 1024 372 1004 q 373 1070 373 1044 q 331 1079 351 1070 q 297 1102 312 1087 q 274 1136 283 1116 q 266 1177 266 1155 q 274 1219 266 1200 q 297 1253 283 1238 q 331 1276 312 1267 q 373 1284 351 1284 q 415 1276 395 1284 q 449 1253 434 1267 q 472 1219 463 1238 q 480 1177 480 1200 l 480 1070 q 470 991 480 1030 q 440 923 460 953 q 390 874 420 892 q 319 856 359 856 z "},"Ļ":{"ha":746,"x_min":107,"x_max":643,"o":"m 107 964 l 214 964 l 214 107 l 643 107 l 643 0 l 107 0 l 107 964 m 268 -426 q 230 -410 245 -426 q 214 -372 214 -395 q 230 -334 214 -350 q 268 -319 245 -319 q 299 -312 288 -319 q 315 -291 310 -305 q 320 -258 320 -278 q 321 -212 321 -238 q 280 -204 299 -212 q 246 -181 260 -195 q 223 -147 231 -166 q 214 -106 214 -128 q 223 -64 214 -83 q 246 -30 231 -45 q 280 -7 260 -16 q 321 1 299 1 q 363 -7 343 1 q 396 -30 382 -16 q 419 -64 411 -45 q 428 -106 428 -83 l 428 -212 q 418 -291 428 -252 q 388 -359 408 -329 q 338 -407 368 -389 q 268 -426 308 -426 z "},"Ŀ":{"ha":746,"x_min":107,"x_max":643,"o":"m 107 964 l 214 964 l 214 107 l 643 107 l 643 0 l 107 0 l 107 964 m 429 536 q 437 577 429 558 q 460 611 446 597 q 494 634 475 626 q 536 643 513 643 q 577 634 558 643 q 611 611 597 626 q 634 577 626 597 q 643 536 643 558 q 634 494 643 513 q 611 460 626 475 q 577 437 597 446 q 536 429 558 429 q 494 437 513 429 q 460 460 475 446 q 437 494 446 475 q 429 536 429 513 z "},"Ł":{"ha":746,"x_min":13,"x_max":643,"o":"m 13 309 l 388 684 l 469 602 l 94 227 l 13 309 m 107 964 l 214 964 l 214 107 l 643 107 l 643 0 l 107 0 l 107 964 z "},"M":{"ha":746,"x_min":107,"x_max":643,"o":"m 536 750 l 375 469 l 214 750 l 214 0 l 107 0 l 107 964 l 214 964 l 375 643 l 536 964 l 643 964 l 643 0 l 536 0 l 536 750 z "},"Μ":{"ha":746,"x_min":107,"x_max":642,"o":"m 536 750 l 375 469 l 215 750 l 215 0 l 108 0 l 108 964 l 215 964 l 375 643 l 536 964 l 643 964 l 643 0 l 536 0 l 536 750 z "},"N":{"ha":746,"x_min":107,"x_max":643,"o":"m 107 0 l 107 964 l 214 964 l 536 251 l 536 964 l 643 964 l 643 0 l 536 0 l 214 713 l 214 0 l 107 0 z "},"Ń":{"ha":746,"x_min":107,"x_max":643,"o":"m 107 0 l 107 964 l 214 964 l 536 251 l 536 964 l 643 964 l 643 0 l 536 0 l 214 713 l 214 0 l 107 0 m 268 1072 l 214 1125 l 482 1286 l 536 1232 l 268 1072 z "},"Ň":{"ha":746,"x_min":107,"x_max":643,"o":"m 107 0 l 107 964 l 214 964 l 536 251 l 536 964 l 643 964 l 643 0 l 536 0 l 214 713 l 214 0 l 107 0 m 214 1232 l 268 1286 l 375 1179 l 482 1286 l 536 1232 l 375 1072 l 214 1232 z "},"Ņ":{"ha":746,"x_min":107,"x_max":643,"o":"m 107 0 l 107 964 l 214 964 l 536 251 l 536 964 l 643 964 l 643 0 l 536 0 l 214 713 l 214 0 l 107 0 m 268 -428 q 230 -412 245 -428 q 214 -374 214 -397 q 230 -336 214 -352 q 268 -321 245 -321 q 299 -314 288 -321 q 315 -293 310 -307 q 321 -259 320 -279 q 321 -214 321 -239 q 280 -205 299 -214 q 246 -182 260 -197 q 223 -148 231 -168 q 214 -106 214 -129 q 223 -65 214 -84 q 246 -31 231 -45 q 280 -8 260 -16 q 321 1 299 1 q 363 -8 344 1 q 397 -31 382 -16 q 420 -65 412 -45 q 429 -106 429 -84 l 429 -214 q 418 -292 429 -254 q 388 -361 408 -331 q 338 -410 368 -391 q 268 -428 308 -428 z "},"Ñ":{"ha":746,"x_min":107,"x_max":643,"o":"m 107 0 l 107 964 l 214 964 l 536 251 l 536 964 l 643 964 l 643 0 l 536 0 l 214 713 l 214 0 l 107 0 m 643 1232 q 482 1072 562 1072 q 418 1079 442 1072 q 379 1099 394 1087 q 355 1125 364 1112 q 335 1151 346 1139 q 310 1171 325 1163 q 268 1179 294 1179 q 229 1170 248 1179 q 194 1145 210 1160 q 170 1111 179 1130 q 161 1072 161 1092 l 107 1125 q 268 1286 187 1286 q 332 1278 308 1286 q 371 1258 356 1270 q 395 1232 386 1246 q 415 1206 404 1219 q 440 1186 425 1194 q 482 1179 455 1179 q 522 1188 503 1179 q 556 1212 541 1197 q 580 1246 571 1227 q 589 1286 589 1265 l 643 1232 z "},"Ν":{"ha":746,"x_min":107,"x_max":643,"o":"m 107 0 l 107 964 l 214 964 l 536 251 l 536 964 l 643 964 l 643 0 l 536 0 l 214 713 l 214 0 l 107 0 z "},"O":{"ha":746,"x_min":107,"x_max":643,"o":"m 107 696 q 128 801 107 752 q 185 886 149 850 q 271 943 222 922 q 375 964 319 964 q 479 943 431 964 q 565 886 528 922 q 622 801 601 850 q 643 696 643 752 l 643 268 q 622 163 643 212 q 565 78 601 115 q 479 21 528 42 q 375 0 431 0 q 271 21 319 0 q 185 78 222 42 q 128 163 149 115 q 107 268 107 212 l 107 696 m 375 857 q 313 845 342 857 q 261 810 283 832 q 227 759 239 788 q 214 696 214 730 l 214 268 q 227 205 214 235 q 261 154 239 176 q 313 120 283 132 q 375 107 342 107 q 437 120 408 107 q 489 154 467 132 q 523 205 511 176 q 536 268 536 235 l 536 696 q 523 759 536 730 q 489 810 511 788 q 437 845 467 832 q 375 857 408 857 z "},"Œ":{"ha":746,"x_min":107,"x_max":643,"o":"m 429 536 l 536 536 l 536 429 l 429 429 l 429 107 l 643 107 l 643 0 l 321 0 l 321 10 q 268 0 297 0 q 198 19 228 0 q 148 74 168 39 q 117 158 127 109 q 107 268 107 208 l 107 696 q 117 806 107 757 q 148 891 127 856 q 198 945 168 926 q 268 964 228 964 q 321 954 296 964 l 321 964 l 643 964 l 643 857 l 429 857 l 429 536 m 268 857 q 237 847 248 857 q 221 817 226 837 q 215 767 216 797 q 214 696 214 736 l 214 268 q 215 198 214 228 q 221 148 216 168 q 237 117 226 127 q 268 107 248 107 q 296 117 286 107 q 312 148 307 127 q 320 198 318 168 q 321 268 321 228 l 321 696 q 321 767 321 736 q 315 817 320 797 q 299 847 310 837 q 268 857 288 857 z "},"Ó":{"ha":746,"x_min":107,"x_max":643,"o":"m 107 696 q 128 801 107 752 q 185 886 149 850 q 271 943 222 922 q 375 964 319 964 q 479 943 431 964 q 565 886 528 922 q 622 801 601 850 q 643 696 643 752 l 643 268 q 622 163 643 212 q 565 78 601 115 q 479 21 528 42 q 375 0 431 0 q 271 21 319 0 q 185 78 222 42 q 128 163 149 115 q 107 268 107 212 l 107 696 m 375 857 q 313 845 342 857 q 261 810 283 832 q 227 759 239 788 q 214 696 214 730 l 214 268 q 227 205 214 235 q 261 154 239 176 q 313 120 283 132 q 375 107 342 107 q 437 120 408 107 q 489 154 467 132 q 523 205 511 176 q 536 268 536 235 l 536 696 q 523 759 536 730 q 489 810 511 788 q 437 845 467 832 q 375 857 408 857 m 268 1072 l 214 1125 l 482 1286 l 536 1232 l 268 1072 z "},"Ŏ":{"ha":746,"x_min":107,"x_max":643,"o":"m 107 696 q 128 801 107 752 q 185 886 149 850 q 271 943 222 922 q 375 964 319 964 q 479 943 431 964 q 565 886 528 922 q 622 801 601 850 q 643 696 643 752 l 643 268 q 622 163 643 212 q 565 78 601 115 q 479 21 528 42 q 375 0 431 0 q 271 21 319 0 q 185 78 222 42 q 128 163 149 115 q 107 268 107 212 l 107 696 m 375 857 q 313 845 342 857 q 261 810 283 832 q 227 759 239 788 q 214 696 214 730 l 214 268 q 227 205 214 235 q 261 154 239 176 q 313 120 283 132 q 375 107 342 107 q 437 120 408 107 q 489 154 467 132 q 523 205 511 176 q 536 268 536 235 l 536 696 q 523 759 536 730 q 489 810 511 788 q 437 845 467 832 q 375 857 408 857 m 375 1072 q 304 1090 334 1072 q 254 1138 274 1108 q 223 1207 233 1168 q 213 1286 213 1246 l 321 1286 q 321 1246 321 1265 q 327 1212 322 1227 q 343 1188 332 1197 q 375 1179 354 1179 q 406 1188 395 1179 q 422 1212 417 1197 q 428 1246 427 1227 q 429 1286 429 1265 l 536 1286 q 526 1207 536 1246 q 496 1138 516 1168 q 445 1090 476 1108 q 375 1072 415 1072 z "},"Ô":{"ha":746,"x_min":107,"x_max":643,"o":"m 107 696 q 128 801 107 752 q 185 886 149 850 q 271 943 222 922 q 375 964 319 964 q 479 943 431 964 q 565 886 528 922 q 622 801 601 850 q 643 696 643 752 l 643 268 q 622 163 643 212 q 565 78 601 115 q 479 21 528 42 q 375 0 431 0 q 271 21 319 0 q 185 78 222 42 q 128 163 149 115 q 107 268 107 212 l 107 696 m 375 857 q 313 845 342 857 q 261 810 283 832 q 227 759 239 788 q 214 696 214 730 l 214 268 q 227 205 214 235 q 261 154 239 176 q 313 120 283 132 q 375 107 342 107 q 437 120 408 107 q 489 154 467 132 q 523 205 511 176 q 536 268 536 235 l 536 696 q 523 759 536 730 q 489 810 511 788 q 437 845 467 832 q 375 857 408 857 m 375 1286 l 536 1125 l 482 1072 l 375 1179 l 268 1072 l 214 1125 l 375 1286 z "},"Ö":{"ha":746,"x_min":107,"x_max":643,"o":"m 107 696 q 128 801 107 752 q 185 886 149 850 q 271 943 222 922 q 375 964 319 964 q 479 943 431 964 q 565 886 528 922 q 622 801 601 850 q 643 696 643 752 l 643 268 q 622 163 643 212 q 565 78 601 115 q 479 21 528 42 q 375 0 431 0 q 271 21 319 0 q 185 78 222 42 q 128 163 149 115 q 107 268 107 212 l 107 696 m 375 857 q 313 845 342 857 q 261 810 283 832 q 227 759 239 788 q 214 696 214 730 l 214 268 q 227 205 214 235 q 261 154 239 176 q 313 120 283 132 q 375 107 342 107 q 437 120 408 107 q 489 154 467 132 q 523 205 511 176 q 536 268 536 235 l 536 696 q 523 759 536 730 q 489 810 511 788 q 437 845 467 832 q 375 857 408 857 m 213 1125 q 229 1163 213 1147 q 267 1179 244 1179 q 304 1163 289 1179 q 320 1125 320 1147 q 304 1087 320 1103 q 267 1072 289 1072 q 229 1087 244 1072 q 213 1125 213 1103 m 427 1125 q 443 1163 427 1147 q 481 1179 458 1179 q 519 1163 503 1179 q 534 1125 534 1147 q 519 1087 534 1103 q 481 1072 503 1072 q 443 1087 458 1072 q 427 1125 427 1103 z "},"Ò":{"ha":746,"x_min":107,"x_max":643,"o":"m 107 696 q 128 801 107 752 q 185 886 149 850 q 271 943 222 922 q 375 964 319 964 q 479 943 431 964 q 565 886 528 922 q 622 801 601 850 q 643 696 643 752 l 643 268 q 622 163 643 212 q 565 78 601 115 q 479 21 528 42 q 375 0 431 0 q 271 21 319 0 q 185 78 222 42 q 128 163 149 115 q 107 268 107 212 l 107 696 m 375 857 q 313 845 342 857 q 261 810 283 832 q 227 759 239 788 q 214 696 214 730 l 214 268 q 227 205 214 235 q 261 154 239 176 q 313 120 283 132 q 375 107 342 107 q 437 120 408 107 q 489 154 467 132 q 523 205 511 176 q 536 268 536 235 l 536 696 q 523 759 536 730 q 489 810 511 788 q 437 845 467 832 q 375 857 408 857 m 214 1179 l 214 1286 l 536 1125 l 536 1018 l 214 1179 z "},"Ő":{"ha":746,"x_min":107,"x_max":643,"o":"m 107 696 q 128 801 107 752 q 185 886 149 850 q 271 943 222 922 q 375 964 319 964 q 479 943 431 964 q 565 886 528 922 q 622 801 601 850 q 643 696 643 752 l 643 268 q 622 163 643 212 q 565 78 601 115 q 479 21 528 42 q 375 0 431 0 q 271 21 319 0 q 185 78 222 42 q 128 163 149 115 q 107 268 107 212 l 107 696 m 375 857 q 313 845 342 857 q 261 810 283 832 q 227 759 239 788 q 214 696 214 730 l 214 268 q 227 205 214 235 q 261 154 239 176 q 313 120 283 132 q 375 107 342 107 q 437 120 408 107 q 489 154 467 132 q 523 205 511 176 q 536 268 536 235 l 536 696 q 523 759 536 730 q 489 810 511 788 q 437 845 467 832 q 375 857 408 857 m 153 1072 l 108 1125 l 331 1286 l 376 1232 l 153 1072 m 420 1072 l 375 1125 l 598 1286 l 643 1232 l 420 1072 z "},"Ō":{"ha":746,"x_min":107,"x_max":643,"o":"m 107 696 q 128 801 107 752 q 185 886 149 850 q 271 943 222 922 q 375 964 319 964 q 479 943 431 964 q 565 886 528 922 q 622 801 601 850 q 643 696 643 752 l 643 268 q 622 163 643 212 q 565 78 601 115 q 479 21 528 42 q 375 0 431 0 q 271 21 319 0 q 185 78 222 42 q 128 163 149 115 q 107 268 107 212 l 107 696 m 375 857 q 313 845 342 857 q 261 810 283 832 q 227 759 239 788 q 214 696 214 730 l 214 268 q 227 205 214 235 q 261 154 239 176 q 313 120 283 132 q 375 107 342 107 q 437 120 408 107 q 489 154 467 132 q 523 205 511 176 q 536 268 536 235 l 536 696 q 523 759 536 730 q 489 810 511 788 q 437 845 467 832 q 375 857 408 857 m 107 1072 l 107 1179 l 643 1179 l 643 1072 l 107 1072 z "},"Ω":{"ha":746,"x_min":-3,"x_max":750,"o":"m 429 113 q 518 159 478 125 q 585 241 557 193 q 628 352 613 290 q 643 482 643 414 q 624 628 643 559 q 570 747 605 696 q 486 828 535 798 q 375 857 436 857 q 264 828 314 857 q 179 747 214 798 q 124 628 143 696 q 104 482 104 559 q 120 352 104 414 q 163 241 135 290 q 232 159 192 193 q 321 113 272 125 l 321 0 l 0 0 l 0 107 l 132 107 q 33 271 68 174 q -3 482 -3 368 q 25 670 -3 582 q 103 823 53 758 q 222 926 153 888 q 375 964 292 964 q 527 926 458 964 q 646 823 596 888 q 723 670 695 758 q 750 482 750 582 q 715 271 750 368 q 616 107 680 174 l 750 107 l 750 0 l 429 0 l 429 113 z "},"Ο":{"ha":746,"x_min":107,"x_max":643,"o":"m 107 696 q 128 801 107 752 q 185 886 149 850 q 271 943 222 922 q 375 964 319 964 q 479 943 431 964 q 565 886 528 922 q 622 801 601 850 q 643 696 643 752 l 643 268 q 622 163 643 212 q 565 78 601 115 q 479 21 528 42 q 375 0 431 0 q 271 21 319 0 q 185 78 222 42 q 128 163 149 115 q 107 268 107 212 l 107 696 m 375 857 q 313 845 342 857 q 261 810 283 832 q 227 759 239 788 q 214 696 214 730 l 214 268 q 227 205 214 235 q 261 154 239 176 q 313 120 283 132 q 375 107 342 107 q 437 120 408 107 q 489 154 467 132 q 523 205 511 176 q 536 268 536 235 l 536 696 q 523 759 536 730 q 489 810 511 788 q 437 845 467 832 q 375 857 408 857 z "},"Ø":{"ha":746,"x_min":107,"x_max":643,"o":"m 219 0 l 107 0 l 154 117 q 119 187 132 149 q 107 268 107 225 l 107 696 q 128 801 107 752 q 185 886 149 850 q 271 943 222 922 q 375 964 319 964 q 448 954 414 964 q 513 926 483 944 l 536 964 l 643 964 q 642 958 643 962 q 636 942 641 954 q 623 908 632 930 q 596 848 613 886 q 630 777 618 815 q 643 696 643 739 l 643 268 q 622 163 643 212 q 565 78 601 115 q 479 21 528 42 q 375 0 431 0 q 301 10 336 0 q 236 39 267 20 l 219 0 m 536 268 q 535 489 536 380 q 535 710 535 597 l 280 138 q 324 115 300 123 q 375 107 349 107 q 437 120 408 107 q 489 154 467 132 q 523 205 511 176 q 536 268 536 235 m 375 857 q 313 845 342 857 q 261 810 283 832 q 227 759 239 788 q 214 696 214 730 l 214 245 l 469 827 q 426 849 450 841 q 375 857 401 857 z "},"Ǿ":{"ha":746,"x_min":107,"x_max":643,"o":"m 268 1072 l 214 1125 l 482 1286 l 536 1232 l 268 1072 m 230 0 l 107 0 q 108 10 107 4 q 115 31 110 17 q 131 72 120 45 q 162 143 142 99 q 126 237 139 186 q 112 344 112 288 l 112 620 q 133 754 112 691 q 189 864 154 817 q 273 937 225 910 q 375 964 321 964 q 441 953 410 964 q 501 922 473 942 l 520 964 l 643 964 q 642 953 643 960 q 635 933 640 947 q 618 892 629 918 q 588 821 607 866 q 624 728 611 779 q 638 620 638 677 l 638 344 q 617 210 638 273 q 561 101 596 147 q 477 27 525 54 q 375 0 430 0 q 309 11 340 0 q 249 43 277 23 l 230 0 m 533 620 q 531 650 533 635 q 526 678 529 664 l 301 162 q 375 138 335 138 q 436 154 408 138 q 486 198 465 170 q 520 264 508 227 q 533 344 533 302 l 533 620 m 218 344 q 224 285 218 311 l 449 802 q 414 820 432 814 q 375 827 395 827 q 314 810 342 827 q 264 766 285 794 q 230 700 242 738 q 218 620 218 663 l 218 344 z "},"Õ":{"ha":746,"x_min":107,"x_max":643,"o":"m 107 696 q 128 801 107 752 q 185 886 149 850 q 271 943 222 922 q 375 964 319 964 q 479 943 431 964 q 565 886 528 922 q 622 801 601 850 q 643 696 643 752 l 643 268 q 622 163 643 212 q 565 78 601 115 q 479 21 528 42 q 375 0 431 0 q 271 21 319 0 q 185 78 222 42 q 128 163 149 115 q 107 268 107 212 l 107 696 m 375 857 q 313 845 342 857 q 261 810 283 832 q 227 759 239 788 q 214 696 214 730 l 214 268 q 227 205 214 235 q 261 154 239 176 q 313 120 283 132 q 375 107 342 107 q 437 120 408 107 q 489 154 467 132 q 523 205 511 176 q 536 268 536 235 l 536 696 q 523 759 536 730 q 489 810 511 788 q 437 845 467 832 q 375 857 408 857 m 643 1232 q 482 1072 562 1072 q 418 1079 442 1072 q 379 1099 394 1087 q 355 1125 364 1112 q 335 1151 346 1139 q 310 1171 325 1163 q 268 1179 294 1179 q 229 1170 248 1179 q 194 1145 210 1160 q 170 1111 179 1130 q 161 1072 161 1092 l 107 1125 q 268 1286 187 1286 q 332 1278 308 1286 q 371 1258 356 1270 q 395 1232 386 1246 q 415 1206 404 1219 q 440 1186 425 1194 q 482 1179 455 1179 q 522 1188 503 1179 q 556 1212 541 1197 q 580 1246 571 1227 q 589 1286 589 1265 l 643 1232 z "},"P":{"ha":746,"x_min":107,"x_max":643,"o":"m 214 0 l 107 0 l 107 964 l 375 964 q 479 943 431 964 q 565 886 528 922 q 622 801 601 850 q 643 696 643 752 q 622 592 643 641 q 565 507 601 543 q 479 450 528 471 q 375 429 431 429 l 214 429 l 214 0 m 375 536 q 437 548 408 536 q 489 583 467 561 q 523 634 511 605 q 536 696 536 663 q 523 759 536 730 q 489 810 511 788 q 437 845 467 832 q 375 857 408 857 l 214 857 l 214 536 l 375 536 z "},"Φ":{"ha":746,"x_min":0,"x_max":750,"o":"m 321 214 l 268 214 q 163 235 212 214 q 78 293 115 256 q 21 378 42 329 q 0 482 0 427 q 21 587 0 538 q 78 672 42 635 q 163 729 115 708 q 268 750 212 750 l 321 750 l 321 964 l 429 964 l 429 750 l 482 750 q 587 729 538 750 q 672 672 635 708 q 729 587 708 635 q 750 482 750 538 q 729 378 750 427 q 672 293 708 329 q 587 235 635 256 q 482 214 538 214 l 429 214 l 429 0 l 321 0 l 321 214 m 429 643 l 429 321 l 482 321 q 545 334 515 321 q 596 369 574 347 q 630 420 618 391 q 643 482 643 449 q 630 545 643 515 q 596 596 618 574 q 545 630 574 618 q 482 643 515 643 l 429 643 m 107 482 q 120 420 107 449 q 154 369 132 391 q 205 334 176 347 q 268 321 235 321 l 321 321 l 321 643 l 268 643 q 205 630 235 643 q 154 596 176 618 q 120 545 132 574 q 107 482 107 515 z "},"Π":{"ha":746,"x_min":107,"x_max":643,"o":"m 107 964 l 643 964 l 643 0 l 536 0 l 536 857 l 214 857 l 214 0 l 107 0 l 107 964 z "},"Q":{"ha":746,"x_min":107,"x_max":647,"o":"m 469 17 q 375 0 424 0 q 271 21 319 0 q 185 78 222 42 q 128 163 149 115 q 107 268 107 212 l 107 696 q 128 801 107 752 q 185 886 149 850 q 271 943 222 922 q 375 964 319 964 q 479 943 431 964 q 565 886 528 922 q 622 801 601 850 q 643 696 643 752 l 643 268 q 620 159 643 210 q 557 71 597 108 l 647 -107 l 532 -107 l 469 17 m 375 857 q 313 845 342 857 q 261 810 283 832 q 227 759 239 788 q 214 696 214 730 l 214 268 q 227 205 214 235 q 261 154 239 176 q 313 120 283 132 q 375 107 342 107 q 421 114 400 107 l 317 321 l 433 321 l 506 174 q 528 218 519 194 q 536 268 536 241 l 536 696 q 523 759 536 730 q 489 810 511 788 q 437 845 467 832 q 375 857 408 857 z "},"R":{"ha":746,"x_min":107,"x_max":648,"o":"m 436 435 q 648 0 648 2 l 525 0 q 316 429 316 427 l 214 429 l 214 0 l 107 0 l 107 964 l 375 964 q 479 943 431 964 q 565 886 528 922 q 622 801 601 850 q 643 696 643 752 q 627 606 643 649 q 584 529 612 564 q 518 470 556 494 q 436 435 480 446 m 375 536 q 437 548 408 536 q 489 583 467 561 q 523 634 511 605 q 536 696 536 663 q 523 759 536 730 q 489 810 511 788 q 437 845 467 832 q 375 857 408 857 l 214 857 l 214 536 l 375 536 z "},"Ŕ":{"ha":746,"x_min":107,"x_max":648,"o":"m 436 435 q 648 0 648 2 l 525 0 q 316 429 316 427 l 214 429 l 214 0 l 107 0 l 107 964 l 375 964 q 479 943 431 964 q 565 886 528 922 q 622 801 601 850 q 643 696 643 752 q 627 606 643 649 q 584 529 612 564 q 518 470 556 494 q 436 435 480 446 m 375 536 q 437 548 408 536 q 489 583 467 561 q 523 634 511 605 q 536 696 536 663 q 523 759 536 730 q 489 810 511 788 q 437 845 467 832 q 375 857 408 857 l 214 857 l 214 536 l 375 536 m 268 1072 l 214 1125 l 482 1286 l 536 1232 l 268 1072 z "},"Ř":{"ha":746,"x_min":107,"x_max":648,"o":"m 436 435 q 648 0 648 2 l 525 0 q 316 429 316 427 l 214 429 l 214 0 l 107 0 l 107 964 l 375 964 q 479 943 431 964 q 565 886 528 922 q 622 801 601 850 q 643 696 643 752 q 627 606 643 649 q 584 529 612 564 q 518 470 556 494 q 436 435 480 446 m 375 536 q 437 548 408 536 q 489 583 467 561 q 523 634 511 605 q 536 696 536 663 q 523 759 536 730 q 489 810 511 788 q 437 845 467 832 q 375 857 408 857 l 214 857 l 214 536 l 375 536 m 213 1232 l 267 1286 l 374 1179 l 481 1286 l 534 1232 l 374 1072 l 213 1232 z "},"Ŗ":{"ha":746,"x_min":107,"x_max":648,"o":"m 436 435 q 648 0 648 2 l 525 0 q 316 429 316 427 l 214 429 l 214 0 l 107 0 l 107 964 l 375 964 q 479 943 431 964 q 565 886 528 922 q 622 801 601 850 q 643 696 643 752 q 627 606 643 649 q 584 529 612 564 q 518 470 556 494 q 436 435 480 446 m 375 536 q 437 548 408 536 q 489 583 467 561 q 523 634 511 605 q 536 696 536 663 q 523 759 536 730 q 489 810 511 788 q 437 845 467 832 q 375 857 408 857 l 214 857 l 214 536 l 375 536 m 268 -428 q 230 -412 245 -428 q 214 -374 214 -397 q 230 -336 214 -352 q 268 -321 245 -321 q 299 -314 288 -321 q 315 -293 310 -307 q 321 -259 320 -279 q 321 -214 321 -239 q 280 -205 299 -214 q 246 -182 260 -197 q 223 -148 231 -168 q 214 -106 214 -129 q 223 -65 214 -84 q 246 -31 231 -45 q 280 -8 260 -16 q 321 1 299 1 q 363 -8 344 1 q 397 -31 382 -16 q 420 -65 412 -45 q 429 -106 429 -84 l 429 -214 q 418 -292 429 -254 q 388 -361 408 -331 q 338 -410 368 -391 q 268 -428 308 -428 z "},"Ρ":{"ha":746,"x_min":107,"x_max":643,"o":"m 214 0 l 107 0 l 107 964 l 375 964 q 479 943 431 964 q 565 886 528 922 q 622 801 601 850 q 643 696 643 752 q 622 592 643 641 q 565 507 601 543 q 479 450 528 471 q 375 429 431 429 l 214 429 l 214 0 m 375 536 q 437 548 408 536 q 489 583 467 561 q 523 634 511 605 q 536 696 536 663 q 523 759 536 730 q 489 810 511 788 q 437 845 467 832 q 375 857 408 857 l 214 857 l 214 536 l 375 536 z "},"S":{"ha":746,"x_min":107,"x_max":643,"o":"m 214 696 q 227 634 214 663 q 261 583 239 605 q 313 548 283 561 q 375 536 342 536 q 479 515 431 536 q 565 457 528 494 q 622 372 601 421 q 643 268 643 323 q 622 163 643 212 q 565 78 601 115 q 479 21 528 42 q 375 0 431 0 l 107 0 l 107 107 l 375 107 q 437 120 408 107 q 489 154 467 132 q 523 205 511 176 q 536 268 536 235 q 523 330 536 301 q 489 381 511 359 q 437 416 467 404 q 375 429 408 429 q 271 450 319 429 q 185 507 222 471 q 128 592 149 543 q 107 696 107 641 q 128 801 107 752 q 185 886 149 850 q 271 943 222 922 q 375 964 319 964 l 643 964 l 643 857 l 375 857 q 313 845 342 857 q 261 810 283 832 q 227 759 239 788 q 214 696 214 730 z "},"┌":{"ha":746,"x_min":321,"x_max":750,"o":"m 321 -429 l 321 536 l 750 536 l 750 429 l 429 429 l 429 -429 l 321 -429 z "},"└":{"ha":746,"x_min":321,"x_max":750,"o":"m 321 1339 l 429 1339 l 429 536 l 750 536 l 750 429 l 321 429 l 321 1339 z "},"┐":{"ha":746,"x_min":0,"x_max":429,"o":"m 0 536 l 429 536 l 429 -429 l 321 -429 l 321 429 l 0 429 l 0 536 z "},"┘":{"ha":746,"x_min":0,"x_max":429,"o":"m 0 536 l 321 536 l 321 1339 l 429 1339 l 429 429 l 0 429 l 0 536 z "},"┼":{"ha":746,"x_min":0,"x_max":750,"o":"m 0 536 l 321 536 l 321 1339 l 429 1339 l 429 536 l 750 536 l 750 429 l 429 429 l 429 -429 l 321 -429 l 321 429 l 0 429 l 0 536 z "},"┬":{"ha":746,"x_min":0,"x_max":750,"o":"m 0 536 l 750 536 l 750 429 l 429 429 l 429 -429 l 321 -429 l 321 429 l 0 429 l 0 536 z "},"┴":{"ha":746,"x_min":0,"x_max":750,"o":"m 0 536 l 321 536 l 321 1339 l 429 1339 l 429 536 l 750 536 l 750 429 l 0 429 l 0 536 z "},"├":{"ha":746,"x_min":321,"x_max":750,"o":"m 321 1339 l 429 1339 l 429 536 l 750 536 l 750 429 l 429 429 l 429 -429 l 321 -429 l 321 1339 z "},"┤":{"ha":746,"x_min":0,"x_max":429,"o":"m 0 536 l 321 536 l 321 1339 l 429 1339 l 429 -429 l 321 -429 l 321 429 l 0 429 l 0 536 z "},"─":{"ha":746,"x_min":0,"x_max":750,"o":"m 0 536 l 750 536 l 750 429 l 0 429 l 0 536 z "},"│":{"ha":746,"x_min":321,"x_max":429,"o":"m 321 1339 l 429 1339 l 429 -429 l 321 -429 l 321 1339 z "},"╡":{"ha":746,"x_min":0,"x_max":429,"o":"m 429 -429 l 321 -429 l 321 321 l 0 321 l 0 429 l 321 429 l 321 536 l 0 536 l 0 643 l 321 643 l 321 1339 l 429 1339 l 429 -429 z "},"╢":{"ha":746,"x_min":0,"x_max":536,"o":"m 321 -429 l 214 -429 l 214 429 l 0 429 l 0 536 l 214 536 l 214 1339 l 321 1339 l 321 -429 m 429 -429 l 429 1339 l 536 1339 l 536 -429 l 429 -429 z "},"╖":{"ha":746,"x_min":0,"x_max":536,"o":"m 536 -429 l 429 -429 l 429 429 l 321 429 l 321 -429 l 214 -429 l 214 429 l 0 429 l 0 536 l 536 536 l 536 -429 z "},"╕":{"ha":746,"x_min":0,"x_max":429,"o":"m 429 -429 l 321 -429 l 321 321 l 0 321 l 0 429 l 321 429 l 321 536 l 0 536 l 0 643 l 429 643 l 429 -429 z "},"╣":{"ha":746,"x_min":0,"x_max":536,"o":"m 429 -429 l 429 1339 l 536 1339 l 536 -429 l 429 -429 m 0 321 l 0 429 l 321 429 l 321 -429 l 214 -429 l 214 321 l 0 321 m 321 536 l 0 536 l 0 643 l 214 643 l 214 1339 l 321 1339 l 321 536 z "},"║":{"ha":746,"x_min":214,"x_max":536,"o":"m 429 -429 l 429 1339 l 536 1339 l 536 -429 l 429 -429 m 321 -429 l 214 -429 l 214 1339 l 321 1339 l 321 -429 z "},"╗":{"ha":746,"x_min":0,"x_max":536,"o":"m 0 643 l 536 643 l 536 -429 l 429 -429 l 429 536 l 0 536 l 0 643 m 0 321 l 0 429 l 321 429 l 321 -429 l 214 -429 l 214 321 l 0 321 z "},"╝":{"ha":746,"x_min":0,"x_max":536,"o":"m 0 429 l 429 429 l 429 1339 l 536 1339 l 536 321 l 0 321 l 0 429 m 321 536 l 0 536 l 0 643 l 214 643 l 214 1339 l 321 1339 l 321 536 z "},"╜":{"ha":746,"x_min":0,"x_max":536,"o":"m 536 429 l 0 429 l 0 536 l 214 536 l 214 1339 l 321 1339 l 321 536 l 429 536 l 429 1339 l 536 1339 l 536 429 z "},"╛":{"ha":746,"x_min":0,"x_max":429,"o":"m 429 321 l 0 321 l 0 429 l 321 429 l 321 536 l 0 536 l 0 643 l 321 643 l 321 1339 l 429 1339 l 429 321 z "},"╞":{"ha":746,"x_min":321,"x_max":750,"o":"m 429 -429 l 321 -429 l 321 1339 l 429 1339 l 429 643 l 750 643 l 750 536 l 429 536 l 429 429 l 750 429 l 750 321 l 429 321 l 429 -429 z "},"╟":{"ha":746,"x_min":214,"x_max":750,"o":"m 750 536 l 750 429 l 536 429 l 536 -429 l 429 -429 l 429 1339 l 536 1339 l 536 536 l 750 536 m 321 -429 l 214 -429 l 214 1339 l 321 1339 l 321 -429 z "},"╚":{"ha":746,"x_min":214,"x_max":750,"o":"m 214 1339 l 321 1339 l 321 429 l 750 429 l 750 321 l 214 321 l 214 1339 m 429 536 l 429 1339 l 536 1339 l 536 643 l 750 643 l 750 536 l 429 536 z "},"╔":{"ha":746,"x_min":214,"x_max":750,"o":"m 750 643 l 750 536 l 321 536 l 321 -429 l 214 -429 l 214 643 l 750 643 m 429 429 l 750 429 l 750 321 l 536 321 l 536 -429 l 429 -429 l 429 429 z "},"╩":{"ha":746,"x_min":0,"x_max":750,"o":"m 321 536 l 0 536 l 0 643 l 214 643 l 214 1339 l 321 1339 l 321 536 m 429 536 l 429 1339 l 536 1339 l 536 643 l 750 643 l 750 536 l 429 536 m 0 429 l 750 429 l 750 321 l 0 321 l 0 429 z "},"╦":{"ha":746,"x_min":0,"x_max":750,"o":"m 0 321 l 0 429 l 321 429 l 321 -429 l 214 -429 l 214 321 l 0 321 m 429 429 l 750 429 l 750 321 l 536 321 l 536 -429 l 429 -429 l 429 429 m 0 643 l 750 643 l 750 536 l 0 536 l 0 643 z "},"╠":{"ha":746,"x_min":214,"x_max":750,"o":"m 321 -429 l 214 -429 l 214 1339 l 321 1339 l 321 -429 m 429 429 l 750 429 l 750 321 l 536 321 l 536 -429 l 429 -429 l 429 429 m 429 536 l 429 1339 l 536 1339 l 536 643 l 750 643 l 750 536 l 429 536 z "},"═":{"ha":746,"x_min":0,"x_max":750,"o":"m 0 643 l 750 643 l 750 536 l 0 536 l 0 643 m 0 429 l 750 429 l 750 321 l 0 321 l 0 429 z "},"╬":{"ha":746,"x_min":0,"x_max":750,"o":"m 0 321 l 0 429 l 321 429 l 321 -429 l 214 -429 l 214 321 l 0 321 m 429 429 l 750 429 l 750 321 l 536 321 l 536 -429 l 429 -429 l 429 429 m 321 536 l 0 536 l 0 643 l 214 643 l 214 1339 l 321 1339 l 321 536 m 429 536 l 429 1339 l 536 1339 l 536 643 l 750 643 l 750 536 l 429 536 z "},"╧":{"ha":746,"x_min":0,"x_max":750,"o":"m 0 643 l 321 643 l 321 1339 l 429 1339 l 429 643 l 750 643 l 750 536 l 0 536 l 0 643 m 0 429 l 750 429 l 750 321 l 0 321 l 0 429 z "},"╨":{"ha":746,"x_min":0,"x_max":750,"o":"m 0 429 l 0 536 l 214 536 l 214 1339 l 321 1339 l 321 536 l 429 536 l 429 1339 l 536 1339 l 536 536 l 750 536 l 750 429 l 0 429 z "},"╤":{"ha":746,"x_min":0,"x_max":750,"o":"m 750 429 l 750 321 l 429 321 l 429 -429 l 321 -429 l 321 321 l 0 321 l 0 429 l 750 429 m 0 536 l 0 643 l 750 643 l 750 536 l 0 536 z "},"╥":{"ha":746,"x_min":0,"x_max":750,"o":"m 536 429 l 536 -429 l 429 -429 l 429 429 l 321 429 l 321 -429 l 214 -429 l 214 429 l 0 429 l 0 536 l 750 536 l 750 429 l 536 429 z "},"╙":{"ha":746,"x_min":214,"x_max":750,"o":"m 214 429 l 214 1339 l 321 1339 l 321 536 l 429 536 l 429 1339 l 536 1339 l 536 536 l 750 536 l 750 429 l 214 429 z "},"╘":{"ha":746,"x_min":321,"x_max":750,"o":"m 429 536 l 429 429 l 750 429 l 750 321 l 321 321 l 321 1339 l 429 1339 l 429 643 l 750 643 l 750 536 l 429 536 z "},"╒":{"ha":746,"x_min":321,"x_max":750,"o":"m 429 536 l 429 429 l 750 429 l 750 321 l 429 321 l 429 -429 l 321 -429 l 321 643 l 750 643 l 750 536 l 429 536 z "},"╓":{"ha":746,"x_min":214,"x_max":750,"o":"m 536 429 l 536 -429 l 429 -429 l 429 429 l 321 429 l 321 -429 l 214 -429 l 214 536 l 750 536 l 750 429 l 536 429 z "},"╫":{"ha":746,"x_min":0,"x_max":750,"o":"m 536 429 l 536 -429 l 429 -429 l 429 429 l 321 429 l 321 -429 l 214 -429 l 214 429 l 0 429 l 0 536 l 214 536 l 214 1339 l 321 1339 l 321 536 l 429 536 l 429 1339 l 536 1339 l 536 536 l 750 536 l 750 429 l 536 429 z "},"╪":{"ha":746,"x_min":0,"x_max":750,"o":"m 429 536 l 429 429 l 750 429 l 750 321 l 429 321 l 429 -429 l 321 -429 l 321 321 l 0 321 l 0 429 l 321 429 l 321 536 l 0 536 l 0 643 l 321 643 l 321 1339 l 429 1339 l 429 643 l 750 643 l 750 536 l 429 536 z "},"Ś":{"ha":746,"x_min":107,"x_max":643,"o":"m 214 696 q 227 634 214 663 q 261 583 239 605 q 313 548 283 561 q 375 536 342 536 q 479 515 431 536 q 565 457 528 494 q 622 372 601 421 q 643 268 643 323 q 622 163 643 212 q 565 78 601 115 q 479 21 528 42 q 375 0 431 0 l 107 0 l 107 107 l 375 107 q 437 120 408 107 q 489 154 467 132 q 523 205 511 176 q 536 268 536 235 q 523 330 536 301 q 489 381 511 359 q 437 416 467 404 q 375 429 408 429 q 271 450 319 429 q 185 507 222 471 q 128 592 149 543 q 107 696 107 641 q 128 801 107 752 q 185 886 149 850 q 271 943 222 922 q 375 964 319 964 l 643 964 l 643 857 l 375 857 q 313 845 342 857 q 261 810 283 832 q 227 759 239 788 q 214 696 214 730 m 268 1072 l 214 1125 l 482 1286 l 536 1232 l 268 1072 z "},"Š":{"ha":746,"x_min":107,"x_max":643,"o":"m 214 696 q 227 634 214 663 q 261 583 239 605 q 313 548 283 561 q 375 536 342 536 q 479 515 431 536 q 565 457 528 494 q 622 372 601 421 q 643 268 643 323 q 622 163 643 212 q 565 78 601 115 q 479 21 528 42 q 375 0 431 0 l 107 0 l 107 107 l 375 107 q 437 120 408 107 q 489 154 467 132 q 523 205 511 176 q 536 268 536 235 q 523 330 536 301 q 489 381 511 359 q 437 416 467 404 q 375 429 408 429 q 271 450 319 429 q 185 507 222 471 q 128 592 149 543 q 107 696 107 641 q 128 801 107 752 q 185 886 149 850 q 271 943 222 922 q 375 964 319 964 l 643 964 l 643 857 l 375 857 q 313 845 342 857 q 261 810 283 832 q 227 759 239 788 q 214 696 214 730 m 214 1232 l 268 1286 l 375 1179 l 482 1286 l 536 1232 l 375 1072 l 214 1232 z "},"Ş":{"ha":746,"x_min":105,"x_max":643,"o":"m 214 696 q 227 634 214 663 q 261 583 239 605 q 313 548 283 561 q 375 536 342 536 q 479 515 431 536 q 565 457 528 494 q 622 372 601 421 q 643 268 643 323 q 622 163 643 212 q 565 78 601 115 q 479 21 528 42 q 429 5 455 10 l 425 -28 q 406 -109 422 -72 q 346 -188 387 -157 q 245 -226 306 -218 q 105 -214 185 -235 l 105 -107 q 207 -128 165 -127 q 273 -114 248 -129 q 309 -70 298 -99 q 319 0 319 -40 l 107 0 l 107 107 l 375 107 q 437 120 408 107 q 489 154 467 132 q 523 205 511 176 q 536 268 536 235 q 523 330 536 301 q 489 381 511 359 q 437 416 467 404 q 375 429 408 429 q 271 450 319 429 q 185 507 222 471 q 128 592 149 543 q 107 696 107 641 q 128 801 107 752 q 185 886 149 850 q 271 943 222 922 q 375 964 319 964 l 643 964 l 643 857 l 375 857 q 313 845 342 857 q 261 810 283 832 q 227 759 239 788 q 214 696 214 730 z "},"Ŝ":{"ha":746,"x_min":107,"x_max":643,"o":"m 214 696 q 227 634 214 663 q 261 583 239 605 q 313 548 283 561 q 375 536 342 536 q 479 515 431 536 q 565 457 528 494 q 622 372 601 421 q 643 268 643 323 q 622 163 643 212 q 565 78 601 115 q 479 21 528 42 q 375 0 431 0 l 107 0 l 107 107 l 375 107 q 437 120 408 107 q 489 154 467 132 q 523 205 511 176 q 536 268 536 235 q 523 330 536 301 q 489 381 511 359 q 437 416 467 404 q 375 429 408 429 q 271 450 319 429 q 185 507 222 471 q 128 592 149 543 q 107 696 107 641 q 128 801 107 752 q 185 886 149 850 q 271 943 222 922 q 375 964 319 964 l 643 964 l 643 857 l 375 857 q 313 845 342 857 q 261 810 283 832 q 227 759 239 788 q 214 696 214 730 m 374 1286 l 534 1125 l 481 1072 l 374 1179 l 267 1072 l 213 1125 l 374 1286 z "},"Ș":{"ha":746,"x_min":107,"x_max":643,"o":"m 214 696 q 227 634 214 663 q 261 583 239 605 q 313 548 283 561 q 375 536 342 536 q 479 515 431 536 q 565 457 528 494 q 622 372 601 421 q 643 268 643 323 q 622 163 643 212 q 565 78 601 115 q 479 21 528 42 q 375 0 431 0 l 107 0 l 107 107 l 375 107 q 437 120 408 107 q 489 154 467 132 q 523 205 511 176 q 536 268 536 235 q 523 330 536 301 q 489 381 511 359 q 437 416 467 404 q 375 429 408 429 q 271 450 319 429 q 185 507 222 471 q 128 592 149 543 q 107 696 107 641 q 128 801 107 752 q 185 886 149 850 q 271 943 222 922 q 375 964 319 964 l 643 964 l 643 857 l 375 857 q 313 845 342 857 q 261 810 283 832 q 227 759 239 788 q 214 696 214 730 m 268 -428 q 230 -412 245 -428 q 214 -374 214 -397 q 230 -336 214 -352 q 268 -321 245 -321 q 299 -314 288 -321 q 315 -293 310 -307 q 321 -259 320 -279 q 321 -214 321 -239 q 280 -205 299 -214 q 246 -182 260 -197 q 223 -148 231 -168 q 214 -106 214 -129 q 223 -65 214 -84 q 246 -31 231 -45 q 280 -8 260 -16 q 321 1 299 1 q 363 -8 344 1 q 397 -31 382 -16 q 420 -65 412 -45 q 429 -106 429 -84 l 429 -214 q 418 -292 429 -254 q 388 -361 408 -331 q 338 -410 368 -391 q 268 -428 308 -428 z "},"Σ":{"ha":746,"x_min":107,"x_max":643,"o":"m 643 857 l 214 857 l 429 482 l 214 107 l 643 107 l 643 0 l 107 0 l 107 107 l 321 482 l 107 857 l 107 964 l 643 964 l 643 857 z "},"T":{"ha":746,"x_min":107,"x_max":643,"o":"m 321 857 l 107 857 l 107 964 l 643 964 l 643 857 l 429 857 l 429 0 l 321 0 l 321 857 z "},"Τ":{"ha":746,"x_min":107,"x_max":643,"o":"m 321 857 l 107 857 l 107 964 l 643 964 l 643 857 l 429 857 l 429 0 l 321 0 l 321 857 z "},"Ŧ":{"ha":746,"x_min":107,"x_max":643,"o":"m 107 536 l 107 643 l 321 643 l 321 857 l 107 857 l 107 964 l 643 964 l 643 857 l 429 857 l 429 643 l 643 643 l 643 536 l 429 536 l 429 0 l 321 0 l 321 536 l 107 536 z "},"Ť":{"ha":746,"x_min":107,"x_max":643,"o":"m 321 857 l 107 857 l 107 964 l 643 964 l 643 857 l 429 857 l 429 0 l 321 0 l 321 857 m 213 1232 l 267 1286 l 374 1179 l 481 1286 l 534 1232 l 374 1072 l 213 1232 z "},"Ţ":{"ha":746,"x_min":107,"x_max":643,"o":"m 321 857 l 107 857 l 107 964 l 643 964 l 643 857 l 429 857 l 429 0 l 321 0 l 321 857 m 268 -428 q 230 -412 245 -428 q 214 -374 214 -397 q 230 -336 214 -352 q 268 -321 245 -321 q 299 -314 288 -321 q 315 -293 310 -307 q 321 -259 320 -279 q 321 -214 321 -239 q 280 -205 299 -214 q 246 -182 260 -197 q 223 -148 231 -168 q 214 -106 214 -129 q 223 -65 214 -84 q 246 -31 231 -45 q 280 -8 260 -16 q 321 1 299 1 q 363 -8 344 1 q 397 -31 382 -16 q 420 -65 412 -45 q 429 -106 429 -84 l 429 -214 q 418 -292 429 -254 q 388 -361 408 -331 q 338 -410 368 -391 q 268 -428 308 -428 z "},"Θ":{"ha":746,"x_min":107,"x_max":643,"o":"m 107 696 q 128 801 107 752 q 185 886 149 850 q 271 943 222 922 q 375 964 319 964 q 479 943 431 964 q 565 886 528 922 q 622 801 601 850 q 643 696 643 752 l 643 268 q 622 163 643 212 q 565 78 601 115 q 479 21 528 42 q 375 0 431 0 q 271 21 319 0 q 185 78 222 42 q 128 163 149 115 q 107 268 107 212 l 107 696 m 375 857 q 313 845 342 857 q 261 810 283 832 q 227 759 239 788 q 214 696 214 730 l 214 268 q 227 205 214 235 q 261 154 239 176 q 313 120 283 132 q 375 107 342 107 q 437 120 408 107 q 489 154 467 132 q 523 205 511 176 q 536 268 536 235 l 536 696 q 523 759 536 730 q 489 810 511 788 q 437 845 467 832 q 375 857 408 857 m 321 536 l 429 536 l 429 429 l 321 429 l 321 536 z "},"Þ":{"ha":746,"x_min":107,"x_max":643,"o":"m 429 750 q 507 732 469 750 q 576 683 546 713 q 625 614 606 653 q 643 536 643 576 l 643 429 q 625 350 643 389 q 576 281 606 311 q 507 233 546 251 q 429 214 469 214 l 214 214 l 214 0 l 107 0 l 107 964 l 214 964 l 214 750 l 429 750 m 536 536 q 527 575 536 556 q 502 609 517 594 q 468 634 487 625 q 429 643 449 643 l 214 643 l 214 321 l 429 321 q 468 331 449 321 q 502 355 487 340 q 527 389 517 370 q 536 429 536 408 l 536 536 z "},"U":{"ha":746,"x_min":107,"x_max":643,"o":"m 107 964 l 214 964 l 214 268 q 227 205 214 235 q 261 154 239 176 q 313 120 283 132 q 375 107 342 107 q 437 120 408 107 q 489 154 467 132 q 523 205 511 176 q 536 268 536 235 l 536 964 l 643 964 l 643 268 q 622 163 643 212 q 565 78 601 115 q 479 21 528 42 q 375 0 431 0 q 271 21 319 0 q 185 78 222 42 q 128 163 149 115 q 107 268 107 212 l 107 536 l 107 964 z "},"Ú":{"ha":746,"x_min":107,"x_max":643,"o":"m 107 964 l 214 964 l 214 268 q 227 205 214 235 q 261 154 239 176 q 313 120 283 132 q 375 107 342 107 q 437 120 408 107 q 489 154 467 132 q 523 205 511 176 q 536 268 536 235 l 536 964 l 643 964 l 643 268 q 622 163 643 212 q 565 78 601 115 q 479 21 528 42 q 375 0 431 0 q 271 21 319 0 q 185 78 222 42 q 128 163 149 115 q 107 268 107 212 l 107 536 l 107 964 m 268 1072 l 214 1125 l 482 1286 l 536 1232 l 268 1072 z "},"Ŭ":{"ha":746,"x_min":107,"x_max":643,"o":"m 107 964 l 214 964 l 214 268 q 227 205 214 235 q 261 154 239 176 q 313 120 283 132 q 375 107 342 107 q 437 120 408 107 q 489 154 467 132 q 523 205 511 176 q 536 268 536 235 l 536 964 l 643 964 l 643 268 q 622 163 643 212 q 565 78 601 115 q 479 21 528 42 q 375 0 431 0 q 271 21 319 0 q 185 78 222 42 q 128 163 149 115 q 107 268 107 212 l 107 536 l 107 964 m 374 1072 q 303 1090 334 1072 q 253 1138 273 1108 q 223 1207 233 1168 q 213 1286 213 1246 l 320 1286 q 321 1246 320 1265 q 327 1212 321 1227 q 342 1188 332 1197 q 374 1179 353 1179 q 405 1188 394 1179 q 421 1212 416 1197 q 427 1246 426 1227 q 427 1286 427 1265 l 534 1286 q 524 1207 534 1246 q 494 1138 514 1168 q 444 1090 474 1108 q 374 1072 414 1072 z "},"Û":{"ha":746,"x_min":107,"x_max":643,"o":"m 107 964 l 214 964 l 214 268 q 227 205 214 235 q 261 154 239 176 q 313 120 283 132 q 375 107 342 107 q 437 120 408 107 q 489 154 467 132 q 523 205 511 176 q 536 268 536 235 l 536 964 l 643 964 l 643 268 q 622 163 643 212 q 565 78 601 115 q 479 21 528 42 q 375 0 431 0 q 271 21 319 0 q 185 78 222 42 q 128 163 149 115 q 107 268 107 212 l 107 536 l 107 964 m 374 1286 l 534 1125 l 481 1072 l 374 1179 l 267 1072 l 213 1125 l 374 1286 z "},"Ü":{"ha":746,"x_min":107,"x_max":643,"o":"m 107 964 l 214 964 l 214 268 q 227 205 214 235 q 261 154 239 176 q 313 120 283 132 q 375 107 342 107 q 437 120 408 107 q 489 154 467 132 q 523 205 511 176 q 536 268 536 235 l 536 964 l 643 964 l 643 268 q 622 163 643 212 q 565 78 601 115 q 479 21 528 42 q 375 0 431 0 q 271 21 319 0 q 185 78 222 42 q 128 163 149 115 q 107 268 107 212 l 107 536 l 107 964 m 213 1125 q 229 1163 213 1147 q 267 1179 244 1179 q 304 1163 289 1179 q 320 1125 320 1147 q 304 1087 320 1103 q 267 1072 289 1072 q 229 1087 244 1072 q 213 1125 213 1103 m 427 1125 q 443 1163 427 1147 q 481 1179 458 1179 q 519 1163 503 1179 q 534 1125 534 1147 q 519 1087 534 1103 q 481 1072 503 1072 q 443 1087 458 1072 q 427 1125 427 1103 z "},"Ù":{"ha":746,"x_min":107,"x_max":643,"o":"m 107 964 l 214 964 l 214 268 q 227 205 214 235 q 261 154 239 176 q 313 120 283 132 q 375 107 342 107 q 437 120 408 107 q 489 154 467 132 q 523 205 511 176 q 536 268 536 235 l 536 964 l 643 964 l 643 268 q 622 163 643 212 q 565 78 601 115 q 479 21 528 42 q 375 0 431 0 q 271 21 319 0 q 185 78 222 42 q 128 163 149 115 q 107 268 107 212 l 107 536 l 107 964 m 214 1179 l 214 1286 l 536 1125 l 536 1018 l 214 1179 z "},"Ű":{"ha":746,"x_min":107,"x_max":643,"o":"m 107 964 l 214 964 l 214 268 q 227 205 214 235 q 261 154 239 176 q 313 120 283 132 q 375 107 342 107 q 437 120 408 107 q 489 154 467 132 q 523 205 511 176 q 536 268 536 235 l 536 964 l 643 964 l 643 268 q 622 163 643 212 q 565 78 601 115 q 479 21 528 42 q 375 0 431 0 q 271 21 319 0 q 185 78 222 42 q 128 163 149 115 q 107 268 107 212 l 107 536 l 107 964 m 153 1072 l 108 1125 l 331 1286 l 376 1232 l 153 1072 m 420 1072 l 375 1125 l 598 1286 l 643 1232 l 420 1072 z "},"Ū":{"ha":746,"x_min":107,"x_max":643,"o":"m 107 964 l 214 964 l 214 268 q 227 205 214 235 q 261 154 239 176 q 313 120 283 132 q 375 107 342 107 q 437 120 408 107 q 489 154 467 132 q 523 205 511 176 q 536 268 536 235 l 536 964 l 643 964 l 643 268 q 622 163 643 212 q 565 78 601 115 q 479 21 528 42 q 375 0 431 0 q 271 21 319 0 q 185 78 222 42 q 128 163 149 115 q 107 268 107 212 l 107 536 l 107 964 m 107 1071 l 107 1183 l 643 1183 l 643 1071 l 107 1071 z "},"Ų":{"ha":746,"x_min":107,"x_max":643,"o":"m 107 964 l 214 964 l 214 268 q 227 205 214 235 q 261 154 239 176 q 313 120 283 132 q 375 107 342 107 q 437 120 408 107 q 489 154 467 132 q 523 205 511 176 q 536 268 536 235 l 536 964 l 643 964 l 643 268 q 622 163 643 212 q 565 78 601 115 q 479 21 528 42 q 375 0 431 0 q 271 21 319 0 q 185 78 222 42 q 128 163 149 115 q 107 268 107 212 l 107 536 l 107 964 m 321 0 q 341 -109 321 -60 q 402 -188 361 -157 q 503 -226 442 -218 q 643 -214 563 -235 l 643 -107 q 542 -128 583 -127 q 475 -114 501 -129 q 439 -70 450 -99 q 429 0 429 -40 l 321 0 z "},"Υ":{"ha":746,"x_min":112,"x_max":637,"o":"m 323 320 l 112 964 l 218 964 l 375 482 l 533 964 l 638 964 l 428 321 l 428 0 l 323 0 l 323 320 z "},"Ϋ":{"ha":746,"x_min":107,"x_max":643,"o":"m 321 320 l 107 964 l 214 964 l 375 482 l 536 964 l 643 964 l 429 321 l 429 0 l 321 0 l 321 320 m 214 1125 q 230 1163 214 1147 q 268 1179 245 1179 q 306 1163 290 1179 q 321 1125 321 1147 q 306 1087 321 1103 q 268 1072 290 1072 q 230 1087 245 1072 q 214 1125 214 1103 m 429 1125 q 444 1163 429 1147 q 482 1179 460 1179 q 520 1163 505 1179 q 536 1125 536 1147 q 520 1087 536 1103 q 482 1072 505 1072 q 444 1087 460 1072 q 429 1125 429 1103 z "},"Ů":{"ha":746,"x_min":107,"x_max":643,"o":"m 107 964 l 214 964 l 214 268 q 227 205 214 235 q 261 154 239 176 q 313 120 283 132 q 375 107 342 107 q 437 120 408 107 q 489 154 467 132 q 523 205 511 176 q 536 268 536 235 l 536 964 l 643 964 l 643 268 q 622 163 643 212 q 565 78 601 115 q 479 21 528 42 q 375 0 431 0 q 271 21 319 0 q 185 78 222 42 q 128 163 149 115 q 107 268 107 212 l 107 536 l 107 964 m 213 1232 q 225 1295 213 1265 q 260 1346 238 1324 q 311 1380 282 1368 q 374 1393 340 1393 q 436 1380 407 1393 q 487 1346 465 1368 q 522 1295 509 1324 q 534 1232 534 1265 q 522 1170 534 1199 q 487 1119 509 1141 q 436 1084 465 1097 q 374 1072 407 1072 q 311 1084 340 1072 q 260 1119 282 1097 q 225 1170 238 1141 q 213 1232 213 1199 m 320 1232 q 336 1194 320 1210 q 374 1179 351 1179 q 412 1194 396 1179 q 427 1232 427 1210 q 412 1270 427 1255 q 374 1286 396 1286 q 336 1270 351 1286 q 320 1232 320 1255 z "},"Ũ":{"ha":746,"x_min":106,"x_max":643,"o":"m 107 964 l 214 964 l 214 268 q 227 205 214 235 q 261 154 239 176 q 313 120 283 132 q 375 107 342 107 q 437 120 408 107 q 489 154 467 132 q 523 205 511 176 q 536 268 536 235 l 536 964 l 643 964 l 643 268 q 622 163 643 212 q 565 78 601 115 q 479 21 528 42 q 375 0 431 0 q 271 21 319 0 q 185 78 222 42 q 128 163 149 115 q 107 268 107 212 l 107 536 l 107 964 m 642 1232 q 481 1072 561 1072 q 417 1079 441 1072 q 378 1099 393 1087 q 354 1125 363 1112 q 334 1151 345 1139 q 308 1171 323 1163 q 267 1179 293 1179 q 227 1170 246 1179 q 193 1145 208 1160 q 169 1111 178 1130 q 159 1072 159 1092 l 106 1125 q 267 1286 186 1286 q 331 1278 307 1286 q 370 1258 355 1270 q 394 1232 385 1246 q 413 1206 403 1219 q 439 1186 424 1194 q 481 1179 454 1179 q 520 1188 501 1179 q 554 1212 539 1197 q 579 1246 570 1227 q 588 1286 588 1265 l 642 1232 z "},"V":{"ha":746,"x_min":107,"x_max":643,"o":"m 214 964 l 375 259 l 536 964 l 643 964 l 429 0 l 321 0 l 107 964 l 214 964 z "},"W":{"ha":746,"x_min":107,"x_max":643,"o":"m 536 964 l 643 964 l 643 0 l 536 0 l 375 321 l 214 0 l 107 0 l 107 964 l 214 964 l 214 214 l 375 495 l 536 214 l 536 964 z "},"Ẃ":{"ha":746,"x_min":107,"x_max":643,"o":"m 536 964 l 643 964 l 643 0 l 536 0 l 375 321 l 214 0 l 107 0 l 107 964 l 214 964 l 214 214 l 375 495 l 536 214 l 536 964 m 268 1072 l 214 1125 l 482 1286 l 536 1232 l 268 1072 z "},"Ŵ":{"ha":746,"x_min":107,"x_max":643,"o":"m 536 964 l 643 964 l 643 0 l 536 0 l 375 321 l 214 0 l 107 0 l 107 964 l 214 964 l 214 214 l 375 495 l 536 214 l 536 964 m 374 1286 l 534 1125 l 481 1072 l 374 1179 l 267 1072 l 213 1125 l 374 1286 z "},"Ẅ":{"ha":746,"x_min":107,"x_max":643,"o":"m 536 964 l 643 964 l 643 0 l 536 0 l 375 321 l 214 0 l 107 0 l 107 964 l 214 964 l 214 214 l 375 495 l 536 214 l 536 964 m 213 1125 q 229 1163 213 1147 q 267 1179 244 1179 q 304 1163 289 1179 q 320 1125 320 1147 q 304 1087 320 1103 q 267 1072 289 1072 q 229 1087 244 1072 q 213 1125 213 1103 m 427 1125 q 443 1163 427 1147 q 481 1179 458 1179 q 519 1163 503 1179 q 534 1125 534 1147 q 519 1087 534 1103 q 481 1072 503 1072 q 443 1087 458 1072 q 427 1125 427 1103 z "},"Ẁ":{"ha":746,"x_min":107,"x_max":643,"o":"m 536 964 l 643 964 l 643 0 l 536 0 l 375 321 l 214 0 l 107 0 l 107 964 l 214 964 l 214 214 l 375 495 l 536 214 l 536 964 m 214 1179 l 214 1286 l 536 1125 l 536 1018 l 214 1179 z "},"X":{"ha":746,"x_min":106,"x_max":644,"o":"m 375 613 l 531 964 l 644 964 l 433 482 l 644 0 l 531 0 l 375 351 l 219 0 l 107 0 l 317 482 l 106 964 l 219 964 l 375 613 z "},"Ξ":{"ha":746,"x_min":107,"x_max":643,"o":"m 107 964 l 643 964 l 643 857 l 107 857 l 107 964 m 107 107 l 643 107 l 643 0 l 107 0 l 107 107 m 214 536 l 536 536 l 536 429 l 214 429 l 214 536 z "},"Y":{"ha":746,"x_min":107,"x_max":643,"o":"m 321 320 l 107 964 l 214 964 l 375 482 l 536 964 l 643 964 l 429 321 l 429 0 l 321 0 l 321 320 z "},"Ý":{"ha":746,"x_min":107,"x_max":643,"o":"m 321 320 l 107 964 l 214 964 l 375 482 l 536 964 l 643 964 l 429 321 l 429 0 l 321 0 l 321 320 m 268 1072 l 214 1125 l 482 1286 l 536 1232 l 268 1072 z "},"Ŷ":{"ha":746,"x_min":107,"x_max":643,"o":"m 321 320 l 107 964 l 214 964 l 375 482 l 536 964 l 643 964 l 429 321 l 429 0 l 321 0 l 321 320 m 374 1286 l 534 1125 l 481 1072 l 374 1179 l 267 1072 l 213 1125 l 374 1286 z "},"Ÿ":{"ha":746,"x_min":107,"x_max":643,"o":"m 321 320 l 107 964 l 214 964 l 375 482 l 536 964 l 643 964 l 429 321 l 429 0 l 321 0 l 321 320 m 213 1125 q 229 1163 213 1147 q 267 1179 244 1179 q 304 1163 289 1179 q 320 1125 320 1147 q 304 1087 320 1103 q 267 1072 289 1072 q 229 1087 244 1072 q 213 1125 213 1103 m 427 1125 q 443 1163 427 1147 q 481 1179 458 1179 q 519 1163 503 1179 q 534 1125 534 1147 q 519 1087 534 1103 q 481 1072 503 1072 q 443 1087 458 1072 q 427 1125 427 1103 z "},"Ỳ":{"ha":746,"x_min":107,"x_max":643,"o":"m 321 320 l 107 964 l 214 964 l 375 482 l 536 964 l 643 964 l 429 321 l 429 0 l 321 0 l 321 320 m 214 1179 l 214 1286 l 535 1125 l 535 1018 l 214 1179 z "},"Z":{"ha":746,"x_min":107,"x_max":643,"o":"m 107 107 l 520 857 l 107 857 l 107 964 l 643 964 l 643 857 l 238 107 l 643 107 l 643 0 l 107 0 l 107 107 z "},"Ź":{"ha":746,"x_min":107,"x_max":643,"o":"m 107 107 l 520 857 l 107 857 l 107 964 l 643 964 l 643 857 l 238 107 l 643 107 l 643 0 l 107 0 l 107 107 m 268 1072 l 214 1125 l 482 1286 l 536 1232 l 268 1072 z "},"Ż":{"ha":746,"x_min":107,"x_max":643,"o":"m 107 107 l 520 857 l 107 857 l 107 964 l 643 964 l 643 857 l 238 107 l 643 107 l 643 0 l 107 0 l 107 107 m 319 1125 q 335 1163 319 1147 q 373 1179 351 1179 q 411 1163 395 1179 q 427 1125 427 1147 q 411 1087 427 1103 q 373 1072 395 1072 q 335 1087 351 1072 q 319 1125 319 1103 z "},"Ζ":{"ha":746,"x_min":107,"x_max":643,"o":"m 107 107 l 520 857 l 107 857 l 107 964 l 643 964 l 643 857 l 238 107 l 643 107 l 643 0 l 107 0 l 107 107 z "},"a":{"ha":746,"x_min":107,"x_max":643,"o":"m 321 0 q 238 17 277 0 q 170 63 199 34 q 124 131 141 92 q 107 214 107 170 q 124 297 107 258 q 170 366 141 336 q 238 412 199 395 q 321 429 277 429 l 536 429 l 536 482 q 523 545 536 515 q 489 596 511 574 q 437 630 467 618 q 375 643 408 643 l 214 643 l 214 750 l 375 750 q 479 729 431 750 q 565 672 528 708 q 622 587 601 635 q 643 482 643 538 l 643 0 l 321 0 m 321 321 q 280 313 299 321 q 246 290 260 304 q 223 256 231 275 q 214 214 214 237 q 223 173 214 192 q 246 139 231 153 q 280 116 260 124 q 321 107 299 107 l 536 107 l 536 321 l 321 321 z "},"á":{"ha":746,"x_min":107,"x_max":643,"o":"m 321 0 q 238 17 277 0 q 170 63 199 34 q 124 131 141 92 q 107 214 107 170 q 124 297 107 258 q 170 366 141 336 q 238 412 199 395 q 321 429 277 429 l 536 429 l 536 482 q 523 545 536 515 q 489 596 511 574 q 437 630 467 618 q 375 643 408 643 l 214 643 l 214 750 l 375 750 q 479 729 431 750 q 565 672 528 708 q 622 587 601 635 q 643 482 643 538 l 643 0 l 321 0 m 321 321 q 280 313 299 321 q 246 290 260 304 q 223 256 231 275 q 214 214 214 237 q 223 173 214 192 q 246 139 231 153 q 280 116 260 124 q 321 107 299 107 l 536 107 l 536 321 l 321 321 m 268 857 l 214 911 l 482 1072 l 536 1018 l 268 857 z "},"ă":{"ha":746,"x_min":107,"x_max":643,"o":"m 321 0 q 238 17 277 0 q 170 63 199 34 q 124 131 141 92 q 107 214 107 170 q 124 297 107 258 q 170 366 141 336 q 238 412 199 395 q 321 429 277 429 l 536 429 l 536 482 q 523 545 536 515 q 489 596 511 574 q 437 630 467 618 q 375 643 408 643 l 214 643 l 214 750 l 375 750 q 479 729 431 750 q 565 672 528 708 q 622 587 601 635 q 643 482 643 538 l 643 0 l 321 0 m 321 321 q 280 313 299 321 q 246 290 260 304 q 223 256 231 275 q 214 214 214 237 q 223 173 214 192 q 246 139 231 153 q 280 116 260 124 q 321 107 299 107 l 536 107 l 536 321 l 321 321 m 374 857 q 303 876 334 857 q 253 924 273 894 q 223 993 233 954 q 213 1072 213 1031 l 320 1072 q 321 1032 320 1051 q 327 998 321 1013 q 342 974 332 983 q 374 964 353 964 q 405 974 394 964 q 421 998 416 983 q 427 1032 426 1013 q 427 1072 427 1051 l 534 1072 q 524 993 534 1031 q 494 924 514 954 q 444 876 474 894 q 374 857 414 857 z "},"â":{"ha":746,"x_min":107,"x_max":643,"o":"m 321 0 q 238 17 277 0 q 170 63 199 34 q 124 131 141 92 q 107 214 107 170 q 124 297 107 258 q 170 366 141 336 q 238 412 199 395 q 321 429 277 429 l 536 429 l 536 482 q 523 545 536 515 q 489 596 511 574 q 437 630 467 618 q 375 643 408 643 l 214 643 l 214 750 l 375 750 q 479 729 431 750 q 565 672 528 708 q 622 587 601 635 q 643 482 643 538 l 643 0 l 321 0 m 321 321 q 280 313 299 321 q 246 290 260 304 q 223 256 231 275 q 214 214 214 237 q 223 173 214 192 q 246 139 231 153 q 280 116 260 124 q 321 107 299 107 l 536 107 l 536 321 l 321 321 m 374 1072 l 534 911 l 481 857 l 374 964 l 267 857 l 213 911 l 374 1072 z "},"´":{"ha":746,"x_min":214,"x_max":536,"o":"m 268 857 l 214 911 l 482 1072 l 536 1018 l 268 857 z "},"ä":{"ha":746,"x_min":107,"x_max":643,"o":"m 321 0 q 238 17 277 0 q 170 63 199 34 q 124 131 141 92 q 107 214 107 170 q 124 297 107 258 q 170 366 141 336 q 238 412 199 395 q 321 429 277 429 l 536 429 l 536 482 q 523 545 536 515 q 489 596 511 574 q 437 630 467 618 q 375 643 408 643 l 214 643 l 214 750 l 375 750 q 479 729 431 750 q 565 672 528 708 q 622 587 601 635 q 643 482 643 538 l 643 0 l 321 0 m 321 321 q 280 313 299 321 q 246 290 260 304 q 223 256 231 275 q 214 214 214 237 q 223 173 214 192 q 246 139 231 153 q 280 116 260 124 q 321 107 299 107 l 536 107 l 536 321 l 321 321 m 213 911 q 229 949 213 933 q 267 964 244 964 q 304 949 289 964 q 320 911 320 933 q 304 873 320 888 q 267 857 289 857 q 229 873 244 857 q 213 911 213 888 m 427 911 q 443 949 427 933 q 481 964 458 964 q 519 949 503 964 q 534 911 534 933 q 519 873 534 888 q 481 857 503 857 q 443 873 458 857 q 427 911 427 888 z "},"æ":{"ha":746,"x_min":107,"x_max":643,"o":"m 268 0 q 198 18 228 0 q 148 67 168 37 q 117 136 127 97 q 107 214 107 174 q 117 293 107 254 q 148 362 127 332 q 198 410 168 392 q 268 429 228 429 l 321 429 q 312 552 321 509 q 288 616 303 596 q 254 640 273 636 q 214 643 235 643 l 214 750 q 241 749 225 750 q 276 746 258 749 q 315 735 295 743 q 354 715 336 728 q 389 741 370 731 q 429 750 408 750 l 482 750 q 552 732 522 750 q 603 683 583 713 q 633 614 623 653 q 643 536 643 576 q 633 457 643 496 q 603 388 623 418 q 552 340 583 358 q 482 321 522 321 l 429 321 q 431 231 429 268 q 436 171 433 195 q 445 134 440 147 q 456 115 450 121 q 469 108 463 109 q 482 107 475 107 q 504 116 494 107 q 521 141 514 125 q 532 175 528 156 q 536 214 536 194 l 643 214 q 633 113 643 154 q 603 47 623 72 q 552 11 583 22 q 482 0 522 0 l 268 0 m 268 321 q 247 312 256 321 q 230 288 237 303 q 218 254 222 273 q 214 214 214 235 q 218 175 214 194 q 230 141 222 156 q 247 116 237 125 q 268 107 256 107 l 321 107 l 321 321 l 268 321 m 482 429 q 504 438 494 429 q 520 462 513 447 q 532 496 528 477 q 536 536 536 515 q 532 575 536 556 q 520 609 528 594 q 504 634 513 625 q 482 643 494 643 l 429 643 l 429 429 l 482 429 z "},"ǽ":{"ha":746,"x_min":107,"x_max":643,"o":"m 268 0 q 198 18 228 0 q 148 67 168 37 q 117 136 127 97 q 107 214 107 174 q 117 293 107 254 q 148 362 127 332 q 198 410 168 392 q 268 429 228 429 l 321 429 q 312 552 321 509 q 288 616 303 596 q 254 640 273 636 q 214 643 235 643 l 214 750 q 241 749 225 750 q 276 746 258 749 q 315 735 295 743 q 354 715 336 728 q 389 741 370 731 q 429 750 408 750 l 482 750 q 552 732 522 750 q 603 683 583 713 q 633 614 623 653 q 643 536 643 576 q 633 457 643 496 q 603 388 623 418 q 552 340 583 358 q 482 321 522 321 l 429 321 q 431 231 429 268 q 436 171 433 195 q 445 134 440 147 q 456 115 450 121 q 469 108 463 109 q 482 107 475 107 q 504 116 494 107 q 521 141 514 125 q 532 175 528 156 q 536 214 536 194 l 643 214 q 633 113 643 154 q 603 47 623 72 q 552 11 583 22 q 482 0 522 0 l 268 0 m 268 321 q 247 312 256 321 q 230 288 237 303 q 218 254 222 273 q 214 214 214 235 q 218 175 214 194 q 230 141 222 156 q 247 116 237 125 q 268 107 256 107 l 321 107 l 321 321 l 268 321 m 482 429 q 504 438 494 429 q 520 462 513 447 q 532 496 528 477 q 536 536 536 515 q 532 575 536 556 q 520 609 528 594 q 504 634 513 625 q 482 643 494 643 l 429 643 l 429 429 l 482 429 m 268 857 l 214 910 l 482 1070 l 536 1017 l 268 857 z "},"―":{"ha":746,"x_min":0,"x_max":750,"o":"m 0 322 l 0 428 l 750 428 l 750 322 l 536 322 l 0 322 z "},"℅":{"ha":746,"x_min":0,"x_max":750,"o":"m 429 268 q 441 372 429 323 q 476 457 454 421 q 527 515 498 494 q 589 536 556 536 q 652 515 623 536 q 703 457 681 494 q 738 372 725 421 q 750 268 750 323 q 738 163 750 212 q 703 78 725 115 q 652 21 681 42 q 589 0 623 0 q 527 21 556 0 q 476 78 498 42 q 441 163 454 115 q 429 268 429 212 m 536 1072 l 643 1072 l 214 0 l 107 0 l 536 1072 m 107 804 q 111 741 107 770 q 123 690 115 712 q 140 655 130 668 q 161 643 149 643 q 177 651 170 643 q 192 673 185 659 q 203 707 198 687 q 211 750 208 726 l 318 750 q 298 665 313 704 q 263 597 283 626 q 216 552 242 568 q 161 536 190 536 q 98 557 127 536 q 47 614 69 578 q 13 699 25 650 q 0 804 0 748 q 13 908 0 859 q 47 993 25 957 q 98 1050 69 1029 q 161 1072 127 1072 q 216 1055 190 1072 q 263 1010 242 1039 q 298 942 283 981 q 318 857 313 903 l 211 857 q 203 900 208 880 q 192 934 198 920 q 177 956 185 948 q 161 964 170 964 q 140 952 149 964 q 123 917 130 939 q 111 866 115 895 q 107 804 107 837 m 536 268 q 540 205 536 235 q 551 154 544 176 q 568 120 559 132 q 589 107 578 107 q 610 120 600 107 q 627 154 620 132 q 639 205 635 176 q 643 268 643 235 q 639 330 643 301 q 627 381 635 359 q 610 416 620 404 q 589 429 600 429 q 568 416 578 429 q 551 381 559 404 q 540 330 544 359 q 536 268 536 301 z "},"à":{"ha":746,"x_min":107,"x_max":643,"o":"m 321 0 q 238 17 277 0 q 170 63 199 34 q 124 131 141 92 q 107 214 107 170 q 124 297 107 258 q 170 366 141 336 q 238 412 199 395 q 321 429 277 429 l 536 429 l 536 482 q 523 545 536 515 q 489 596 511 574 q 437 630 467 618 q 375 643 408 643 l 214 643 l 214 750 l 375 750 q 479 729 431 750 q 565 672 528 708 q 622 587 601 635 q 643 482 643 538 l 643 0 l 321 0 m 321 321 q 280 313 299 321 q 246 290 260 304 q 223 256 231 275 q 214 214 214 237 q 223 173 214 192 q 246 139 231 153 q 280 116 260 124 q 321 107 299 107 l 536 107 l 536 321 l 321 321 m 214 964 l 214 1072 l 536 911 l 536 804 l 214 964 z "},"α":{"ha":746,"x_min":0,"x_max":643,"o":"m 482 161 q 386 40 441 80 q 268 0 330 0 q 163 21 212 0 q 78 78 115 42 q 21 163 42 115 q 0 268 0 212 l 0 482 q 21 587 0 538 q 78 672 42 635 q 163 729 115 708 q 268 750 212 750 q 387 710 332 750 q 482 589 441 670 l 536 750 l 643 750 q 643 0 471 375 l 536 0 l 482 161 m 107 268 q 120 205 107 235 q 154 154 132 176 q 205 120 176 132 q 268 107 235 107 q 346 130 313 107 q 402 191 380 153 q 435 277 424 229 q 446 375 446 325 q 435 473 446 425 q 402 559 424 522 q 346 620 380 597 q 268 643 313 643 q 205 630 235 643 q 154 596 176 618 q 120 545 132 574 q 107 482 107 515 l 107 268 z "},"ά":{"ha":746,"x_min":0,"x_max":643,"o":"m 482 161 q 386 40 441 80 q 268 0 330 0 q 163 21 212 0 q 78 78 115 42 q 21 163 42 115 q 0 268 0 212 l 0 482 q 21 587 0 538 q 78 672 42 635 q 163 729 115 708 q 268 750 212 750 q 387 710 332 750 q 482 589 441 670 l 536 750 l 643 750 q 643 0 471 375 l 536 0 l 482 161 m 107 268 q 120 205 107 235 q 154 154 132 176 q 205 120 176 132 q 268 107 235 107 q 346 130 313 107 q 402 191 380 153 q 435 277 424 229 q 446 375 446 325 q 435 473 446 425 q 402 559 424 522 q 346 620 380 597 q 268 643 313 643 q 205 630 235 643 q 154 596 176 618 q 120 545 132 574 q 107 482 107 515 l 107 268 m 267 857 l 213 911 l 481 1072 l 534 1018 l 267 857 z "},"ā":{"ha":746,"x_min":107,"x_max":643,"o":"m 321 0 q 238 17 277 0 q 170 63 199 34 q 124 131 141 92 q 107 214 107 170 q 124 297 107 258 q 170 366 141 336 q 238 412 199 395 q 321 429 277 429 l 536 429 l 536 482 q 523 545 536 515 q 489 596 511 574 q 437 630 467 618 q 375 643 408 643 l 214 643 l 214 750 l 375 750 q 479 729 431 750 q 565 672 528 708 q 622 587 601 635 q 643 482 643 538 l 643 0 l 321 0 m 321 321 q 280 313 299 321 q 246 290 260 304 q 223 256 231 275 q 214 214 214 237 q 223 173 214 192 q 246 139 231 153 q 280 116 260 124 q 321 107 299 107 l 536 107 l 536 321 l 321 321 m 107 858 l 107 965 l 643 965 l 643 858 l 107 858 z "},"ą":{"ha":746,"x_min":107,"x_max":643,"o":"m 321 0 q 238 17 277 0 q 170 63 199 34 q 124 131 141 92 q 107 214 107 170 q 124 297 107 258 q 170 366 141 336 q 238 412 199 395 q 321 429 277 429 l 536 429 l 536 482 q 523 545 536 515 q 489 596 511 574 q 437 630 467 618 q 375 643 408 643 l 214 643 l 214 750 l 375 750 q 479 729 431 750 q 565 672 528 708 q 622 587 601 635 q 643 482 643 538 l 643 0 l 321 0 m 321 321 q 280 313 299 321 q 246 290 260 304 q 223 256 231 275 q 214 214 214 237 q 223 173 214 192 q 246 139 231 153 q 280 116 260 124 q 321 107 299 107 l 536 107 l 536 321 l 321 321 m 429 0 q 439 -70 429 -40 q 475 -114 450 -99 q 542 -128 500 -129 q 643 -107 583 -127 l 643 -214 q 503 -226 563 -235 q 402 -188 442 -218 q 341 -109 361 -157 q 321 0 321 -60 l 429 0 z "},"≈":{"ha":746,"x_min":0,"x_max":643,"o":"m 0 643 q 80 691 43 677 q 151 705 117 705 q 211 695 182 705 q 267 673 239 686 q 321 643 294 659 q 376 613 349 627 q 432 590 404 600 q 492 581 460 581 q 563 595 526 581 q 643 643 600 608 l 643 536 q 563 488 600 501 q 492 474 526 474 q 432 483 460 474 q 376 506 404 492 q 321 536 349 519 q 267 566 294 552 q 211 588 239 579 q 151 597 182 597 q 80 584 117 597 q 0 536 43 570 l 0 643 m 0 429 q 80 477 43 463 q 151 490 117 490 q 211 481 182 490 q 267 458 239 472 q 321 429 294 445 q 376 399 349 412 q 432 376 404 385 q 492 367 460 367 q 563 380 526 367 q 643 429 600 394 l 643 321 q 563 273 600 287 q 492 260 526 260 q 432 269 460 260 q 376 292 404 278 q 321 321 349 305 q 267 351 294 338 q 211 374 239 365 q 151 383 182 383 q 80 370 117 383 q 0 321 43 356 l 0 429 z "},"å":{"ha":746,"x_min":107,"x_max":643,"o":"m 321 0 q 238 17 277 0 q 170 63 199 34 q 124 131 141 92 q 107 214 107 170 q 124 297 107 258 q 170 366 141 336 q 238 412 199 395 q 321 429 277 429 l 536 429 l 536 482 q 523 545 536 515 q 489 596 511 574 q 437 630 467 618 q 375 643 408 643 l 214 643 l 214 750 l 375 750 q 479 729 431 750 q 565 672 528 708 q 622 587 601 635 q 643 482 643 538 l 643 0 l 321 0 m 321 321 q 280 313 299 321 q 246 290 260 304 q 223 256 231 275 q 214 214 214 237 q 223 173 214 192 q 246 139 231 153 q 280 116 260 124 q 321 107 299 107 l 536 107 l 536 321 l 321 321 m 213 1018 q 225 1080 213 1051 q 260 1132 238 1109 q 311 1166 282 1154 q 374 1179 340 1179 q 436 1166 407 1179 q 487 1132 465 1154 q 522 1080 509 1109 q 534 1018 534 1051 q 522 956 534 985 q 487 904 509 926 q 436 870 465 882 q 374 857 407 857 q 311 870 340 857 q 260 904 282 882 q 225 956 238 926 q 213 1018 213 985 m 320 1018 q 336 980 320 996 q 374 964 351 964 q 412 980 396 964 q 427 1018 427 996 q 412 1056 427 1040 q 374 1072 396 1072 q 336 1056 351 1072 q 320 1018 320 1040 z "},"↔":{"ha":746,"x_min":0,"x_max":750,"o":"m 268 750 l 321 750 l 321 536 l 429 536 l 429 750 l 482 750 l 750 482 l 482 214 l 429 214 l 429 429 l 321 429 l 321 214 l 268 214 l 0 482 l 268 750 z "},"↓":{"ha":746,"x_min":107,"x_max":643,"o":"m 375 0 l 643 268 l 643 321 l 429 321 l 429 750 l 321 750 l 321 321 l 107 321 l 107 268 l 375 0 z "},"←":{"ha":746,"x_min":0,"x_max":750,"o":"m 0 482 l 268 750 l 321 750 l 321 536 l 750 536 l 750 429 l 321 429 l 321 214 l 268 214 l 0 482 z "},"→":{"ha":746,"x_min":0,"x_max":750,"o":"m 750 482 l 482 750 l 429 750 l 429 536 l 0 536 l 0 429 l 429 429 l 429 214 l 482 214 l 750 482 z "},"↑":{"ha":746,"x_min":107,"x_max":643,"o":"m 375 964 l 643 696 l 643 643 l 429 643 l 429 214 l 321 214 l 321 643 l 107 643 l 107 696 l 375 964 z "},"↕":{"ha":746,"x_min":107,"x_max":643,"o":"m 643 696 l 643 643 l 429 643 l 429 321 l 643 321 l 643 268 l 375 0 l 107 268 l 107 321 l 321 321 l 321 643 l 107 643 l 107 696 l 375 964 l 643 696 z "},"↨":{"ha":746,"x_min":107,"x_max":643,"o":"m 107 0 l 643 0 l 643 -107 l 107 -107 l 107 0 m 643 696 l 643 643 l 429 643 l 429 321 l 643 321 l 643 268 l 375 0 l 107 268 l 107 321 l 321 321 l 321 643 l 107 643 l 107 696 l 375 964 l 643 696 z "},"^":{"ha":746,"x_min":102,"x_max":648,"o":"m 311 964 l 439 964 l 648 536 l 525 536 l 375 836 l 225 536 l 102 536 l 311 964 z "},"~":{"ha":746,"x_min":107,"x_max":643,"o":"m 643 643 q 642 582 643 616 q 637 512 642 548 q 623 442 633 476 q 595 381 613 408 q 550 338 577 354 q 482 321 522 321 q 433 335 455 321 q 391 371 410 349 q 355 419 372 393 q 323 469 338 445 q 295 511 309 492 q 268 536 281 529 q 247 532 256 542 q 233 503 239 522 q 223 458 227 484 q 218 406 220 432 q 215 358 216 380 q 214 321 214 335 l 107 321 q 108 382 107 348 q 113 452 109 416 q 127 523 117 488 q 155 584 137 557 q 200 627 173 610 q 268 643 228 643 q 317 629 294 643 q 359 592 340 614 q 395 544 378 570 q 427 494 412 517 q 455 452 441 470 q 482 429 469 434 q 503 434 494 423 q 518 464 512 444 q 528 508 524 483 q 533 559 531 534 q 535 607 534 585 q 536 643 536 629 l 643 643 z "},"*":{"ha":746,"x_min":107,"x_max":643,"o":"m 161 804 l 321 750 l 321 964 l 429 964 l 429 750 l 589 804 l 643 696 l 482 643 l 589 482 l 482 429 l 375 589 l 268 429 l 161 482 l 268 643 l 107 696 l 161 804 z "},"@":{"ha":746,"x_min":0,"x_max":643,"o":"m 321 -214 q 203 -187 261 -214 q 100 -114 146 -159 q 27 -11 55 -68 q 0 107 0 47 l 0 643 q 27 761 0 703 q 100 864 55 819 q 203 937 146 909 q 321 964 261 964 q 439 937 382 964 q 543 864 497 909 q 615 761 588 819 q 643 643 643 703 l 643 107 l 429 107 q 331 131 372 107 q 265 193 291 155 q 227 279 239 231 q 214 375 214 327 q 228 475 214 427 q 267 560 241 523 q 334 620 294 597 q 429 643 374 643 l 536 643 q 517 722 536 683 q 469 790 499 760 q 400 839 439 821 q 321 857 361 857 q 243 839 281 857 q 174 790 204 821 q 125 722 144 760 q 107 643 107 683 l 107 107 q 125 28 107 67 q 174 -40 144 -10 q 243 -89 204 -71 q 321 -107 281 -107 l 536 -107 l 536 -214 l 321 -214 m 536 214 l 536 536 l 429 536 q 389 526 408 536 q 355 495 370 515 q 331 445 340 475 q 321 375 321 415 q 331 305 321 335 q 355 255 340 275 q 389 224 370 235 q 429 214 408 214 l 536 214 z "},"ã":{"ha":746,"x_min":106,"x_max":643,"o":"m 321 0 q 238 17 277 0 q 170 63 199 34 q 124 131 141 92 q 107 214 107 170 q 124 297 107 258 q 170 366 141 336 q 238 412 199 395 q 321 429 277 429 l 536 429 l 536 482 q 523 545 536 515 q 489 596 511 574 q 437 630 467 618 q 375 643 408 643 l 214 643 l 214 750 l 375 750 q 479 729 431 750 q 565 672 528 708 q 622 587 601 635 q 643 482 643 538 l 643 0 l 321 0 m 321 321 q 280 313 299 321 q 246 290 260 304 q 223 256 231 275 q 214 214 214 237 q 223 173 214 192 q 246 139 231 153 q 280 116 260 124 q 321 107 299 107 l 536 107 l 536 321 l 321 321 m 642 1018 q 481 857 561 857 q 417 865 441 857 q 378 885 393 873 q 354 911 363 897 q 334 937 345 924 q 308 957 323 949 q 267 964 293 964 q 227 955 246 964 q 193 931 208 946 q 169 897 178 916 q 159 857 159 878 l 106 911 q 267 1072 186 1072 q 331 1064 307 1072 q 370 1044 355 1056 q 394 1018 385 1031 q 413 992 403 1004 q 439 972 424 980 q 481 964 454 964 q 520 974 501 964 q 554 998 539 983 q 579 1032 570 1013 q 588 1072 588 1051 l 642 1018 z "},"b":{"ha":746,"x_min":107,"x_max":643,"o":"m 107 964 l 214 964 l 214 696 q 271 729 240 715 q 375 750 319 750 q 479 729 431 750 q 565 672 528 708 q 622 587 601 635 q 643 482 643 538 l 643 268 q 622 163 643 212 q 565 78 601 115 q 479 21 528 42 q 375 0 431 0 q 271 21 319 0 q 214 53 240 34 l 214 0 l 107 0 l 107 964 m 214 488 l 214 268 q 227 205 214 235 q 261 154 239 176 q 313 120 283 132 q 375 107 342 107 q 437 120 408 107 q 489 154 467 132 q 523 205 511 176 q 536 268 536 235 l 536 482 q 523 545 536 515 q 489 596 511 574 q 437 630 467 618 q 375 643 408 643 q 313 630 342 643 q 261 596 283 618 q 227 545 239 574 l 214 488 z "},"\\":{"ha":746,"x_min":107,"x_max":643,"o":"m 643 -107 l 536 -107 l 107 964 l 214 964 l 643 -107 z "},"|":{"ha":746,"x_min":321,"x_max":429,"o":"m 321 1072 l 429 1072 l 429 -214 l 321 -214 l 321 1072 z "},"β":{"ha":746,"x_min":107,"x_max":643,"o":"m 107 696 q 131 816 107 766 q 192 900 154 867 q 278 948 230 932 q 375 964 326 964 q 479 943 431 964 q 565 886 528 922 q 622 801 601 850 q 643 696 643 752 q 613 574 643 630 q 535 482 584 519 q 613 390 584 446 q 643 268 643 334 q 622 163 643 212 q 565 78 601 115 q 479 21 528 42 q 375 0 431 0 q 289 14 330 0 q 214 54 248 28 l 214 -107 l 107 -107 l 107 696 m 375 107 q 437 120 408 107 q 489 154 467 132 q 523 205 511 176 q 536 268 536 235 q 523 330 536 301 q 489 381 511 359 q 437 416 467 404 q 375 429 408 429 l 321 429 l 321 536 l 375 536 q 437 548 408 536 q 489 583 467 561 q 523 634 511 605 q 536 696 536 663 q 523 759 536 730 q 489 810 511 788 q 437 845 467 832 q 375 857 408 857 q 317 847 346 857 q 266 817 288 837 q 229 767 243 797 q 214 696 214 736 l 214 261 q 227 195 214 223 q 262 146 240 166 q 313 117 284 127 q 375 107 342 107 z "},"█":{"ha":746,"x_min":0,"x_max":750,"o":"m 0 1339 l 750 1339 l 750 -429 l 0 -429 l 0 1339 z "},"{":{"ha":746,"x_min":107,"x_max":643,"o":"m 350 496 q 355 470 350 482 q 369 449 360 458 q 390 434 378 439 q 416 429 402 429 q 428 406 427 429 q 421 347 429 383 q 401 263 414 310 q 374 170 389 217 q 345 77 359 122 q 321 0 331 33 q 339 -39 321 -20 q 382 -74 357 -58 q 434 -98 407 -89 q 482 -107 462 -107 l 643 -107 l 643 -214 l 482 -214 q 372 -196 422 -214 q 288 -148 323 -178 q 234 -79 253 -117 q 214 0 214 -40 q 244 143 228 80 q 276 254 261 206 q 301 335 291 302 q 313 389 312 368 q 304 419 315 410 q 268 429 294 429 l 107 429 l 107 536 l 268 536 q 301 545 294 536 q 302 571 308 553 q 281 616 296 589 q 252 679 267 643 q 226 759 237 714 q 214 857 214 804 q 234 936 214 897 q 288 1005 253 975 q 372 1053 323 1035 q 482 1072 422 1072 l 643 1072 l 643 964 l 482 964 q 412 955 442 964 q 362 931 382 946 q 332 897 342 916 q 321 857 321 878 q 334 814 325 842 q 355 754 344 787 q 379 688 367 722 q 400 627 391 654 q 414 582 410 600 q 416 564 419 564 q 390 559 402 564 q 369 544 378 553 q 355 523 360 535 q 350 496 350 511 z "},"}":{"ha":746,"x_min":107,"x_max":643,"o":"m 400 496 q 395 523 400 511 q 381 544 390 535 q 360 559 372 553 q 334 564 348 564 q 336 582 331 564 q 350 627 340 600 q 371 688 359 654 q 395 754 383 722 q 416 814 406 787 q 429 857 425 842 q 418 897 429 878 q 388 931 408 916 q 338 955 368 946 q 268 964 308 964 l 107 964 l 107 1072 l 268 1072 q 378 1053 328 1072 q 462 1005 427 1035 q 516 936 497 975 q 536 857 536 897 q 524 759 536 804 q 498 679 513 714 q 469 616 483 643 q 448 571 454 589 q 449 545 442 553 q 482 536 455 536 l 643 536 l 643 429 l 482 429 q 445 419 455 429 q 437 389 435 410 q 449 335 438 368 q 474 254 459 302 q 506 143 489 206 q 536 0 522 80 q 516 -79 536 -40 q 462 -148 497 -117 q 378 -196 427 -178 q 268 -214 328 -214 l 107 -214 l 107 -107 l 268 -107 q 316 -98 288 -107 q 368 -74 343 -89 q 411 -39 393 -58 q 429 0 429 -20 q 405 77 418 33 q 376 170 391 122 q 349 263 361 217 q 329 347 336 310 q 322 406 321 383 q 334 429 323 429 q 360 434 348 429 q 381 449 372 439 q 395 470 390 458 q 400 496 400 482 z "},"[":{"ha":746,"x_min":214,"x_max":536,"o":"m 214 1072 l 536 1072 l 536 964 l 321 964 l 321 -107 l 536 -107 l 536 -214 l 214 -214 l 214 1072 z "},"]":{"ha":746,"x_min":214,"x_max":536,"o":"m 536 -214 l 214 -214 l 214 -107 l 429 -107 l 429 964 l 214 964 l 214 1072 l 536 1072 l 536 -214 z "},"˘":{"ha":746,"x_min":214,"x_max":536,"o":"m 375 857 q 305 876 335 857 q 255 924 275 894 q 224 993 235 954 q 214 1072 214 1031 l 321 1072 q 322 1032 321 1051 q 328 998 323 1013 q 344 974 333 983 q 375 964 355 964 q 406 974 395 964 q 422 998 417 983 q 428 1032 427 1013 q 429 1072 429 1051 l 536 1072 q 526 993 536 1031 q 495 924 515 954 q 445 876 475 894 q 375 857 415 857 z "},"¦":{"ha":746,"x_min":321,"x_max":429,"o":"m 321 321 l 429 321 l 429 -214 l 321 -214 l 321 321 m 321 1072 l 429 1072 l 429 536 l 321 536 l 321 1072 z "},"•":{"ha":746,"x_min":214,"x_max":536,"o":"m 214 482 q 227 545 214 515 q 261 596 239 574 q 313 630 283 618 q 375 643 342 643 q 437 630 408 643 q 489 596 467 618 q 523 545 511 574 q 536 482 536 515 q 523 420 536 449 q 489 369 511 391 q 437 334 467 347 q 375 321 408 321 q 313 334 342 321 q 261 369 283 347 q 227 420 239 391 q 214 482 214 449 z "},"c":{"ha":746,"x_min":107,"x_max":643,"o":"m 214 268 q 229 205 214 235 q 266 154 243 176 q 320 120 290 132 q 385 107 351 107 q 435 115 411 107 q 478 137 458 123 q 513 171 498 151 q 536 214 528 191 l 643 214 q 609 129 633 168 q 551 61 585 90 q 473 16 516 33 q 380 0 429 0 q 275 21 325 0 q 189 78 226 42 q 129 163 151 115 q 107 268 107 212 l 107 482 q 129 587 107 538 q 189 672 151 635 q 275 729 226 708 q 380 750 325 750 q 473 734 429 750 q 551 689 516 718 q 609 621 585 660 q 643 536 633 581 l 536 536 q 513 578 528 559 q 478 612 498 598 q 435 635 458 627 q 385 643 411 643 q 320 630 351 643 q 266 596 290 618 q 229 545 243 574 q 214 482 214 515 l 214 268 z "},"ć":{"ha":746,"x_min":107,"x_max":643,"o":"m 214 268 q 229 205 214 235 q 266 154 243 176 q 320 120 290 132 q 385 107 351 107 q 435 115 411 107 q 478 137 458 123 q 513 171 498 151 q 536 214 528 191 l 643 214 q 609 129 633 168 q 551 61 585 90 q 473 16 516 33 q 380 0 429 0 q 275 21 325 0 q 189 78 226 42 q 129 163 151 115 q 107 268 107 212 l 107 482 q 129 587 107 538 q 189 672 151 635 q 275 729 226 708 q 380 750 325 750 q 473 734 429 750 q 551 689 516 718 q 609 621 585 660 q 643 536 633 581 l 536 536 q 513 578 528 559 q 478 612 498 598 q 435 635 458 627 q 385 643 411 643 q 320 630 351 643 q 266 596 290 618 q 229 545 243 574 q 214 482 214 515 l 214 268 m 268 857 l 214 911 l 482 1072 l 536 1018 l 268 857 z "},"ˇ":{"ha":746,"x_min":214,"x_max":536,"o":"m 214 1018 l 268 1072 l 375 964 l 482 1072 l 536 1018 l 375 857 l 214 1018 z "},"Æ":{"ha":746,"x_min":107,"x_max":643,"o":"m 107 750 q 125 829 107 790 q 174 898 144 867 q 243 946 204 928 q 321 964 281 964 l 643 964 l 643 857 l 429 857 l 429 536 l 536 536 l 536 429 l 429 429 l 429 107 l 643 107 l 643 0 l 321 0 l 321 429 l 214 429 l 214 0 l 107 0 l 107 750 m 321 536 l 321 857 q 271 845 291 857 q 238 815 250 832 q 220 779 225 798 q 214 750 214 761 l 214 536 l 321 536 z "},"č":{"ha":746,"x_min":107,"x_max":643,"o":"m 214 268 q 229 205 214 235 q 266 154 243 176 q 320 120 290 132 q 385 107 351 107 q 435 115 411 107 q 478 137 458 123 q 513 171 498 151 q 536 214 528 191 l 643 214 q 609 129 633 168 q 551 61 585 90 q 473 16 516 33 q 380 0 429 0 q 275 21 325 0 q 189 78 226 42 q 129 163 151 115 q 107 268 107 212 l 107 482 q 129 587 107 538 q 189 672 151 635 q 275 729 226 708 q 380 750 325 750 q 473 734 429 750 q 551 689 516 718 q 609 621 585 660 q 643 536 633 581 l 536 536 q 513 578 528 559 q 478 612 498 598 q 435 635 458 627 q 385 643 411 643 q 320 630 351 643 q 266 596 290 618 q 229 545 243 574 q 214 482 214 515 l 214 268 m 213 1018 l 267 1072 l 374 964 l 481 1072 l 534 1018 l 374 857 l 213 1018 z "},"ç":{"ha":746,"x_min":107,"x_max":643,"o":"m 214 268 q 229 205 214 235 q 266 154 243 176 q 320 120 290 132 q 385 107 351 107 q 435 115 411 107 q 478 137 458 123 q 513 171 498 151 q 536 214 528 191 l 643 214 q 609 129 633 168 q 551 61 585 90 q 473 16 516 33 q 380 0 429 0 q 275 21 325 0 q 189 78 226 42 q 129 163 151 115 q 107 268 107 212 l 107 482 q 129 587 107 538 q 189 672 151 635 q 275 729 226 708 q 380 750 325 750 q 473 734 429 750 q 551 689 516 718 q 609 621 585 660 q 643 536 633 581 l 536 536 q 513 578 528 559 q 478 612 498 598 q 435 635 458 627 q 385 643 411 643 q 320 630 351 643 q 266 596 290 618 q 229 545 243 574 q 214 482 214 515 l 214 268 m 429 0 q 409 -109 429 -60 q 348 -188 389 -157 q 248 -226 308 -218 q 107 -214 187 -235 l 107 -107 q 209 -128 168 -127 q 275 -114 250 -129 q 311 -70 300 -99 q 321 0 321 -40 l 429 0 z "},"ĉ":{"ha":746,"x_min":107,"x_max":643,"o":"m 214 268 q 229 205 214 235 q 266 154 243 176 q 320 120 290 132 q 385 107 351 107 q 435 115 411 107 q 478 137 458 123 q 513 171 498 151 q 536 214 528 191 l 643 214 q 609 129 633 168 q 551 61 585 90 q 473 16 516 33 q 380 0 429 0 q 275 21 325 0 q 189 78 226 42 q 129 163 151 115 q 107 268 107 212 l 107 482 q 129 587 107 538 q 189 672 151 635 q 275 729 226 708 q 380 750 325 750 q 473 734 429 750 q 551 689 516 718 q 609 621 585 660 q 643 536 633 581 l 536 536 q 513 578 528 559 q 478 612 498 598 q 435 635 458 627 q 385 643 411 643 q 320 630 351 643 q 266 596 290 618 q 229 545 243 574 q 214 482 214 515 l 214 268 m 374 1072 l 534 911 l 481 857 l 374 964 l 267 857 l 213 911 l 374 1072 z "},"ċ":{"ha":746,"x_min":107,"x_max":643,"o":"m 214 268 q 229 205 214 235 q 266 154 243 176 q 320 120 290 132 q 385 107 351 107 q 435 115 411 107 q 478 137 458 123 q 513 171 498 151 q 536 214 528 191 l 643 214 q 609 129 633 168 q 551 61 585 90 q 473 16 516 33 q 380 0 429 0 q 275 21 325 0 q 189 78 226 42 q 129 163 151 115 q 107 268 107 212 l 107 482 q 129 587 107 538 q 189 672 151 635 q 275 729 226 708 q 380 750 325 750 q 473 734 429 750 q 551 689 516 718 q 609 621 585 660 q 643 536 633 581 l 536 536 q 513 578 528 559 q 478 612 498 598 q 435 635 458 627 q 385 643 411 643 q 320 630 351 643 q 266 596 290 618 q 229 545 243 574 q 214 482 214 515 l 214 268 m 319 911 q 335 949 319 933 q 373 964 351 964 q 411 949 395 964 q 427 911 427 933 q 411 873 427 888 q 373 857 395 857 q 335 873 351 857 q 319 911 319 888 z "},"¸":{"ha":746,"x_min":107,"x_max":429,"o":"m 429 0 q 409 -109 429 -60 q 348 -188 389 -157 q 248 -226 308 -218 q 107 -214 187 -235 l 107 -107 q 209 -128 168 -127 q 275 -114 250 -129 q 311 -70 300 -99 q 321 0 321 -40 l 429 0 z "},"¢":{"ha":746,"x_min":107,"x_max":637,"o":"m 241 35 q 187 77 212 52 q 144 132 162 102 q 117 196 127 161 q 107 268 107 231 l 107 482 q 128 587 107 538 q 185 672 149 635 q 271 729 222 708 q 375 750 319 750 q 388 750 381 750 q 400 749 394 749 l 425 857 l 540 857 l 508 714 q 591 640 557 686 q 637 536 626 593 l 526 536 q 508 571 519 555 q 483 601 497 587 l 373 107 l 375 107 q 425 115 401 107 q 469 137 449 123 q 503 171 488 151 q 526 214 518 191 l 637 214 q 604 129 628 168 q 545 61 580 90 q 467 16 511 33 q 375 0 424 0 q 362 0 368 0 q 349 1 356 1 l 326 -107 l 210 -107 l 241 35 m 214 268 q 229 201 214 231 q 267 149 243 171 l 376 643 l 375 643 q 313 630 342 643 q 261 596 283 618 q 227 545 239 574 q 214 482 214 515 l 214 268 z "},"○":{"ha":746,"x_min":214,"x_max":536,"o":"m 214 482 q 227 545 214 515 q 261 596 239 574 q 313 630 283 618 q 375 643 342 643 q 437 630 408 643 q 489 596 467 618 q 523 545 511 574 q 536 482 536 515 q 523 420 536 449 q 489 369 511 391 q 437 334 467 347 q 375 321 408 321 q 313 334 342 321 q 261 369 283 347 q 227 420 239 391 q 214 482 214 449 z "},"ˆ":{"ha":746,"x_min":214,"x_max":536,"o":"m 375 1072 l 536 911 l 482 857 l 375 964 l 268 857 l 214 911 l 375 1072 z "},"♣":{"ha":746,"x_min":54,"x_max":696,"o":"m 54 321 q 66 384 54 355 q 101 435 79 413 q 152 470 123 457 q 214 482 181 482 q 262 475 238 482 q 227 526 240 496 q 214 589 214 555 q 227 652 214 623 q 261 703 239 681 q 313 738 283 725 q 375 750 342 750 l 379 750 q 440 736 412 749 q 490 701 469 723 q 524 651 511 680 q 536 589 536 622 q 523 526 536 555 q 488 475 510 496 q 536 482 511 482 q 598 470 569 482 q 649 435 627 457 q 684 384 671 413 q 696 321 696 355 q 684 259 696 288 q 649 208 671 230 q 598 173 627 186 q 536 161 569 161 q 477 171 505 161 q 429 201 450 182 l 429 107 l 536 107 l 536 0 l 214 0 l 214 107 l 321 107 l 321 201 q 272 171 300 182 q 214 161 245 161 q 152 173 181 161 q 101 208 123 186 q 66 259 79 230 q 54 321 54 288 z "},":":{"ha":746,"x_min":214,"x_max":429,"o":"m 214 536 q 223 577 214 558 q 246 611 231 597 q 280 634 260 626 q 321 643 299 643 q 363 634 344 643 q 397 611 382 626 q 420 577 412 597 q 429 536 429 558 q 420 494 429 513 q 397 460 412 475 q 363 437 382 446 q 321 429 344 429 q 280 437 299 429 q 246 460 260 446 q 223 494 231 475 q 214 536 214 513 m 214 107 q 223 149 214 130 q 246 183 231 168 q 280 206 260 197 q 321 214 299 214 q 363 206 344 214 q 397 183 382 197 q 420 149 412 168 q 429 107 429 130 q 420 65 429 85 q 397 32 412 46 q 363 8 382 17 q 321 0 344 0 q 280 8 299 0 q 246 32 260 17 q 223 65 231 46 q 214 107 214 85 z "},",":{"ha":746,"x_min":214,"x_max":429,"o":"m 268 -214 q 230 -199 245 -214 q 214 -161 214 -183 q 230 -123 214 -138 q 268 -107 245 -107 q 299 -100 288 -107 q 315 -79 310 -93 q 321 -46 320 -66 q 321 0 321 -26 q 280 8 299 0 q 246 32 260 17 q 223 65 231 46 q 214 107 214 85 q 223 149 214 130 q 246 183 231 168 q 280 206 260 197 q 321 214 299 214 q 363 206 344 214 q 397 183 382 197 q 420 149 412 168 q 429 107 429 130 l 429 0 q 418 -79 429 -40 q 388 -148 408 -117 q 338 -196 368 -178 q 268 -214 308 -214 z "},"¤":{"ha":746,"x_min":54,"x_max":696,"o":"m 696 723 l 601 627 q 632 559 621 595 q 643 483 643 524 q 632 406 643 442 q 601 338 621 370 l 696 243 l 615 161 l 519 257 q 451 226 487 237 q 375 215 416 215 q 298 226 334 215 q 231 257 262 237 l 135 161 l 54 243 l 149 338 q 118 406 129 370 q 107 483 107 442 q 118 559 107 524 q 149 627 129 595 l 54 723 l 135 804 l 231 709 q 298 740 262 728 q 375 751 334 751 q 451 740 416 751 q 519 709 487 728 l 615 804 l 696 723 m 214 483 q 227 420 214 450 q 261 369 239 391 q 313 335 283 347 q 375 322 342 322 q 437 335 408 322 q 489 369 467 347 q 523 420 511 391 q 536 483 536 450 q 523 545 536 516 q 489 596 511 574 q 437 631 467 618 q 375 644 408 644 q 313 631 342 644 q 261 596 283 618 q 227 545 239 574 q 214 483 214 516 z "},"d":{"ha":746,"x_min":107,"x_max":643,"o":"m 643 0 l 536 0 l 536 53 q 479 21 510 34 q 375 0 431 0 q 271 21 319 0 q 185 78 222 42 q 128 163 149 115 q 107 268 107 212 l 107 482 q 128 587 107 538 q 185 672 149 635 q 271 729 222 708 q 375 750 319 750 q 479 729 431 750 q 536 696 510 715 l 536 964 l 643 964 l 643 0 m 524 545 q 489 596 511 574 q 437 630 467 618 q 375 643 408 643 q 313 630 342 643 q 261 596 283 618 q 227 545 239 574 q 214 482 214 515 l 214 268 q 227 205 214 235 q 261 154 239 176 q 313 120 283 132 q 375 107 342 107 q 437 120 408 107 q 489 154 467 132 q 523 205 511 176 q 536 268 536 235 l 536 488 l 524 545 z "},"†":{"ha":746,"x_min":107,"x_max":643,"o":"m 321 643 l 107 643 l 107 750 l 321 750 l 321 964 l 429 964 l 429 750 l 643 750 l 643 643 l 429 643 l 429 214 l 321 214 l 321 643 z "},"‡":{"ha":746,"x_min":107,"x_max":643,"o":"m 321 214 l 107 214 l 107 321 l 321 321 l 321 643 l 107 643 l 107 750 l 321 750 l 321 964 l 429 964 l 429 750 l 643 750 l 643 643 l 429 643 l 429 321 l 643 321 l 643 214 l 429 214 l 429 0 l 321 0 l 321 214 z "},"ď":{"ha":746,"x_min":1,"x_max":643,"o":"m 536 0 l 429 0 l 429 53 q 373 21 404 34 q 269 0 324 0 q 164 21 213 0 q 79 78 115 42 q 22 163 43 115 q 1 268 1 212 l 1 482 q 22 587 1 538 q 79 672 43 635 q 164 729 115 708 q 269 750 213 750 q 373 729 324 750 q 429 696 404 715 l 429 964 l 536 964 l 536 0 m 417 545 q 382 596 404 574 q 331 630 360 618 q 269 643 302 643 q 206 630 235 643 q 155 596 177 618 q 120 545 133 574 q 108 482 108 515 l 108 268 q 120 205 108 235 q 155 154 133 176 q 206 120 177 132 q 269 107 235 107 q 331 120 302 107 q 382 154 360 132 q 417 205 404 176 q 429 268 429 235 l 429 488 l 417 545 m 321 1125 l 375 1179 l 482 1072 l 589 1179 l 643 1125 l 482 964 l 321 1125 z "},"đ":{"ha":746,"x_min":107,"x_max":749,"o":"m 643 0 l 536 0 l 536 53 q 479 21 510 34 q 375 0 431 0 q 271 21 319 0 q 185 78 222 42 q 128 163 149 115 q 107 268 107 212 l 107 482 q 128 587 107 538 q 185 672 149 635 q 271 729 222 708 q 375 750 319 750 q 479 729 431 750 q 536 696 510 715 l 536 964 l 643 964 l 643 0 m 524 545 q 489 596 511 574 q 437 630 467 618 q 375 643 408 643 q 313 630 342 643 q 261 596 283 618 q 227 545 239 574 q 214 482 214 515 l 214 268 q 227 205 214 235 q 261 154 239 176 q 313 120 283 132 q 375 107 342 107 q 437 120 408 107 q 489 154 467 132 q 523 205 511 176 q 536 268 536 235 l 536 488 l 524 545 m 428 857 l 750 857 l 750 750 l 428 750 l 428 857 z "},"°":{"ha":746,"x_min":107,"x_max":536,"o":"m 107 750 q 124 833 107 794 q 170 901 141 872 q 238 947 199 930 q 321 964 277 964 q 405 947 366 964 q 473 901 444 930 q 519 833 502 872 q 536 750 536 794 q 519 667 536 706 q 473 599 502 628 q 405 553 444 570 q 321 536 366 536 q 238 553 277 536 q 170 599 199 570 q 124 667 141 628 q 107 750 107 706 m 214 750 q 223 708 214 728 q 246 674 231 689 q 280 651 260 660 q 321 643 299 643 q 363 651 344 643 q 397 674 382 660 q 420 708 412 689 q 429 750 429 728 q 420 792 429 772 q 397 826 412 811 q 363 849 382 840 q 321 857 344 857 q 280 849 299 857 q 246 826 260 840 q 223 792 231 811 q 214 750 214 772 z "},"δ":{"ha":746,"x_min":0,"x_max":643,"o":"m 107 1072 l 536 1072 l 536 964 l 268 964 l 563 673 q 623 583 602 635 q 639 526 635 548 q 643 482 643 503 l 643 268 q 615 163 643 212 q 543 78 588 115 q 439 21 497 42 q 321 0 382 0 q 203 21 261 0 q 100 78 146 42 q 27 163 55 115 q 0 268 0 212 l 0 482 q 27 587 0 538 q 100 672 55 635 q 203 729 146 708 q 321 750 261 750 q 325 750 323 750 q 328 749 326 749 l 107 964 l 107 1072 m 107 268 q 125 205 107 235 q 174 154 144 176 q 243 120 204 132 q 321 107 281 107 q 400 120 361 107 q 469 154 439 132 q 517 205 499 176 q 536 268 536 235 l 536 482 q 502 562 522 530 q 454 611 481 593 q 394 636 427 629 q 321 643 361 643 q 243 630 281 643 q 174 596 204 618 q 125 545 144 574 q 107 482 107 515 l 107 268 z "},"♦":{"ha":746,"x_min":107,"x_max":643,"o":"m 107 375 l 375 750 l 643 375 l 375 0 l 107 375 z "},"¨":{"ha":746,"x_min":214,"x_max":536,"o":"m 214 911 q 230 949 214 933 q 268 964 245 964 q 306 949 290 964 q 321 911 321 933 q 306 873 321 888 q 268 857 290 857 q 230 873 245 857 q 214 911 214 888 m 429 911 q 444 949 429 933 q 482 964 460 964 q 520 949 505 964 q 536 911 536 933 q 520 873 536 888 q 482 857 505 857 q 444 873 460 857 q 429 911 429 888 z "},"÷":{"ha":746,"x_min":0,"x_max":643,"o":"m 0 536 l 643 536 l 643 429 l 0 429 l 0 536 m 214 750 q 223 792 214 772 q 246 826 231 811 q 280 849 260 840 q 321 857 299 857 q 363 849 344 857 q 397 826 382 840 q 420 792 412 811 q 429 750 429 772 q 420 708 429 728 q 397 674 412 689 q 363 651 382 660 q 321 643 344 643 q 280 651 299 643 q 246 674 260 660 q 223 708 231 689 q 214 750 214 728 m 214 214 q 223 256 214 237 q 246 290 231 275 q 280 313 260 304 q 321 321 299 321 q 363 313 344 321 q 397 290 382 304 q 420 256 412 275 q 429 214 429 237 q 420 173 429 192 q 397 139 412 153 q 363 116 382 124 q 321 107 344 107 q 280 116 299 107 q 246 139 260 124 q 223 173 231 153 q 214 214 214 192 z "},"▄":{"ha":746,"x_min":0,"x_max":750,"o":"m 0 429 l 750 429 l 750 -429 l 0 -429 l 0 429 z "},"$":{"ha":746,"x_min":107,"x_max":643,"o":"m 321 107 l 107 107 l 107 214 l 321 214 l 321 429 q 243 447 281 429 q 174 495 204 465 q 125 564 144 526 q 107 643 107 603 q 125 722 107 683 q 174 790 144 760 q 243 839 204 821 q 321 857 281 857 l 321 964 l 429 964 l 429 857 l 643 857 l 643 750 l 429 750 l 429 536 q 507 517 469 536 q 576 468 546 498 q 625 399 606 438 q 643 321 643 361 q 625 242 643 281 q 576 174 606 203 q 507 125 546 144 q 429 107 469 107 l 429 0 l 321 0 l 321 107 m 214 643 q 223 604 214 623 q 248 569 233 585 q 282 545 263 554 q 321 536 301 536 l 321 750 q 282 741 301 750 q 248 716 263 732 q 223 682 233 701 q 214 643 214 663 m 536 321 q 527 361 536 342 q 502 395 517 380 q 468 419 487 410 q 429 429 449 429 l 429 214 q 468 223 449 214 q 502 248 487 233 q 527 282 517 263 q 536 321 536 301 z "},"˙":{"ha":746,"x_min":214,"x_max":321,"o":"m 214 911 q 230 949 214 933 q 268 964 245 964 q 306 949 290 964 q 321 911 321 933 q 306 873 321 888 q 268 857 290 857 q 230 873 245 857 q 214 911 214 888 z "},"ı":{"ha":746,"x_min":214,"x_max":429,"o":"m 321 643 l 214 643 l 214 750 l 429 750 l 429 0 l 321 0 l 321 643 z "},"e":{"ha":746,"x_min":107,"x_max":643,"o":"m 214 268 q 227 205 214 235 q 261 154 239 176 q 313 120 283 132 q 375 107 342 107 l 643 107 l 643 0 l 375 0 q 271 21 319 0 q 185 78 222 42 q 128 163 149 115 q 107 268 107 212 l 107 482 q 128 587 107 538 q 185 672 149 635 q 271 729 222 708 q 375 750 319 750 q 479 729 431 750 q 565 672 528 708 q 622 587 601 635 q 643 482 643 538 l 643 321 l 214 321 l 214 268 m 214 429 l 536 429 l 536 482 q 523 545 536 515 q 489 596 511 574 q 437 630 467 618 q 375 643 408 643 q 313 630 342 643 q 261 596 283 618 q 227 545 239 574 q 214 482 214 515 l 214 429 z "},"é":{"ha":746,"x_min":107,"x_max":643,"o":"m 214 268 q 227 205 214 235 q 261 154 239 176 q 313 120 283 132 q 375 107 342 107 l 643 107 l 643 0 l 375 0 q 271 21 319 0 q 185 78 222 42 q 128 163 149 115 q 107 268 107 212 l 107 482 q 128 587 107 538 q 185 672 149 635 q 271 729 222 708 q 375 750 319 750 q 479 729 431 750 q 565 672 528 708 q 622 587 601 635 q 643 482 643 538 l 643 321 l 214 321 l 214 268 m 214 429 l 536 429 l 536 482 q 523 545 536 515 q 489 596 511 574 q 437 630 467 618 q 375 643 408 643 q 313 630 342 643 q 261 596 283 618 q 227 545 239 574 q 214 482 214 515 l 214 429 m 268 857 l 214 911 l 482 1072 l 536 1018 l 268 857 z "},"ĕ":{"ha":746,"x_min":107,"x_max":643,"o":"m 214 268 q 227 205 214 235 q 261 154 239 176 q 313 120 283 132 q 375 107 342 107 l 643 107 l 643 0 l 375 0 q 271 21 319 0 q 185 78 222 42 q 128 163 149 115 q 107 268 107 212 l 107 482 q 128 587 107 538 q 185 672 149 635 q 271 729 222 708 q 375 750 319 750 q 479 729 431 750 q 565 672 528 708 q 622 587 601 635 q 643 482 643 538 l 643 321 l 214 321 l 214 268 m 214 429 l 536 429 l 536 482 q 523 545 536 515 q 489 596 511 574 q 437 630 467 618 q 375 643 408 643 q 313 630 342 643 q 261 596 283 618 q 227 545 239 574 q 214 482 214 515 l 214 429 m 374 857 q 303 876 334 857 q 253 924 273 894 q 223 993 233 954 q 213 1072 213 1031 l 320 1072 q 321 1032 320 1051 q 327 998 321 1013 q 342 974 332 983 q 374 964 353 964 q 405 974 394 964 q 421 998 416 983 q 427 1032 426 1013 q 427 1072 427 1051 l 534 1072 q 524 993 534 1031 q 494 924 514 954 q 444 876 474 894 q 374 857 414 857 z "},"ě":{"ha":746,"x_min":107,"x_max":643,"o":"m 214 268 q 227 205 214 235 q 261 154 239 176 q 313 120 283 132 q 375 107 342 107 l 643 107 l 643 0 l 375 0 q 271 21 319 0 q 185 78 222 42 q 128 163 149 115 q 107 268 107 212 l 107 482 q 128 587 107 538 q 185 672 149 635 q 271 729 222 708 q 375 750 319 750 q 479 729 431 750 q 565 672 528 708 q 622 587 601 635 q 643 482 643 538 l 643 321 l 214 321 l 214 268 m 214 429 l 536 429 l 536 482 q 523 545 536 515 q 489 596 511 574 q 437 630 467 618 q 375 643 408 643 q 313 630 342 643 q 261 596 283 618 q 227 545 239 574 q 214 482 214 515 l 214 429 m 213 1018 l 267 1072 l 374 964 l 481 1072 l 534 1018 l 374 857 l 213 1018 z "},"ê":{"ha":746,"x_min":107,"x_max":643,"o":"m 214 268 q 227 205 214 235 q 261 154 239 176 q 313 120 283 132 q 375 107 342 107 l 643 107 l 643 0 l 375 0 q 271 21 319 0 q 185 78 222 42 q 128 163 149 115 q 107 268 107 212 l 107 482 q 128 587 107 538 q 185 672 149 635 q 271 729 222 708 q 375 750 319 750 q 479 729 431 750 q 565 672 528 708 q 622 587 601 635 q 643 482 643 538 l 643 321 l 214 321 l 214 268 m 214 429 l 536 429 l 536 482 q 523 545 536 515 q 489 596 511 574 q 437 630 467 618 q 375 643 408 643 q 313 630 342 643 q 261 596 283 618 q 227 545 239 574 q 214 482 214 515 l 214 429 m 374 1072 l 534 911 l 481 857 l 374 964 l 267 857 l 213 911 l 374 1072 z "},"ë":{"ha":746,"x_min":107,"x_max":643,"o":"m 214 268 q 227 205 214 235 q 261 154 239 176 q 313 120 283 132 q 375 107 342 107 l 643 107 l 643 0 l 375 0 q 271 21 319 0 q 185 78 222 42 q 128 163 149 115 q 107 268 107 212 l 107 482 q 128 587 107 538 q 185 672 149 635 q 271 729 222 708 q 375 750 319 750 q 479 729 431 750 q 565 672 528 708 q 622 587 601 635 q 643 482 643 538 l 643 321 l 214 321 l 214 268 m 214 429 l 536 429 l 536 482 q 523 545 536 515 q 489 596 511 574 q 437 630 467 618 q 375 643 408 643 q 313 630 342 643 q 261 596 283 618 q 227 545 239 574 q 214 482 214 515 l 214 429 m 213 911 q 229 949 213 933 q 267 964 244 964 q 304 949 289 964 q 320 911 320 933 q 304 873 320 888 q 267 857 289 857 q 229 873 244 857 q 213 911 213 888 m 427 911 q 443 949 427 933 q 481 964 458 964 q 519 949 503 964 q 534 911 534 933 q 519 873 534 888 q 481 857 503 857 q 443 873 458 857 q 427 911 427 888 z "},"ė":{"ha":746,"x_min":107,"x_max":643,"o":"m 214 268 q 227 205 214 235 q 261 154 239 176 q 313 120 283 132 q 375 107 342 107 l 643 107 l 643 0 l 375 0 q 271 21 319 0 q 185 78 222 42 q 128 163 149 115 q 107 268 107 212 l 107 482 q 128 587 107 538 q 185 672 149 635 q 271 729 222 708 q 375 750 319 750 q 479 729 431 750 q 565 672 528 708 q 622 587 601 635 q 643 482 643 538 l 643 321 l 214 321 l 214 268 m 214 429 l 536 429 l 536 482 q 523 545 536 515 q 489 596 511 574 q 437 630 467 618 q 375 643 408 643 q 313 630 342 643 q 261 596 283 618 q 227 545 239 574 q 214 482 214 515 l 214 429 m 319 911 q 335 949 319 933 q 373 964 351 964 q 411 949 395 964 q 427 911 427 933 q 411 873 427 888 q 373 857 395 857 q 335 873 351 857 q 319 911 319 888 z "},"è":{"ha":746,"x_min":107,"x_max":643,"o":"m 214 268 q 227 205 214 235 q 261 154 239 176 q 313 120 283 132 q 375 107 342 107 l 643 107 l 643 0 l 375 0 q 271 21 319 0 q 185 78 222 42 q 128 163 149 115 q 107 268 107 212 l 107 482 q 128 587 107 538 q 185 672 149 635 q 271 729 222 708 q 375 750 319 750 q 479 729 431 750 q 565 672 528 708 q 622 587 601 635 q 643 482 643 538 l 643 321 l 214 321 l 214 268 m 214 429 l 536 429 l 536 482 q 523 545 536 515 q 489 596 511 574 q 437 630 467 618 q 375 643 408 643 q 313 630 342 643 q 261 596 283 618 q 227 545 239 574 q 214 482 214 515 l 214 429 m 214 964 l 214 1072 l 536 911 l 536 804 l 214 964 z "},"₈":{"ha":746,"x_min":107,"x_max":429,"o":"m 107 54 q 118 112 107 85 q 148 161 128 140 q 118 210 128 183 q 107 269 107 237 q 120 331 107 302 q 154 382 132 360 q 205 417 176 404 q 268 429 235 429 q 330 417 301 429 q 381 382 359 404 q 416 331 404 360 q 429 269 429 302 q 418 210 429 237 q 388 161 407 183 q 418 112 407 140 q 429 54 429 85 q 416 -8 429 21 q 381 -59 404 -37 q 330 -94 359 -81 q 268 -106 301 -106 q 205 -94 235 -106 q 154 -59 176 -81 q 120 -8 132 -37 q 107 54 107 21 m 214 54 q 230 16 214 32 q 268 1 245 1 q 306 16 290 1 q 321 54 321 32 q 306 92 321 77 q 268 108 290 108 q 230 92 245 108 q 214 54 214 77 m 214 269 q 230 231 214 246 q 268 215 245 215 q 306 231 290 215 q 321 269 321 246 q 306 307 321 291 q 268 322 290 322 q 230 307 245 322 q 214 269 214 291 z "},"⁸":{"ha":746,"x_min":107,"x_max":429,"o":"m 107 696 q 118 754 107 727 q 148 804 128 782 q 118 852 128 825 q 107 911 107 880 q 120 973 107 944 q 154 1024 132 1002 q 205 1059 176 1046 q 268 1072 235 1072 q 330 1059 301 1072 q 381 1024 359 1046 q 416 973 404 1002 q 429 911 429 944 q 418 852 429 880 q 388 804 407 825 q 418 754 407 782 q 429 696 429 727 q 416 634 429 663 q 381 583 404 605 q 330 548 359 561 q 268 536 301 536 q 205 548 235 536 q 154 583 176 561 q 120 634 132 605 q 107 696 107 663 m 214 696 q 230 659 214 674 q 268 643 245 643 q 306 659 290 643 q 321 696 321 674 q 306 734 321 719 q 268 750 290 750 q 230 734 245 750 q 214 696 214 719 m 214 911 q 230 873 214 888 q 268 857 245 857 q 306 873 290 857 q 321 911 321 888 q 306 949 321 933 q 268 964 290 964 q 230 949 245 964 q 214 911 214 933 z "},"…":{"ha":746,"x_min":107,"x_max":643,"o":"m 107 214 l 214 214 l 214 0 l 107 0 l 107 214 m 321 214 l 429 214 l 429 0 l 321 0 l 321 214 m 536 214 l 643 214 l 643 0 l 536 0 l 536 214 z "},"ē":{"ha":746,"x_min":107,"x_max":643,"o":"m 214 268 q 227 205 214 235 q 261 154 239 176 q 313 120 283 132 q 375 107 342 107 l 643 107 l 643 0 l 375 0 q 271 21 319 0 q 185 78 222 42 q 128 163 149 115 q 107 268 107 212 l 107 482 q 128 587 107 538 q 185 672 149 635 q 271 729 222 708 q 375 750 319 750 q 479 729 431 750 q 565 672 528 708 q 622 587 601 635 q 643 482 643 538 l 643 321 l 214 321 l 214 268 m 214 429 l 536 429 l 536 482 q 523 545 536 515 q 489 596 511 574 q 437 630 467 618 q 375 643 408 643 q 313 630 342 643 q 261 596 283 618 q 227 545 239 574 q 214 482 214 515 l 214 429 m 107 858 l 107 965 l 643 965 l 643 858 l 107 858 z "},"—":{"ha":746,"x_min":0,"x_max":750,"o":"m 0 322 l 0 428 l 750 428 l 750 322 l 536 322 l 0 322 z "},"–":{"ha":746,"x_min":107,"x_max":642,"o":"m 107 321 l 107 427 l 642 427 l 642 321 l 107 321 z "},"ŋ":{"ha":746,"x_min":107,"x_max":643,"o":"m 214 -107 l 214 -214 l 429 -214 q 507 -196 469 -214 q 561 -161 536 -182 q 604 -115 585 -140 q 632 -60 622 -89 q 643 0 643 -31 l 643 482 q 622 587 643 538 q 565 672 601 635 q 479 729 528 708 q 375 750 431 750 q 289 736 330 750 q 214 696 248 722 l 214 750 l 107 750 l 107 0 l 214 0 l 214 489 q 229 549 216 521 q 263 598 241 577 q 314 631 285 618 q 375 643 342 643 q 437 630 408 643 q 489 596 467 618 q 523 545 511 574 q 536 482 536 515 l 536 54 q 375 -107 536 -107 l 214 -107 z "},"ę":{"ha":746,"x_min":107,"x_max":643,"o":"m 214 268 q 227 205 214 235 q 261 154 239 176 q 313 120 283 132 q 375 107 342 107 l 643 107 l 643 0 l 375 0 q 271 21 319 0 q 185 78 222 42 q 128 163 149 115 q 107 268 107 212 l 107 482 q 128 587 107 538 q 185 672 149 635 q 271 729 222 708 q 375 750 319 750 q 479 729 431 750 q 565 672 528 708 q 622 587 601 635 q 643 482 643 538 l 643 321 l 214 321 l 214 268 m 214 429 l 536 429 l 536 482 q 523 545 536 515 q 489 596 511 574 q 437 630 467 618 q 375 643 408 643 q 313 630 342 643 q 261 596 283 618 q 227 545 239 574 q 214 482 214 515 l 214 429 m 429 0 q 439 -70 429 -40 q 475 -114 450 -99 q 542 -128 500 -129 q 643 -107 583 -127 l 643 -214 q 503 -226 563 -235 q 402 -188 442 -218 q 341 -109 361 -157 q 321 0 321 -60 l 429 0 z "},"ε":{"ha":746,"x_min":107,"x_max":634,"o":"m 634 161 q 598 97 623 126 q 540 46 574 67 q 464 12 506 24 q 375 0 422 0 q 271 17 319 0 q 185 63 222 34 q 128 131 149 92 q 107 214 107 170 q 116 261 107 238 q 140 304 125 283 q 174 342 155 324 q 214 375 193 360 q 174 408 193 390 q 140 446 155 426 q 116 489 125 467 q 107 536 107 512 q 128 619 107 580 q 185 687 149 658 q 271 733 222 716 q 375 750 319 750 q 464 738 422 750 q 540 704 506 726 q 598 653 574 683 q 634 589 623 624 l 536 536 q 523 577 536 558 q 489 611 511 597 q 437 634 467 626 q 375 643 408 643 q 313 634 342 643 q 261 611 283 626 q 227 577 239 597 q 214 536 214 558 q 225 494 214 513 q 261 460 236 475 q 327 437 286 446 q 429 429 368 429 l 429 321 q 327 314 368 321 q 261 293 286 307 q 225 259 236 279 q 214 214 214 239 q 227 170 214 189 q 261 136 239 150 q 313 115 283 122 q 375 107 342 107 q 434 115 406 107 q 483 138 461 123 q 517 172 504 153 q 534 214 531 192 l 634 161 z "},"έ":{"ha":746,"x_min":107,"x_max":634,"o":"m 634 161 q 598 97 623 126 q 540 46 574 67 q 464 12 506 24 q 375 0 422 0 q 271 17 319 0 q 185 63 222 34 q 128 131 149 92 q 107 214 107 170 q 116 261 107 238 q 140 304 125 283 q 174 342 155 324 q 214 375 193 360 q 174 408 193 390 q 140 446 155 426 q 116 489 125 467 q 107 536 107 512 q 128 619 107 580 q 185 687 149 658 q 271 733 222 716 q 375 750 319 750 q 464 738 422 750 q 540 704 506 726 q 598 653 574 683 q 634 589 623 624 l 536 536 q 523 577 536 558 q 489 611 511 597 q 437 634 467 626 q 375 643 408 643 q 313 634 342 643 q 261 611 283 626 q 227 577 239 597 q 214 536 214 558 q 225 494 214 513 q 261 460 236 475 q 327 437 286 446 q 429 429 368 429 l 429 321 q 327 314 368 321 q 261 293 286 307 q 225 259 236 279 q 214 214 214 239 q 227 170 214 189 q 261 136 239 150 q 313 115 283 122 q 375 107 342 107 q 434 115 406 107 q 483 138 461 123 q 517 172 504 153 q 534 214 531 192 l 634 161 m 267 857 l 213 911 l 481 1072 l 534 1018 l 267 857 z "},"=":{"ha":746,"x_min":0,"x_max":643,"o":"m 0 321 l 0 429 l 643 429 l 643 321 l 0 321 m 0 536 l 0 643 l 643 643 l 643 536 l 0 536 z "},"≡":{"ha":746,"x_min":0,"x_max":643,"o":"m 0 429 l 0 536 l 643 536 l 643 429 l 0 429 m 0 643 l 0 750 l 643 750 l 643 643 l 0 643 m 0 214 l 0 321 l 643 321 l 643 214 l 0 214 z "},"η":{"ha":746,"x_min":107,"x_max":643,"o":"m 375 643 q 314 631 342 643 q 263 598 285 618 q 229 549 241 577 q 214 489 216 521 l 214 0 l 107 0 l 107 750 l 214 750 l 214 696 q 289 736 248 722 q 375 750 330 750 q 479 729 431 750 q 565 672 528 708 q 622 587 601 635 q 643 482 643 538 l 643 -214 l 536 -214 l 536 482 q 523 545 536 515 q 489 596 511 574 q 437 630 467 618 q 375 643 408 643 z "},"ή":{"ha":746,"x_min":107,"x_max":643,"o":"m 375 643 q 314 631 342 643 q 263 598 285 618 q 229 549 241 577 q 214 489 216 521 l 214 0 l 107 0 l 107 750 l 214 750 l 214 696 q 289 736 248 722 q 375 750 330 750 q 479 729 431 750 q 565 672 528 708 q 622 587 601 635 q 643 482 643 538 l 643 -214 l 536 -214 l 536 482 q 523 545 536 515 q 489 596 511 574 q 437 630 467 618 q 375 643 408 643 m 267 857 l 213 911 l 481 1072 l 534 1018 l 267 857 z "},"ð":{"ha":746,"x_min":107,"x_max":643,"o":"m 482 964 l 482 857 l 448 823 q 543 696 497 772 l 643 536 l 643 214 q 625 136 643 174 q 576 67 606 97 q 507 18 546 37 q 429 0 469 0 l 321 0 q 243 18 281 0 q 174 67 204 37 q 125 136 144 97 q 107 214 107 174 l 107 321 q 125 400 107 361 q 174 469 144 439 q 243 517 204 499 q 321 536 281 536 l 536 536 l 429 696 q 382 758 406 730 l 268 643 l 268 750 l 329 811 q 214 857 271 857 l 214 964 l 329 911 q 391 873 361 897 l 482 964 m 375 107 q 536 268 536 107 l 536 429 l 375 429 q 214 268 214 429 q 375 107 214 107 z "},"!":{"ha":746,"x_min":321,"x_max":429,"o":"m 321 964 l 429 964 l 429 321 l 321 321 l 321 964 m 321 214 l 429 214 l 429 0 l 321 0 l 321 214 z "},"‼":{"ha":746,"x_min":214,"x_max":536,"o":"m 214 964 l 321 964 l 321 321 l 214 321 l 214 964 m 214 214 l 321 214 l 321 0 l 214 0 l 214 214 m 429 964 l 536 964 l 536 321 l 429 321 l 429 964 m 429 214 l 536 214 l 536 0 l 429 0 l 429 214 z "},"¡":{"ha":746,"x_min":321,"x_max":429,"o":"m 321 643 l 429 643 l 429 0 l 321 0 l 321 643 m 321 964 l 429 964 l 429 750 l 321 750 l 321 964 z "},"f":{"ha":746,"x_min":107,"x_max":643,"o":"m 107 643 l 214 643 l 214 696 q 235 801 214 752 q 293 886 256 850 q 378 943 329 922 q 482 964 427 964 l 643 964 l 643 857 l 482 857 q 420 845 449 857 q 369 810 391 832 q 334 759 347 788 q 321 696 321 730 l 321 643 l 536 643 l 536 536 l 321 536 l 321 0 l 214 0 l 214 536 l 107 536 l 107 643 z "},"ﬀ":{"ha":746,"x_min":0,"x_max":750,"o":"m 321 643 l 429 643 l 429 696 q 450 801 429 752 q 507 886 471 850 q 592 943 543 922 q 696 964 641 964 l 750 964 l 750 857 l 696 857 q 634 845 663 857 q 583 810 605 832 q 548 759 561 788 q 536 696 536 730 l 536 643 l 750 643 l 750 536 l 536 536 l 536 0 l 429 0 l 429 536 l 214 536 l 214 0 l 107 0 l 107 536 l 0 536 l 0 643 l 107 643 l 107 696 q 128 801 107 752 q 185 886 149 850 q 271 943 222 922 q 375 964 319 964 l 429 964 l 429 857 l 375 857 q 313 845 342 857 q 261 810 283 832 q 227 759 239 788 q 214 696 214 730 l 214 643 l 321 643 z "},"ﬃ":{"ha":746,"x_min":0,"x_max":750,"o":"m 750 0 l 643 0 l 643 536 l 482 536 l 482 0 l 375 0 l 375 536 l 214 536 l 214 0 l 107 0 l 107 536 l 0 536 l 0 643 l 107 643 l 107 696 q 128 801 107 752 q 185 886 149 850 q 271 943 222 922 q 375 964 319 964 l 375 857 q 313 845 342 857 q 261 810 283 832 q 227 759 239 788 q 214 696 214 730 l 214 643 l 375 643 l 375 696 q 396 801 375 752 q 453 886 417 850 q 538 943 490 922 q 643 964 587 964 l 643 913 q 659 949 644 935 q 696 964 675 964 q 734 949 719 964 q 750 911 750 933 q 734 873 750 888 q 696 857 719 857 q 659 872 675 857 q 643 908 644 886 l 643 857 q 581 845 610 857 q 529 810 551 832 q 495 759 507 788 q 482 696 482 730 l 482 643 l 750 643 l 750 0 z "},"ﬄ":{"ha":746,"x_min":0,"x_max":750,"o":"m 643 536 l 482 536 l 482 0 l 375 0 l 375 536 l 214 536 l 214 0 l 107 0 l 107 536 l 0 536 l 0 643 l 107 643 l 107 696 q 128 801 107 752 q 185 886 149 850 q 271 943 222 922 q 375 964 319 964 l 375 857 q 313 845 342 857 q 261 810 283 832 q 227 759 239 788 q 214 696 214 730 l 214 643 l 375 643 l 375 696 q 396 801 375 752 q 453 886 417 850 q 538 943 490 922 q 643 964 587 964 l 750 964 l 750 0 l 643 0 l 643 536 m 643 857 q 581 845 610 857 q 529 810 551 832 q 495 759 507 788 q 482 696 482 730 l 482 643 l 643 643 l 643 857 z "},"♀":{"ha":746,"x_min":107,"x_max":643,"o":"m 107 696 q 128 801 107 752 q 185 886 149 850 q 271 943 222 922 q 375 964 319 964 q 479 943 431 964 q 565 886 528 922 q 622 801 601 850 q 643 696 643 752 q 627 604 643 648 q 582 526 610 561 q 513 467 553 491 q 429 434 474 443 l 429 321 l 536 321 l 536 214 l 429 214 l 429 107 l 321 107 l 321 214 l 214 214 l 214 321 l 321 321 l 321 434 q 236 467 275 443 q 169 526 197 491 q 123 604 140 561 q 107 696 107 648 m 214 696 q 227 634 214 663 q 261 583 239 605 q 313 548 283 561 q 375 536 342 536 q 437 548 408 536 q 489 583 467 561 q 523 634 511 605 q 536 696 536 663 q 523 759 536 730 q 489 810 511 788 q 437 845 467 832 q 375 857 408 857 q 313 845 342 857 q 261 810 283 832 q 227 759 239 788 q 214 696 214 730 z "},"ﬁ":{"ha":746,"x_min":107,"x_max":643,"o":"m 107 643 l 214 643 l 214 696 q 235 801 214 752 q 293 886 256 850 q 378 943 329 922 q 482 964 427 964 l 643 964 l 643 857 l 482 857 q 420 845 449 857 q 369 810 391 832 q 334 759 347 788 q 321 696 321 730 l 321 643 l 643 643 l 643 0 l 536 0 l 536 536 l 321 536 l 321 0 l 214 0 l 214 536 l 107 536 l 107 643 z "},"■":{"ha":746,"x_min":107,"x_max":643,"o":"m 107 750 l 643 750 l 643 214 l 107 214 l 107 750 z "},"⅝":{"ha":746,"x_min":1,"x_max":750,"o":"m 536 1072 l 643 1072 l 214 0 l 107 0 l 536 1072 m 429 161 q 439 219 429 192 q 469 269 450 247 q 439 317 450 290 q 429 376 429 345 q 441 438 429 409 q 476 489 454 467 q 527 524 498 511 q 589 536 556 536 q 652 524 623 536 q 703 489 681 511 q 738 438 725 467 q 750 376 750 409 q 739 317 750 345 q 709 269 728 290 q 739 219 728 247 q 750 161 750 192 q 738 99 750 128 q 703 48 725 70 q 652 13 681 26 q 589 1 623 1 q 527 13 556 1 q 476 48 498 26 q 441 99 454 70 q 429 161 429 128 m 536 161 q 551 123 536 139 q 589 108 567 108 q 627 123 612 108 q 643 161 643 139 q 627 199 643 184 q 589 215 612 215 q 551 199 567 215 q 536 161 536 184 m 536 376 q 551 338 536 353 q 589 322 567 322 q 627 338 612 322 q 643 376 643 353 q 627 414 643 398 q 589 429 612 429 q 551 414 567 429 q 536 376 536 398 m 1 644 q 79 645 41 644 q 148 650 118 645 q 197 666 178 656 q 215 698 215 677 q 197 729 215 718 q 148 745 178 740 q 79 751 118 750 q 1 752 41 752 l 1 1074 l 322 1074 l 322 967 l 108 967 l 108 859 q 209 849 168 859 q 275 819 250 839 q 311 768 300 799 q 322 698 322 738 q 311 627 322 658 q 275 577 300 597 q 209 547 250 557 q 108 536 168 536 l 1 536 l 1 644 z "},"₅":{"ha":746,"x_min":107,"x_max":429,"o":"m 107 1 q 186 1 147 1 q 255 7 224 2 q 303 23 285 12 q 321 54 321 34 q 303 85 321 75 q 255 101 285 96 q 186 107 224 106 q 107 108 147 108 l 107 429 l 429 429 l 429 322 l 214 322 l 214 215 q 316 205 275 215 q 382 175 357 195 q 418 124 407 155 q 429 54 429 94 q 418 -16 429 14 q 382 -66 407 -46 q 316 -96 357 -86 q 214 -106 275 -106 l 107 -106 l 107 1 z "},"⁵":{"ha":746,"x_min":107,"x_max":429,"o":"m 107 643 q 186 644 147 643 q 255 649 224 644 q 303 665 285 654 q 321 696 321 676 q 303 728 321 717 q 255 744 285 739 q 186 749 224 749 q 107 750 147 750 l 107 1072 l 429 1072 l 429 964 l 214 964 l 214 857 q 316 847 275 857 q 382 817 357 837 q 418 767 407 797 q 429 696 429 736 q 418 626 429 656 q 382 576 407 596 q 316 546 357 556 q 214 536 275 536 l 107 536 l 107 643 z "},"ﬂ":{"ha":746,"x_min":107,"x_max":643,"o":"m 107 643 l 214 643 l 214 696 q 235 801 214 752 q 293 886 256 850 q 378 943 329 922 q 482 964 427 964 l 643 964 l 643 0 l 536 0 l 536 536 l 321 536 l 321 0 l 214 0 l 214 536 l 107 536 l 107 643 m 321 643 l 536 643 l 536 857 l 482 857 q 420 845 449 857 q 369 810 391 832 q 334 759 347 788 q 321 696 321 730 l 321 643 z "},"ƒ":{"ha":746,"x_min":107,"x_max":643,"o":"m 589 857 q 527 845 556 857 q 476 810 498 832 q 441 759 454 788 q 429 696 429 730 l 429 643 l 643 643 l 643 536 l 429 536 l 429 -54 q 408 -158 429 -109 q 350 -243 387 -207 q 265 -300 314 -279 q 161 -321 216 -321 l 107 -321 l 107 -214 l 161 -214 q 223 -202 194 -214 q 274 -167 252 -189 q 309 -116 296 -145 q 321 -54 321 -87 l 321 536 l 214 536 l 214 643 l 321 643 l 321 696 q 342 801 321 752 q 400 886 363 850 q 485 943 436 922 q 589 964 534 964 l 643 964 l 643 857 l 589 857 l 589 857 z "},"₄":{"ha":746,"x_min":107,"x_max":429,"o":"m 107 215 l 321 429 l 429 429 l 429 -106 l 321 -106 l 321 1 l 107 1 l 107 215 m 321 108 l 321 269 l 214 161 l 214 108 l 321 108 z "},"⁴":{"ha":746,"x_min":107,"x_max":429,"o":"m 107 857 l 321 1072 l 429 1072 l 429 536 l 321 536 l 321 643 l 107 643 l 107 857 m 321 750 l 321 911 l 214 804 l 214 750 l 321 750 z "},"⁄":{"ha":746,"x_min":107,"x_max":643,"o":"m 536 1072 l 643 1072 l 214 0 l 107 0 l 536 1072 z "},"₣":{"ha":746,"x_min":0,"x_max":643,"o":"m 0 214 l 107 214 l 107 964 l 643 964 l 643 857 l 214 857 l 214 536 l 536 536 l 536 429 l 214 429 l 214 214 l 321 214 l 321 107 l 214 107 l 214 0 l 107 0 l 107 107 l 0 107 l 0 214 z "},"g":{"ha":746,"x_min":107,"x_max":643,"o":"m 214 -214 l 375 -214 q 437 -202 408 -214 q 489 -167 467 -189 q 523 -116 511 -145 q 536 -54 536 -87 l 536 54 q 461 14 502 28 q 375 0 420 0 q 271 21 319 0 q 185 78 222 42 q 128 163 149 115 q 107 268 107 212 l 107 482 q 128 587 107 538 q 185 672 149 635 q 271 729 222 708 q 375 750 319 750 q 461 736 420 750 q 536 696 502 722 l 536 750 l 643 750 l 643 -54 q 622 -158 643 -109 q 565 -243 601 -207 q 479 -300 528 -279 q 375 -321 431 -321 l 214 -321 l 214 -214 m 214 268 q 227 205 214 235 q 261 154 239 176 q 313 120 283 132 q 375 107 342 107 q 436 119 408 107 q 486 152 465 131 q 521 201 508 173 q 536 261 534 229 l 536 489 q 521 549 534 521 q 486 598 508 577 q 436 631 465 618 q 375 643 408 643 q 313 630 342 643 q 261 596 283 618 q 227 545 239 574 q 214 482 214 515 l 214 268 z "},"ğ":{"ha":746,"x_min":107,"x_max":643,"o":"m 214 -214 l 375 -214 q 437 -202 408 -214 q 489 -167 467 -189 q 523 -116 511 -145 q 536 -54 536 -87 l 536 54 q 461 14 502 28 q 375 0 420 0 q 271 21 319 0 q 185 78 222 42 q 128 163 149 115 q 107 268 107 212 l 107 482 q 128 587 107 538 q 185 672 149 635 q 271 729 222 708 q 375 750 319 750 q 461 736 420 750 q 536 696 502 722 l 536 750 l 643 750 l 643 -54 q 622 -158 643 -109 q 565 -243 601 -207 q 479 -300 528 -279 q 375 -321 431 -321 l 214 -321 l 214 -214 m 214 268 q 227 205 214 235 q 261 154 239 176 q 313 120 283 132 q 375 107 342 107 q 436 119 408 107 q 486 152 465 131 q 521 201 508 173 q 536 261 534 229 l 536 489 q 521 549 534 521 q 486 598 508 577 q 436 631 465 618 q 375 643 408 643 q 313 630 342 643 q 261 596 283 618 q 227 545 239 574 q 214 482 214 515 l 214 268 m 374 857 q 303 876 334 857 q 253 924 273 894 q 223 993 233 954 q 213 1072 213 1031 l 320 1072 q 321 1032 320 1051 q 327 998 321 1013 q 342 974 332 983 q 374 964 353 964 q 405 974 394 964 q 421 998 416 983 q 427 1032 426 1013 q 427 1072 427 1051 l 534 1072 q 524 993 534 1031 q 494 924 514 954 q 444 876 474 894 q 374 857 414 857 z "},"ǧ":{"ha":746,"x_min":107,"x_max":643,"o":"m 214 -214 l 375 -214 q 437 -202 408 -214 q 489 -167 467 -189 q 523 -116 511 -145 q 536 -54 536 -87 l 536 54 q 461 14 502 28 q 375 0 420 0 q 271 21 319 0 q 185 78 222 42 q 128 163 149 115 q 107 268 107 212 l 107 482 q 128 587 107 538 q 185 672 149 635 q 271 729 222 708 q 375 750 319 750 q 461 736 420 750 q 536 696 502 722 l 536 750 l 643 750 l 643 -54 q 622 -158 643 -109 q 565 -243 601 -207 q 479 -300 528 -279 q 375 -321 431 -321 l 214 -321 l 214 -214 m 214 268 q 227 205 214 235 q 261 154 239 176 q 313 120 283 132 q 375 107 342 107 q 436 119 408 107 q 486 152 465 131 q 521 201 508 173 q 536 261 534 229 l 536 489 q 521 549 534 521 q 486 598 508 577 q 436 631 465 618 q 375 643 408 643 q 313 630 342 643 q 261 596 283 618 q 227 545 239 574 q 214 482 214 515 l 214 268 m 214 1018 l 268 1072 l 375 964 l 482 1072 l 536 1018 l 375 857 l 214 1018 z "},"ĝ":{"ha":746,"x_min":107,"x_max":643,"o":"m 214 -214 l 375 -214 q 437 -202 408 -214 q 489 -167 467 -189 q 523 -116 511 -145 q 536 -54 536 -87 l 536 54 q 461 14 502 28 q 375 0 420 0 q 271 21 319 0 q 185 78 222 42 q 128 163 149 115 q 107 268 107 212 l 107 482 q 128 587 107 538 q 185 672 149 635 q 271 729 222 708 q 375 750 319 750 q 461 736 420 750 q 536 696 502 722 l 536 750 l 643 750 l 643 -54 q 622 -158 643 -109 q 565 -243 601 -207 q 479 -300 528 -279 q 375 -321 431 -321 l 214 -321 l 214 -214 m 214 268 q 227 205 214 235 q 261 154 239 176 q 313 120 283 132 q 375 107 342 107 q 436 119 408 107 q 486 152 465 131 q 521 201 508 173 q 536 261 534 229 l 536 489 q 521 549 534 521 q 486 598 508 577 q 436 631 465 618 q 375 643 408 643 q 313 630 342 643 q 261 596 283 618 q 227 545 239 574 q 214 482 214 515 l 214 268 m 374 1072 l 534 911 l 481 857 l 374 964 l 267 857 l 213 911 l 374 1072 z "},"ģ":{"ha":746,"x_min":107,"x_max":643,"o":"m 214 -214 l 375 -214 q 437 -202 408 -214 q 489 -167 467 -189 q 523 -116 511 -145 q 536 -54 536 -87 l 536 54 q 461 14 502 28 q 375 0 420 0 q 271 21 319 0 q 185 78 222 42 q 128 163 149 115 q 107 268 107 212 l 107 482 q 128 587 107 538 q 185 672 149 635 q 271 729 222 708 q 375 750 319 750 q 461 736 420 750 q 536 696 502 722 l 536 750 l 643 750 l 643 -54 q 622 -158 643 -109 q 565 -243 601 -207 q 479 -300 528 -279 q 375 -321 431 -321 l 214 -321 l 214 -214 m 214 268 q 227 205 214 235 q 261 154 239 176 q 313 120 283 132 q 375 107 342 107 q 436 119 408 107 q 486 152 465 131 q 521 201 508 173 q 536 261 534 229 l 536 489 q 521 549 534 521 q 486 598 508 577 q 436 631 465 618 q 375 643 408 643 q 313 630 342 643 q 261 596 283 618 q 227 545 239 574 q 214 482 214 515 l 214 268 m 427 1286 q 465 1270 449 1286 q 480 1232 480 1255 q 465 1194 480 1210 q 427 1179 449 1179 q 395 1172 406 1179 q 379 1151 385 1164 q 374 1117 374 1137 q 373 1072 373 1097 q 415 1063 395 1072 q 449 1040 434 1055 q 472 1006 463 1025 q 480 964 480 987 q 472 923 480 942 q 449 889 463 903 q 415 866 434 874 q 373 857 395 857 q 331 866 351 857 q 297 889 312 874 q 274 923 283 903 q 266 964 266 942 l 266 1072 q 276 1150 266 1112 q 306 1219 286 1189 q 356 1267 326 1249 q 427 1286 387 1286 z "},"ġ":{"ha":746,"x_min":107,"x_max":643,"o":"m 214 -214 l 375 -214 q 437 -202 408 -214 q 489 -167 467 -189 q 523 -116 511 -145 q 536 -54 536 -87 l 536 54 q 461 14 502 28 q 375 0 420 0 q 271 21 319 0 q 185 78 222 42 q 128 163 149 115 q 107 268 107 212 l 107 482 q 128 587 107 538 q 185 672 149 635 q 271 729 222 708 q 375 750 319 750 q 461 736 420 750 q 536 696 502 722 l 536 750 l 643 750 l 643 -54 q 622 -158 643 -109 q 565 -243 601 -207 q 479 -300 528 -279 q 375 -321 431 -321 l 214 -321 l 214 -214 m 214 268 q 227 205 214 235 q 261 154 239 176 q 313 120 283 132 q 375 107 342 107 q 436 119 408 107 q 486 152 465 131 q 521 201 508 173 q 536 261 534 229 l 536 489 q 521 549 534 521 q 486 598 508 577 q 436 631 465 618 q 375 643 408 643 q 313 630 342 643 q 261 596 283 618 q 227 545 239 574 q 214 482 214 515 l 214 268 m 319 911 q 335 949 319 933 q 373 964 351 964 q 411 949 395 964 q 427 911 427 933 q 411 873 427 888 q 373 857 395 857 q 335 873 351 857 q 319 911 319 888 z "},"ß":{"ha":746,"x_min":107,"x_max":643,"o":"m 107 696 q 131 816 107 766 q 192 900 154 867 q 278 948 230 932 q 375 964 326 964 q 479 943 431 964 q 565 886 528 922 q 622 801 601 850 q 643 696 643 752 q 613 574 643 630 q 535 482 584 519 q 613 390 584 446 q 643 268 643 334 q 622 163 643 212 q 565 78 601 115 q 479 21 528 42 q 375 0 431 0 l 321 0 l 321 107 l 375 107 q 437 120 408 107 q 489 154 467 132 q 523 205 511 176 q 536 268 536 235 q 523 330 536 301 q 489 381 511 359 q 437 416 467 404 q 375 429 408 429 l 321 429 l 321 536 l 375 536 q 437 548 408 536 q 489 583 467 561 q 523 634 511 605 q 536 696 536 663 q 523 759 536 730 q 489 810 511 788 q 437 845 467 832 q 375 857 408 857 q 317 847 346 857 q 266 817 288 837 q 229 767 243 797 q 214 696 214 736 l 214 0 l 107 0 l 107 696 z "},"∇":{"ha":746,"x_min":107,"x_max":643,"o":"m 107 964 l 643 964 l 643 857 l 429 0 l 321 0 l 107 857 l 107 964 m 562 857 l 233 857 l 391 182 l 562 857 z "},"`":{"ha":746,"x_min":107,"x_max":429,"o":"m 107 964 l 107 1072 l 429 911 l 429 804 l 107 964 z "},">":{"ha":746,"x_min":107,"x_max":521,"o":"m 184 857 l 521 521 l 521 444 l 184 107 l 107 107 l 107 184 l 405 482 l 107 780 l 107 857 l 184 857 z "},"≥":{"ha":746,"x_min":98,"x_max":643,"o":"m 634 107 l 98 107 l 98 0 l 634 0 l 634 107 m 307 911 l 643 574 l 643 497 l 307 161 l 229 161 l 229 238 l 527 536 l 229 833 l 229 911 l 307 911 z "},"«":{"ha":746,"x_min":107,"x_max":643,"o":"m 321 643 l 375 589 l 214 375 l 375 161 l 321 107 l 107 375 l 321 643 m 589 643 l 643 589 l 482 375 l 643 161 l 589 107 l 375 375 l 589 643 z "},"»":{"ha":746,"x_min":107,"x_max":643,"o":"m 429 643 l 375 589 l 536 375 l 375 161 l 429 107 l 643 375 l 429 643 m 161 643 l 107 589 l 268 375 l 107 161 l 161 107 l 375 375 l 161 643 z "},"‹":{"ha":746,"x_min":214,"x_max":482,"o":"m 429 643 l 482 589 l 321 375 l 482 161 l 428 107 l 214 375 l 429 643 z "},"›":{"ha":746,"x_min":214,"x_max":482,"o":"m 268 643 l 214 589 l 375 375 l 214 161 l 269 107 l 482 375 l 268 643 z "},"h":{"ha":746,"x_min":107,"x_max":643,"o":"m 536 482 q 523 545 536 515 q 489 596 511 574 q 437 630 467 618 q 375 643 408 643 q 314 631 342 643 q 263 598 285 618 q 229 549 241 577 q 214 489 216 521 l 214 0 l 107 0 l 107 964 l 214 964 l 214 696 q 289 736 248 722 q 375 750 330 750 q 479 729 431 750 q 565 672 528 708 q 622 587 601 635 q 643 482 643 538 l 643 0 l 536 0 l 536 482 z "},"ħ":{"ha":746,"x_min":0,"x_max":643,"o":"m 0 857 l 107 857 l 107 964 l 214 964 l 214 857 l 321 857 l 321 750 l 214 750 l 214 696 q 289 736 248 722 q 375 750 330 750 q 479 729 431 750 q 565 672 528 708 q 622 587 601 635 q 643 482 643 538 l 643 0 l 536 0 l 536 482 q 523 545 536 515 q 489 596 511 574 q 437 630 467 618 q 375 643 408 643 q 314 631 342 643 q 263 598 285 618 q 229 549 241 577 q 214 489 216 521 l 214 0 l 107 0 l 107 750 l 0 750 l 0 857 z "},"ĥ":{"ha":746,"x_min":107,"x_max":643,"o":"m 536 482 q 523 545 536 515 q 489 596 511 574 q 437 630 467 618 q 375 643 408 643 q 314 631 342 643 q 263 598 285 618 q 229 549 241 577 q 214 489 216 521 l 214 0 l 107 0 l 107 964 l 214 964 l 214 696 q 289 736 248 722 q 375 750 330 750 q 479 729 431 750 q 565 672 528 708 q 622 587 601 635 q 643 482 643 538 l 643 0 l 536 0 l 536 482 m 374 1072 l 534 911 l 481 857 l 374 964 l 267 857 l 213 911 l 374 1072 z "},"♥":{"ha":746,"x_min":0,"x_max":643,"o":"m 0 589 q 18 660 0 629 q 60 710 35 690 q 113 740 85 730 q 161 750 140 750 q 209 740 181 750 q 261 710 236 730 q 304 660 286 690 q 321 589 321 629 q 339 660 321 629 q 382 710 357 690 q 434 740 407 730 q 482 750 462 750 q 530 740 503 750 q 583 710 557 730 q 625 660 608 690 q 643 589 643 629 q 615 467 643 529 q 543 335 588 405 q 439 182 497 264 q 321 0 382 100 q 203 182 261 100 q 100 335 146 264 q 27 467 55 405 q 0 589 0 529 z "},"⌂":{"ha":746,"x_min":107,"x_max":643,"o":"m 375 750 l 643 321 l 643 107 l 107 107 l 107 321 l 375 750 m 214 268 l 214 214 l 536 214 l 536 268 l 375 536 l 214 268 z "},"˝":{"ha":746,"x_min":108,"x_max":643,"o":"m 420 857 l 375 911 l 598 1072 l 643 1018 l 420 857 m 153 857 l 108 911 l 331 1072 l 376 1018 l 153 857 z "},"-":{"ha":746,"x_min":107,"x_max":643,"o":"m 107 536 l 643 536 l 643 429 l 107 429 l 107 536 z "},"i":{"ha":746,"x_min":214,"x_max":429,"o":"m 321 643 l 214 643 l 214 750 l 429 750 l 429 0 l 321 0 l 321 643 m 321 964 l 429 964 l 429 857 l 321 857 l 321 964 z "},"í":{"ha":746,"x_min":214,"x_max":429,"o":"m 321 643 l 214 643 l 214 750 l 429 750 l 429 0 l 321 0 l 321 643 m 268 857 l 214 911 l 375 1072 l 429 1018 l 268 857 z "},"ĭ":{"ha":746,"x_min":213,"x_max":534,"o":"m 374 857 q 303 876 334 857 q 253 924 273 894 q 223 993 233 954 q 213 1072 213 1031 l 320 1072 q 321 1032 320 1051 q 327 998 321 1013 q 342 974 332 983 q 374 964 353 964 q 405 974 394 964 q 421 998 416 983 q 427 1032 426 1013 q 427 1072 427 1051 l 534 1072 q 524 993 534 1031 q 494 924 514 954 q 444 876 474 894 q 374 857 414 857 m 321 643 l 214 643 l 214 750 l 429 750 l 429 0 l 321 0 l 321 643 z "},"î":{"ha":746,"x_min":212,"x_max":534,"o":"m 321 643 l 214 643 l 214 750 l 429 750 l 429 0 l 321 0 l 321 643 m 373 1072 l 534 911 l 480 857 l 373 964 l 266 857 l 212 911 l 373 1072 z "},"ï":{"ha":746,"x_min":214,"x_max":536,"o":"m 321 643 l 214 643 l 214 750 l 429 750 l 429 0 l 321 0 l 321 643 m 214 964 l 321 964 l 321 857 l 214 857 l 214 964 m 429 964 l 536 964 l 536 857 l 429 857 l 429 964 z "},"ì":{"ha":746,"x_min":214,"x_max":429,"o":"m 321 643 l 214 643 l 214 750 l 429 750 l 429 0 l 321 0 l 321 643 m 214 1018 l 268 1072 l 429 911 l 375 857 l 214 1018 z "},"ĳ":{"ha":746,"x_min":108,"x_max":643,"o":"m 215 643 l 108 643 l 108 750 l 322 750 l 322 0 l 215 0 l 215 643 m 215 964 l 322 964 l 322 857 l 215 857 l 215 964 m 214 -107 l 375 -107 q 536 54 536 -107 l 536 643 l 429 643 l 429 750 l 643 750 l 643 0 q 625 -79 643 -40 q 576 -148 606 -117 q 507 -196 546 -178 q 429 -214 469 -214 l 214 -214 l 214 -107 m 536 964 l 643 964 l 643 857 l 536 857 l 536 964 z "},"ī":{"ha":746,"x_min":107,"x_max":642,"o":"m 108 858 l 108 965 l 643 965 l 643 858 l 108 858 m 321 643 l 214 643 l 214 750 l 429 750 l 429 0 l 321 0 l 321 643 z "},"∞":{"ha":746,"x_min":0,"x_max":750,"o":"m 0 429 q 17 512 0 473 q 63 580 34 551 q 131 626 92 609 q 214 643 170 643 q 262 633 235 643 q 315 603 290 623 q 357 552 340 583 q 375 482 375 522 q 393 552 375 522 q 435 603 410 583 q 488 633 460 623 q 536 643 515 643 q 619 626 580 643 q 687 580 658 609 q 733 512 716 551 q 750 429 750 473 q 733 346 750 385 q 687 277 716 307 q 619 231 658 248 q 536 214 580 214 q 488 224 515 214 q 435 255 460 235 q 393 305 410 275 q 375 375 375 335 q 357 305 375 335 q 315 255 340 275 q 262 224 290 235 q 214 214 235 214 q 131 231 170 214 q 63 277 92 248 q 17 346 34 307 q 0 429 0 385 m 429 429 q 437 387 429 406 q 460 353 446 368 q 494 330 475 338 q 536 321 513 321 q 577 330 558 321 q 611 353 597 338 q 634 387 626 368 q 643 429 643 406 q 634 470 643 451 q 611 504 626 490 q 577 527 597 519 q 536 536 558 536 q 494 527 513 536 q 460 504 475 519 q 437 470 446 490 q 429 429 429 451 m 107 429 q 116 387 107 406 q 139 353 124 368 q 173 330 153 338 q 214 321 192 321 q 256 330 237 321 q 290 353 275 338 q 313 387 304 368 q 321 429 321 406 q 313 470 321 451 q 290 504 304 490 q 256 527 275 519 q 214 536 237 536 q 173 527 192 536 q 139 504 153 519 q 116 470 124 490 q 107 429 107 451 z "},"∫":{"ha":746,"x_min":107,"x_max":643,"o":"m 536 911 q 520 949 536 933 q 482 964 505 964 q 444 949 460 964 q 429 911 429 933 l 429 54 q 416 -9 429 20 q 381 -60 404 -38 q 330 -95 359 -82 q 268 -107 301 -107 q 205 -95 235 -107 q 154 -60 176 -82 q 120 -9 132 -38 q 107 54 107 20 l 107 107 l 214 107 l 214 54 q 230 16 214 31 q 268 0 245 0 q 306 16 290 0 q 321 54 321 31 q 322 325 322 208 q 323 530 323 443 l 323 782 q 322 847 323 823 q 322 884 322 871 q 321 902 321 897 l 321 911 q 334 973 321 944 q 369 1024 347 1002 q 420 1059 391 1046 q 482 1072 449 1072 q 545 1059 515 1072 q 596 1024 574 1046 q 630 973 618 1002 q 643 911 643 944 l 643 857 l 536 857 l 536 911 z "},"∩":{"ha":746,"x_min":107,"x_max":643,"o":"m 107 482 q 128 587 107 538 q 185 672 149 635 q 271 729 222 708 q 375 750 319 750 q 479 729 431 750 q 565 672 528 708 q 622 587 601 635 q 643 482 643 538 l 643 0 l 536 0 l 536 482 q 523 545 536 515 q 489 596 511 574 q 437 630 467 618 q 375 643 408 643 q 313 630 342 643 q 261 596 283 618 q 227 545 239 574 q 214 482 214 515 l 214 0 l 107 0 l 107 482 z "},"◘":{"ha":746,"x_min":107,"x_max":643,"o":"m 107 750 l 643 750 l 643 214 l 107 214 l 107 750 m 214 482 q 227 420 214 449 q 261 369 239 391 q 313 334 283 347 q 375 321 342 321 q 437 334 408 321 q 489 369 467 347 q 523 420 511 391 q 536 482 536 449 q 523 545 536 515 q 489 596 511 574 q 437 630 467 618 q 375 643 408 643 q 313 630 342 643 q 261 596 283 618 q 227 545 239 574 q 214 482 214 515 z "},"◙":{"ha":746,"x_min":107,"x_max":643,"o":"m 107 750 l 643 750 l 643 214 l 107 214 l 107 750 m 214 482 q 227 420 214 449 q 261 369 239 391 q 313 334 283 347 q 375 321 342 321 q 437 334 408 321 q 489 369 467 347 q 523 420 511 391 q 536 482 536 449 q 523 545 536 515 q 489 596 511 574 q 437 630 467 618 q 375 643 408 643 q 313 630 342 643 q 261 596 283 618 q 227 545 239 574 q 214 482 214 515 m 321 482 q 337 520 321 505 q 375 536 353 536 q 413 520 397 536 q 429 482 429 505 q 413 444 429 460 q 375 429 397 429 q 337 444 353 429 q 321 482 321 460 z "},"☻":{"ha":746,"x_min":0,"x_max":750,"o":"m 0 482 q 30 628 0 559 q 110 747 59 696 q 229 828 161 798 q 375 857 298 857 q 521 828 452 857 q 640 747 589 798 q 721 628 691 696 q 750 482 750 559 q 721 336 750 405 q 640 217 691 268 q 521 137 589 166 q 375 107 452 107 q 229 137 298 107 q 110 217 161 166 q 30 336 59 268 q 0 482 0 405 m 214 589 q 230 551 214 567 q 268 536 245 536 q 306 551 290 536 q 321 589 321 567 q 306 627 321 612 q 268 643 290 643 q 230 627 245 643 q 214 589 214 612 m 429 589 q 444 551 429 567 q 482 536 460 536 q 520 551 505 536 q 536 589 536 567 q 520 627 536 612 q 482 643 505 643 q 444 627 460 643 q 429 589 429 612 m 375 321 q 536 482 536 321 l 482 482 q 480 443 482 462 q 469 409 479 424 q 437 384 458 393 q 375 375 415 375 q 313 384 335 375 q 281 409 292 393 q 270 443 271 424 q 268 482 268 462 l 214 482 q 375 321 214 321 z "},"į":{"ha":746,"x_min":214,"x_max":642,"o":"m 321 643 l 214 643 l 214 750 l 429 750 l 429 0 l 321 0 l 321 643 m 321 964 l 429 964 l 429 857 l 321 857 l 321 964 m 428 0 q 439 -70 428 -40 q 475 -114 450 -99 q 541 -128 500 -129 q 642 -107 582 -127 l 642 -214 q 502 -226 562 -235 q 401 -188 441 -218 q 341 -109 361 -157 q 321 0 321 -60 l 428 0 z "},"ĩ":{"ha":746,"x_min":106,"x_max":642,"o":"m 642 1018 q 481 857 561 857 q 417 865 441 857 q 378 885 393 873 q 354 911 363 897 q 334 937 345 924 q 308 957 323 949 q 267 964 293 964 q 227 955 246 964 q 193 931 208 946 q 169 897 178 916 q 159 857 159 878 l 106 911 q 267 1072 186 1072 q 331 1064 307 1072 q 370 1044 355 1056 q 394 1018 385 1031 q 413 992 403 1004 q 439 972 424 980 q 481 964 454 964 q 520 974 501 964 q 554 998 539 983 q 579 1032 570 1013 q 588 1072 588 1051 l 642 1018 m 321 643 l 214 643 l 214 750 l 429 750 l 429 0 l 321 0 l 321 643 z "},"j":{"ha":746,"x_min":107,"x_max":536,"o":"m 107 -107 l 268 -107 q 429 54 429 -107 l 429 643 l 321 643 l 321 750 l 536 750 l 536 0 q 517 -79 536 -40 q 469 -148 499 -117 q 400 -196 439 -178 q 321 -214 361 -214 l 107 -214 l 107 -107 m 429 964 l 536 964 l 536 857 l 429 857 l 429 964 z "},"ĵ":{"ha":746,"x_min":107,"x_max":536,"o":"m 107 -107 l 268 -107 q 429 54 429 -107 l 429 643 l 321 643 l 321 750 l 536 750 l 536 0 q 517 -79 536 -40 q 469 -148 499 -117 q 400 -196 439 -178 q 321 -214 361 -214 l 107 -214 l 107 -107 m 373 1072 l 534 911 l 480 857 l 373 964 l 266 857 l 212 911 l 373 1072 z "},"k":{"ha":746,"x_min":107,"x_max":643,"o":"m 214 429 l 240 429 l 511 750 l 643 750 l 336 375 l 643 0 l 511 0 l 240 321 l 214 321 l 214 0 l 107 0 l 107 964 l 214 964 l 214 429 z "},"ķ":{"ha":746,"x_min":107,"x_max":643,"o":"m 214 429 l 240 429 l 511 750 l 643 750 l 336 375 l 643 0 l 511 0 l 240 321 l 214 321 l 214 0 l 107 0 l 107 964 l 214 964 l 214 429 m 268 -428 q 230 -412 245 -428 q 214 -374 214 -397 q 230 -336 214 -352 q 268 -321 245 -321 q 299 -314 288 -321 q 315 -293 310 -307 q 321 -259 320 -279 q 321 -214 321 -239 q 280 -205 299 -214 q 246 -182 260 -197 q 223 -148 231 -168 q 214 -106 214 -129 q 223 -65 214 -84 q 246 -31 231 -45 q 280 -8 260 -16 q 321 1 299 1 q 363 -8 344 1 q 397 -31 382 -16 q 420 -65 412 -45 q 429 -106 429 -84 l 429 -214 q 418 -292 429 -254 q 388 -361 408 -331 q 338 -410 368 -391 q 268 -428 308 -428 z "},"ĸ":{"ha":746,"x_min":107,"x_max":643,"o":"m 214 407 l 512 750 l 643 750 l 321 375 l 643 0 l 511 0 l 214 345 l 214 0 l 107 0 l 107 750 l 214 750 l 214 407 z "},"l":{"ha":746,"x_min":214,"x_max":429,"o":"m 321 857 l 214 857 l 214 964 l 429 964 l 429 0 l 321 0 l 321 857 z "},"ĺ":{"ha":746,"x_min":214,"x_max":536,"o":"m 321 857 l 214 857 l 214 964 l 429 964 l 429 0 l 321 0 l 321 857 m 268 1072 l 214 1125 l 482 1286 l 536 1232 l 268 1072 z "},"ľ":{"ha":746,"x_min":107,"x_max":643,"o":"m 214 857 l 107 857 l 107 964 l 321 964 l 321 0 l 214 0 l 214 857 m 482 857 q 444 873 460 857 q 429 911 429 888 q 444 949 429 933 q 482 964 460 964 q 513 971 503 964 q 529 992 524 979 q 535 1026 534 1006 q 536 1072 536 1046 q 494 1080 513 1072 q 460 1103 475 1088 q 437 1137 446 1118 q 429 1179 429 1156 q 437 1220 429 1201 q 460 1254 446 1240 q 494 1277 475 1269 q 536 1286 513 1286 q 577 1277 558 1286 q 611 1254 597 1269 q 634 1220 626 1240 q 643 1179 643 1201 l 643 1072 q 633 993 643 1031 q 603 924 623 954 q 552 876 583 894 q 482 857 522 857 z "},"ļ":{"ha":746,"x_min":214,"x_max":429,"o":"m 321 857 l 214 857 l 214 964 l 429 964 l 429 0 l 321 0 l 321 857 m 268 -428 q 230 -412 245 -428 q 214 -374 214 -397 q 230 -336 214 -352 q 268 -321 245 -321 q 299 -314 288 -321 q 315 -293 310 -307 q 321 -259 320 -279 q 321 -214 321 -239 q 280 -205 299 -214 q 246 -182 260 -197 q 223 -148 231 -168 q 214 -106 214 -129 q 223 -65 214 -84 q 246 -31 231 -45 q 280 -8 260 -16 q 321 1 299 1 q 363 -8 344 1 q 397 -31 382 -16 q 420 -65 412 -45 q 429 -106 429 -84 l 429 -214 q 418 -292 429 -254 q 388 -361 408 -331 q 338 -410 368 -391 q 268 -428 308 -428 z "},"ŀ":{"ha":746,"x_min":107,"x_max":643,"o":"m 214 857 l 107 857 l 107 964 l 321 964 l 321 0 l 214 0 l 214 857 m 429 536 q 437 577 429 558 q 460 611 446 597 q 494 634 475 626 q 536 643 513 643 q 577 634 558 643 q 611 611 597 626 q 634 577 626 597 q 643 536 643 558 q 634 494 643 513 q 611 460 626 475 q 577 437 597 446 q 536 429 558 429 q 494 437 513 429 q 460 460 475 446 q 437 494 446 475 q 429 536 429 513 z "},"<":{"ha":746,"x_min":107,"x_max":521,"o":"m 521 857 l 521 780 l 223 482 l 521 184 l 521 107 l 444 107 l 107 444 l 107 521 l 444 857 l 521 857 z "},"≤":{"ha":746,"x_min":98,"x_max":643,"o":"m 107 107 l 643 107 l 643 0 l 107 0 l 107 107 m 512 911 l 512 833 l 214 536 l 512 238 l 512 161 l 435 161 l 98 497 l 98 574 l 435 911 l 512 911 z "},"▌":{"ha":746,"x_min":0,"x_max":429,"o":"m 0 1339 l 429 1339 l 429 -429 l 0 -429 l 0 1339 z "},"₤":{"ha":746,"x_min":107,"x_max":643,"o":"m 107 429 l 214 429 l 214 536 l 107 536 l 107 643 l 214 643 l 214 750 q 233 829 214 790 q 281 898 251 867 q 350 946 311 928 q 429 964 389 964 q 507 946 469 964 q 576 898 546 928 q 625 829 606 867 q 643 750 643 790 l 536 750 q 527 789 536 770 q 502 824 517 808 q 468 848 487 839 q 429 857 448 857 q 389 848 408 857 q 355 824 370 839 q 331 789 340 808 q 321 750 321 770 l 321 643 l 536 643 l 536 536 l 321 536 l 321 429 l 536 429 l 536 321 l 321 321 l 321 107 l 643 107 l 643 0 l 107 0 l 107 107 l 214 107 l 214 321 l 107 321 l 107 429 z "},"¬":{"ha":746,"x_min":107,"x_max":643,"o":"m 536 536 l 107 536 l 107 643 l 643 643 l 643 321 l 536 321 l 536 536 z "},"ſ":{"ha":746,"x_min":107,"x_max":643,"o":"m 107 643 l 214 643 l 214 696 q 235 801 214 752 q 293 886 256 850 q 378 943 329 922 q 482 964 427 964 l 643 964 l 643 857 l 482 857 q 420 845 449 857 q 369 810 391 832 q 334 759 347 788 q 321 696 321 730 l 321 0 l 214 0 l 214 536 l 107 536 l 107 643 z "},"◊":{"ha":746,"x_min":107,"x_max":643,"o":"m 107 482 l 375 964 l 643 482 l 375 0 l 107 482 m 375 161 l 536 482 l 375 804 l 214 482 l 375 161 z "},"ł":{"ha":746,"x_min":182,"x_max":568,"o":"m 182 316 l 321 408 l 321 857 l 214 857 l 214 964 l 429 964 l 429 480 l 504 530 l 568 434 l 429 341 l 429 0 l 321 0 l 321 270 l 246 220 l 182 316 z "},"m":{"ha":746,"x_min":107,"x_max":643,"o":"m 321 589 l 321 589 q 268 643 321 643 q 215 589 214 643 l 214 589 l 214 0 l 107 0 l 107 750 l 241 750 q 287 742 265 750 q 326 720 309 734 q 355 686 343 705 q 372 643 368 666 l 377 643 q 394 686 382 666 q 423 720 406 705 q 462 742 440 734 q 509 750 484 750 q 561 740 536 750 q 604 711 585 729 q 632 669 622 693 q 643 616 643 644 l 643 0 l 536 0 l 536 589 q 482 643 536 643 q 429 589 429 643 l 429 0 l 321 0 l 321 589 z "},"¯":{"ha":746,"x_min":107,"x_max":643,"o":"m 107 964 l 107 1072 l 643 1072 l 643 964 l 107 964 z "},"♂":{"ha":746,"x_min":0,"x_max":750,"o":"m 429 750 l 750 750 l 750 429 l 643 429 l 643 566 l 492 414 q 524 346 513 382 q 536 268 536 309 q 515 163 536 212 q 457 78 494 115 q 372 21 421 42 q 268 0 323 0 q 163 21 212 0 q 78 78 115 42 q 21 163 42 115 q 0 268 0 212 q 21 372 0 323 q 78 457 42 421 q 163 515 115 494 q 268 536 212 536 q 346 524 309 536 q 414 492 382 513 l 566 643 l 429 643 l 429 750 m 107 268 q 120 205 107 235 q 154 154 132 176 q 205 120 176 132 q 268 107 235 107 q 330 120 301 107 q 381 154 359 132 q 416 205 404 176 q 429 268 429 235 q 416 330 429 301 q 381 381 404 359 q 330 416 359 404 q 268 429 301 429 q 205 416 235 429 q 154 381 176 404 q 120 330 132 359 q 107 268 107 301 z "},"−":{"ha":746,"x_min":107,"x_max":643,"o":"m 107 536 l 643 536 l 643 429 l 107 429 l 107 536 z "},"µ":{"ha":746,"x_min":107,"x_max":643,"o":"m 536 750 l 643 750 l 643 268 q 622 163 643 212 q 565 78 601 115 q 479 21 528 42 q 375 0 431 0 q 289 14 330 0 q 214 54 248 28 l 214 -214 l 107 -214 l 107 750 l 214 750 l 214 268 q 227 198 214 228 q 262 148 240 168 q 313 117 284 127 q 375 107 342 107 q 437 120 408 107 q 489 154 467 132 q 523 205 511 176 q 536 268 536 235 l 536 750 z "},"×":{"ha":746,"x_min":120,"x_max":630,"o":"m 630 549 l 456 375 l 630 201 l 549 120 l 375 294 l 201 120 l 120 201 l 294 375 l 120 549 l 201 630 l 375 456 l 549 630 l 630 549 z "},"♪":{"ha":746,"x_min":107,"x_max":643,"o":"m 107 161 q 120 223 107 194 q 154 274 132 252 q 205 309 176 296 q 268 321 235 321 q 321 312 295 321 l 321 964 l 429 964 l 643 696 l 589 643 l 429 829 l 429 161 q 416 98 429 127 q 381 47 404 69 q 330 13 359 25 q 268 0 301 0 q 205 13 235 0 q 154 47 176 25 q 120 98 132 69 q 107 161 107 127 z "},"♫":{"ha":746,"x_min":0,"x_max":750,"o":"m 429 268 q 441 330 429 301 q 476 381 454 359 q 527 416 498 404 q 589 429 556 429 q 643 419 616 429 l 643 819 l 321 659 l 321 54 q 309 -9 321 20 q 274 -60 296 -38 q 223 -95 252 -82 q 161 -107 194 -107 q 98 -95 127 -107 q 47 -60 69 -82 q 13 -9 25 -38 q 0 54 0 20 q 13 116 0 87 q 47 167 25 145 q 98 202 69 189 q 161 214 127 214 q 214 205 188 214 l 214 732 l 672 964 l 750 964 l 750 268 q 738 205 750 235 q 703 154 725 176 q 652 120 681 132 q 589 107 623 107 q 527 120 556 107 q 476 154 498 132 q 441 205 454 176 q 429 268 429 235 z "},"n":{"ha":746,"x_min":107,"x_max":643,"o":"m 375 643 q 314 631 342 643 q 263 598 285 618 q 229 549 241 577 q 214 489 216 521 l 214 0 l 107 0 l 107 750 l 214 750 l 214 696 q 289 736 248 722 q 375 750 330 750 q 479 729 431 750 q 565 672 528 708 q 622 587 601 635 q 643 482 643 538 l 643 0 l 536 0 l 536 482 q 523 545 536 515 q 489 596 511 574 q 437 630 467 618 q 375 643 408 643 z "},"ń":{"ha":746,"x_min":107,"x_max":643,"o":"m 375 643 q 314 631 342 643 q 263 598 285 618 q 229 549 241 577 q 214 489 216 521 l 214 0 l 107 0 l 107 750 l 214 750 l 214 696 q 289 736 248 722 q 375 750 330 750 q 479 729 431 750 q 565 672 528 708 q 622 587 601 635 q 643 482 643 538 l 643 0 l 536 0 l 536 482 q 523 545 536 515 q 489 596 511 574 q 437 630 467 618 q 375 643 408 643 m 268 858 l 214 912 l 482 1074 l 536 1020 l 268 858 z "},"ŉ":{"ha":746,"x_min":107,"x_max":643,"o":"m 375 643 q 314 631 342 643 q 263 598 285 618 q 229 549 241 577 q 214 489 216 521 l 214 0 l 107 0 l 107 750 l 214 750 l 214 696 q 289 736 248 722 q 375 750 330 750 q 479 729 431 750 q 565 672 528 708 q 622 587 601 635 q 643 482 643 538 l 643 0 l 536 0 l 536 482 q 523 545 536 515 q 489 596 511 574 q 437 630 467 618 q 375 643 408 643 m 375 696 q 337 712 353 696 q 321 750 321 728 q 337 788 321 772 q 375 804 353 804 q 406 811 395 804 q 422 831 417 818 q 428 865 427 845 q 429 911 429 885 q 387 919 406 911 q 353 942 368 928 q 330 976 338 957 q 321 1018 321 996 q 330 1060 321 1040 q 353 1094 338 1079 q 387 1117 368 1108 q 429 1125 406 1125 q 470 1117 451 1125 q 504 1094 490 1108 q 527 1060 519 1079 q 536 1018 536 1040 l 536 911 q 526 832 536 871 q 495 763 515 793 q 445 715 475 733 q 375 696 415 696 z "},"ň":{"ha":746,"x_min":107,"x_max":643,"o":"m 375 643 q 314 631 342 643 q 263 598 285 618 q 229 549 241 577 q 214 489 216 521 l 214 0 l 107 0 l 107 750 l 214 750 l 214 696 q 289 736 248 722 q 375 750 330 750 q 479 729 431 750 q 565 672 528 708 q 622 587 601 635 q 643 482 643 538 l 643 0 l 536 0 l 536 482 q 523 545 536 515 q 489 596 511 574 q 437 630 467 618 q 375 643 408 643 m 213 1018 l 267 1072 l 374 964 l 481 1072 l 534 1018 l 374 857 l 213 1018 z "},"ņ":{"ha":746,"x_min":107,"x_max":643,"o":"m 375 643 q 314 631 342 643 q 263 598 285 618 q 229 549 241 577 q 214 489 216 521 l 214 0 l 107 0 l 107 750 l 214 750 l 214 696 q 289 736 248 722 q 375 750 330 750 q 479 729 431 750 q 565 672 528 708 q 622 587 601 635 q 643 482 643 538 l 643 0 l 536 0 l 536 482 q 523 545 536 515 q 489 596 511 574 q 437 630 467 618 q 375 643 408 643 m 268 -428 q 230 -412 245 -428 q 214 -374 214 -397 q 230 -336 214 -352 q 268 -321 245 -321 q 299 -314 288 -321 q 315 -293 310 -307 q 321 -259 320 -279 q 321 -214 321 -239 q 280 -205 299 -214 q 246 -182 260 -197 q 223 -148 231 -168 q 214 -106 214 -129 q 223 -65 214 -84 q 246 -31 231 -45 q 280 -8 260 -16 q 321 1 299 1 q 363 -8 344 1 q 397 -31 382 -16 q 420 -65 412 -45 q 429 -106 429 -84 l 429 -214 q 418 -292 429 -254 q 388 -361 408 -331 q 338 -410 368 -391 q 268 -428 308 -428 z "},"₉":{"ha":746,"x_min":107,"x_max":429,"o":"m 429 269 q 428 222 429 242 q 423 183 427 203 q 409 141 418 164 q 381 86 399 119 q 335 7 363 54 q 268 -106 308 -39 l 161 -106 l 296 111 l 268 108 q 205 120 235 108 q 154 155 176 133 q 120 206 132 177 q 107 269 107 235 q 120 331 107 302 q 154 382 132 360 q 205 417 176 404 q 268 429 235 429 q 330 417 301 429 q 381 382 359 404 q 416 331 404 360 q 429 269 429 302 m 321 269 q 306 307 321 291 q 268 322 290 322 q 230 307 245 322 q 214 269 214 291 q 230 231 214 246 q 268 215 245 215 q 306 231 290 215 q 321 269 321 246 z "},"⁹":{"ha":746,"x_min":107,"x_max":429,"o":"m 429 911 q 428 865 429 884 q 423 826 427 845 q 409 784 418 806 q 381 728 399 761 q 335 649 363 696 q 268 536 308 603 l 161 536 l 296 753 l 268 750 q 205 763 235 750 q 154 797 176 775 q 120 848 132 819 q 107 911 107 878 q 120 973 107 944 q 154 1024 132 1002 q 205 1059 176 1046 q 268 1072 235 1072 q 330 1059 301 1072 q 381 1024 359 1046 q 416 973 404 1002 q 429 911 429 944 m 321 911 q 306 949 321 933 q 268 964 290 964 q 230 949 245 964 q 214 911 214 933 q 230 873 214 888 q 268 857 245 857 q 306 873 290 857 q 321 911 321 888 z "},"≠":{"ha":746,"x_min":0,"x_max":643,"o":"m 0 321 l 0 429 l 643 429 l 643 321 l 0 321 m 0 536 l 0 643 l 643 643 l 643 536 l 0 536 m 486 964 l 593 964 l 165 -1 l 58 -1 l 486 964 z "},"ⁿ":{"ha":746,"x_min":107,"x_max":429,"o":"m 268 964 q 237 955 248 964 q 221 931 226 946 q 215 897 216 916 q 214 857 214 878 l 214 536 l 107 536 l 107 1072 l 214 1072 l 214 1033 q 232 1055 224 1047 q 250 1067 241 1063 q 268 1071 258 1070 q 290 1072 278 1072 q 348 1061 322 1072 q 391 1025 373 1050 q 419 959 409 1000 q 429 857 429 918 l 429 536 l 321 536 l 321 857 q 321 897 321 878 q 315 931 320 916 q 299 955 310 946 q 268 964 288 964 z "},"ñ":{"ha":746,"x_min":106,"x_max":643,"o":"m 375 643 q 314 631 342 643 q 263 598 285 618 q 229 549 241 577 q 214 489 216 521 l 214 0 l 107 0 l 107 750 l 214 750 l 214 696 q 289 736 248 722 q 375 750 330 750 q 479 729 431 750 q 565 672 528 708 q 622 587 601 635 q 643 482 643 538 l 643 0 l 536 0 l 536 482 q 523 545 536 515 q 489 596 511 574 q 437 630 467 618 q 375 643 408 643 m 642 1018 q 481 857 561 857 q 417 865 441 857 q 378 885 393 873 q 354 911 363 897 q 334 937 345 924 q 308 957 323 949 q 267 964 293 964 q 227 955 246 964 q 193 931 208 946 q 169 897 178 916 q 159 857 159 878 l 106 911 q 267 1072 186 1072 q 331 1064 307 1072 q 370 1044 355 1056 q 394 1018 385 1031 q 413 992 403 1004 q 439 972 424 980 q 481 964 454 964 q 520 974 501 964 q 554 998 539 983 q 579 1032 570 1013 q 588 1072 588 1051 l 642 1018 z "},"#":{"ha":746,"x_min":107,"x_max":643,"o":"m 321 536 l 321 429 l 429 429 l 429 536 l 321 536 m 107 536 l 107 643 l 214 643 l 214 857 l 321 857 l 321 643 l 429 643 l 429 857 l 536 857 l 536 643 l 643 643 l 643 536 l 536 536 l 536 429 l 643 429 l 643 321 l 536 321 l 536 107 l 429 107 l 429 321 l 321 321 l 321 107 l 214 107 l 214 321 l 107 321 l 107 429 l 214 429 l 214 536 l 107 536 z "},"o":{"ha":746,"x_min":107,"x_max":643,"o":"m 107 482 q 128 587 107 538 q 185 672 149 635 q 271 729 222 708 q 375 750 319 750 q 479 729 431 750 q 565 672 528 708 q 622 587 601 635 q 643 482 643 538 l 643 268 q 622 163 643 212 q 565 78 601 115 q 479 21 528 42 q 375 0 431 0 q 271 21 319 0 q 185 78 222 42 q 128 163 149 115 q 107 268 107 212 l 107 482 m 214 268 q 227 205 214 235 q 261 154 239 176 q 313 120 283 132 q 375 107 342 107 q 437 120 408 107 q 489 154 467 132 q 523 205 511 176 q 536 268 536 235 l 536 482 q 523 545 536 515 q 489 596 511 574 q 437 630 467 618 q 375 643 408 643 q 313 630 342 643 q 261 596 283 618 q 227 545 239 574 q 214 482 214 515 l 214 268 z "},"ó":{"ha":746,"x_min":107,"x_max":643,"o":"m 107 482 q 128 587 107 538 q 185 672 149 635 q 271 729 222 708 q 375 750 319 750 q 479 729 431 750 q 565 672 528 708 q 622 587 601 635 q 643 482 643 538 l 643 268 q 622 163 643 212 q 565 78 601 115 q 479 21 528 42 q 375 0 431 0 q 271 21 319 0 q 185 78 222 42 q 128 163 149 115 q 107 268 107 212 l 107 482 m 214 268 q 227 205 214 235 q 261 154 239 176 q 313 120 283 132 q 375 107 342 107 q 437 120 408 107 q 489 154 467 132 q 523 205 511 176 q 536 268 536 235 l 536 482 q 523 545 536 515 q 489 596 511 574 q 437 630 467 618 q 375 643 408 643 q 313 630 342 643 q 261 596 283 618 q 227 545 239 574 q 214 482 214 515 l 214 268 m 268 857 l 214 911 l 483 1072 l 536 1018 l 268 857 z "},"ŏ":{"ha":746,"x_min":107,"x_max":643,"o":"m 107 482 q 128 587 107 538 q 185 672 149 635 q 271 729 222 708 q 375 750 319 750 q 479 729 431 750 q 565 672 528 708 q 622 587 601 635 q 643 482 643 538 l 643 268 q 622 163 643 212 q 565 78 601 115 q 479 21 528 42 q 375 0 431 0 q 271 21 319 0 q 185 78 222 42 q 128 163 149 115 q 107 268 107 212 l 107 482 m 214 268 q 227 205 214 235 q 261 154 239 176 q 313 120 283 132 q 375 107 342 107 q 437 120 408 107 q 489 154 467 132 q 523 205 511 176 q 536 268 536 235 l 536 482 q 523 545 536 515 q 489 596 511 574 q 437 630 467 618 q 375 643 408 643 q 313 630 342 643 q 261 596 283 618 q 227 545 239 574 q 214 482 214 515 l 214 268 m 374 857 q 303 876 334 857 q 253 924 273 894 q 223 993 233 954 q 213 1072 213 1031 l 320 1072 q 321 1032 320 1051 q 327 998 321 1013 q 342 974 332 983 q 374 964 353 964 q 405 974 394 964 q 421 998 416 983 q 427 1032 426 1013 q 427 1072 427 1051 l 534 1072 q 524 993 534 1031 q 494 924 514 954 q 444 876 474 894 q 374 857 414 857 z "},"ô":{"ha":746,"x_min":107,"x_max":643,"o":"m 107 482 q 128 587 107 538 q 185 672 149 635 q 271 729 222 708 q 375 750 319 750 q 479 729 431 750 q 565 672 528 708 q 622 587 601 635 q 643 482 643 538 l 643 268 q 622 163 643 212 q 565 78 601 115 q 479 21 528 42 q 375 0 431 0 q 271 21 319 0 q 185 78 222 42 q 128 163 149 115 q 107 268 107 212 l 107 482 m 214 268 q 227 205 214 235 q 261 154 239 176 q 313 120 283 132 q 375 107 342 107 q 437 120 408 107 q 489 154 467 132 q 523 205 511 176 q 536 268 536 235 l 536 482 q 523 545 536 515 q 489 596 511 574 q 437 630 467 618 q 375 643 408 643 q 313 630 342 643 q 261 596 283 618 q 227 545 239 574 q 214 482 214 515 l 214 268 m 374 1072 l 534 911 l 481 857 l 374 964 l 267 857 l 213 911 l 374 1072 z "},"ö":{"ha":746,"x_min":107,"x_max":643,"o":"m 107 482 q 128 587 107 538 q 185 672 149 635 q 271 729 222 708 q 375 750 319 750 q 479 729 431 750 q 565 672 528 708 q 622 587 601 635 q 643 482 643 538 l 643 268 q 622 163 643 212 q 565 78 601 115 q 479 21 528 42 q 375 0 431 0 q 271 21 319 0 q 185 78 222 42 q 128 163 149 115 q 107 268 107 212 l 107 482 m 214 268 q 227 205 214 235 q 261 154 239 176 q 313 120 283 132 q 375 107 342 107 q 437 120 408 107 q 489 154 467 132 q 523 205 511 176 q 536 268 536 235 l 536 482 q 523 545 536 515 q 489 596 511 574 q 437 630 467 618 q 375 643 408 643 q 313 630 342 643 q 261 596 283 618 q 227 545 239 574 q 214 482 214 515 l 214 268 m 213 911 q 229 949 213 933 q 267 964 244 964 q 304 949 289 964 q 320 911 320 933 q 304 873 320 888 q 267 857 289 857 q 229 873 244 857 q 213 911 213 888 m 427 911 q 443 949 427 933 q 481 964 458 964 q 519 949 503 964 q 534 911 534 933 q 519 873 534 888 q 481 857 503 857 q 443 873 458 857 q 427 911 427 888 z "},"œ":{"ha":746,"x_min":107,"x_max":643,"o":"m 107 482 q 117 592 107 543 q 148 676 127 642 q 198 731 168 711 q 268 750 228 750 q 338 730 308 750 q 375 696 359 718 q 412 730 391 718 q 482 750 442 750 q 552 731 522 750 q 603 676 583 711 q 633 592 623 642 q 643 482 643 543 l 643 321 l 429 321 l 429 268 l 429 253 q 429 197 429 222 q 435 148 430 168 q 451 117 440 127 q 482 107 462 107 l 643 107 l 643 0 l 482 0 q 412 19 442 0 q 375 54 391 33 q 338 19 359 33 q 268 0 308 0 q 198 19 228 0 q 148 74 168 39 q 117 158 127 109 q 107 268 107 208 l 107 482 m 214 268 q 215 198 214 228 q 221 148 216 168 q 237 117 226 127 q 268 107 248 107 q 298 117 288 107 q 314 148 309 127 q 320 197 319 168 q 321 253 321 222 l 321 268 l 321 482 l 321 497 q 320 552 321 528 q 314 603 319 583 q 298 633 309 623 q 268 643 288 643 q 237 633 248 643 q 221 603 226 623 q 215 552 216 583 q 214 482 214 522 l 214 268 m 429 429 l 536 429 l 536 482 q 535 545 536 515 q 529 596 534 574 q 513 630 524 618 q 482 643 502 643 q 451 630 462 643 q 435 596 440 618 q 429 545 430 574 q 429 497 429 522 l 429 482 l 429 429 z "},"˛":{"ha":746,"x_min":214,"x_max":536,"o":"m 321 0 q 332 -70 321 -40 q 368 -114 343 -99 q 434 -128 393 -129 q 536 -107 475 -127 l 536 -214 q 395 -226 456 -235 q 295 -188 335 -218 q 234 -109 254 -157 q 214 0 214 -60 l 321 0 z "},"ò":{"ha":746,"x_min":107,"x_max":643,"o":"m 107 482 q 128 587 107 538 q 185 672 149 635 q 271 729 222 708 q 375 750 319 750 q 479 729 431 750 q 565 672 528 708 q 622 587 601 635 q 643 482 643 538 l 643 268 q 622 163 643 212 q 565 78 601 115 q 479 21 528 42 q 375 0 431 0 q 271 21 319 0 q 185 78 222 42 q 128 163 149 115 q 107 268 107 212 l 107 482 m 214 268 q 227 205 214 235 q 261 154 239 176 q 313 120 283 132 q 375 107 342 107 q 437 120 408 107 q 489 154 467 132 q 523 205 511 176 q 536 268 536 235 l 536 482 q 523 545 536 515 q 489 596 511 574 q 437 630 467 618 q 375 643 408 643 q 313 630 342 643 q 261 596 283 618 q 227 545 239 574 q 214 482 214 515 l 214 268 m 214 964 l 214 1072 l 536 911 l 536 804 l 214 964 z "},"ő":{"ha":746,"x_min":107,"x_max":643,"o":"m 107 482 q 128 587 107 538 q 185 672 149 635 q 271 729 222 708 q 375 750 319 750 q 479 729 431 750 q 565 672 528 708 q 622 587 601 635 q 643 482 643 538 l 643 268 q 622 163 643 212 q 565 78 601 115 q 479 21 528 42 q 375 0 431 0 q 271 21 319 0 q 185 78 222 42 q 128 163 149 115 q 107 268 107 212 l 107 482 m 214 268 q 227 205 214 235 q 261 154 239 176 q 313 120 283 132 q 375 107 342 107 q 437 120 408 107 q 489 154 467 132 q 523 205 511 176 q 536 268 536 235 l 536 482 q 523 545 536 515 q 489 596 511 574 q 437 630 467 618 q 375 643 408 643 q 313 630 342 643 q 261 596 283 618 q 227 545 239 574 q 214 482 214 515 l 214 268 m 153 857 l 108 911 l 331 1072 l 376 1018 l 153 857 m 419 858 l 375 912 l 597 1074 l 642 1020 l 419 858 z "},"ō":{"ha":746,"x_min":107,"x_max":643,"o":"m 107 482 q 128 587 107 538 q 185 672 149 635 q 271 729 222 708 q 375 750 319 750 q 479 729 431 750 q 565 672 528 708 q 622 587 601 635 q 643 482 643 538 l 643 268 q 622 163 643 212 q 565 78 601 115 q 479 21 528 42 q 375 0 431 0 q 271 21 319 0 q 185 78 222 42 q 128 163 149 115 q 107 268 107 212 l 107 482 m 214 268 q 227 205 214 235 q 261 154 239 176 q 313 120 283 132 q 375 107 342 107 q 437 120 408 107 q 489 154 467 132 q 523 205 511 176 q 536 268 536 235 l 536 482 q 523 545 536 515 q 489 596 511 574 q 437 630 467 618 q 375 643 408 643 q 313 630 342 643 q 261 596 283 618 q 227 545 239 574 q 214 482 214 515 l 214 268 m 107 858 l 107 965 l 643 965 l 643 858 l 107 858 z "},"ο":{"ha":746,"x_min":107,"x_max":643,"o":"m 107 482 q 128 587 107 538 q 185 672 149 635 q 271 729 222 708 q 375 750 319 750 q 479 729 431 750 q 565 672 528 708 q 622 587 601 635 q 643 482 643 538 l 643 268 q 622 163 643 212 q 565 78 601 115 q 479 21 528 42 q 375 0 431 0 q 271 21 319 0 q 185 78 222 42 q 128 163 149 115 q 107 268 107 212 l 107 482 m 214 268 q 227 205 214 235 q 261 154 239 176 q 313 120 283 132 q 375 107 342 107 q 437 120 408 107 q 489 154 467 132 q 523 205 511 176 q 536 268 536 235 l 536 482 q 523 545 536 515 q 489 596 511 574 q 437 630 467 618 q 375 643 408 643 q 313 630 342 643 q 261 596 283 618 q 227 545 239 574 q 214 482 214 515 l 214 268 z "},"⅛":{"ha":746,"x_min":1,"x_max":750,"o":"m 108 643 l 108 964 l 1 857 l 1 964 l 108 1072 l 215 1072 l 215 643 l 322 643 l 322 536 l 1 536 l 1 643 l 108 643 m 536 1072 l 643 1072 l 214 0 l 107 0 l 536 1072 m 429 161 q 439 219 429 192 q 469 269 450 247 q 439 317 450 290 q 429 376 429 345 q 441 438 429 409 q 476 489 454 467 q 527 524 498 511 q 589 536 556 536 q 652 524 623 536 q 703 489 681 511 q 738 438 725 467 q 750 376 750 409 q 739 317 750 345 q 709 269 728 290 q 739 219 728 247 q 750 161 750 192 q 738 99 750 128 q 703 48 725 70 q 652 13 681 26 q 589 1 623 1 q 527 13 556 1 q 476 48 498 26 q 441 99 454 70 q 429 161 429 128 m 536 161 q 551 123 536 139 q 589 108 567 108 q 627 123 612 108 q 643 161 643 139 q 627 199 643 184 q 589 215 612 215 q 551 199 567 215 q 536 161 536 184 m 536 376 q 551 338 536 353 q 589 322 567 322 q 627 338 612 322 q 643 376 643 353 q 627 414 643 398 q 589 429 612 429 q 551 414 567 429 q 536 376 536 398 z "},"½":{"ha":746,"x_min":1,"x_max":750,"o":"m 108 643 l 108 964 l 1 857 l 1 964 l 108 1072 l 215 1072 l 215 643 l 322 643 l 322 536 l 1 536 l 1 643 l 108 643 m 422 108 q 438 143 422 121 q 479 189 455 164 q 531 242 503 214 q 584 294 560 269 q 625 341 608 319 q 641 376 641 362 q 632 407 641 396 q 607 423 622 418 q 571 429 591 428 q 531 429 552 429 l 422 429 l 422 536 l 585 536 q 750 376 750 536 q 732 326 750 355 q 682 261 713 296 q 612 187 651 227 q 531 108 572 148 l 750 108 l 750 1 l 422 1 l 422 108 m 536 1072 l 643 1072 l 214 0 l 107 0 l 536 1072 z "},"₁":{"ha":746,"x_min":107,"x_max":429,"o":"m 214 1 l 214 322 l 107 215 l 107 322 l 214 429 l 321 429 l 321 1 l 429 1 l 429 -106 l 107 -106 l 107 1 l 214 1 z "},"¼":{"ha":746,"x_min":1,"x_max":750,"o":"m 108 643 l 108 964 l 1 857 l 1 964 l 108 1072 l 215 1072 l 215 643 l 322 643 l 322 536 l 1 536 l 1 643 l 108 643 m 536 1072 l 643 1072 l 214 0 l 107 0 l 536 1072 m 429 322 l 643 536 l 750 536 l 750 1 l 643 1 l 643 108 l 429 108 l 429 322 m 643 215 l 643 376 l 536 269 l 536 215 l 643 215 z "},"¹":{"ha":746,"x_min":107,"x_max":429,"o":"m 214 643 l 214 964 l 107 857 l 107 964 l 214 1072 l 321 1072 l 321 643 l 429 643 l 429 536 l 107 536 l 107 643 l 214 643 z "},"⅓":{"ha":746,"x_min":1,"x_max":749,"o":"m 108 643 l 108 964 l 1 857 l 1 964 l 108 1072 l 215 1072 l 215 643 l 322 643 l 322 536 l 1 536 l 1 643 l 108 643 m 536 1072 l 643 1072 l 214 0 l 107 0 l 536 1072 m 425 108 l 533 108 q 573 109 554 108 q 608 116 592 111 q 632 132 623 121 q 642 161 642 143 q 632 191 642 180 q 608 207 623 201 q 573 214 592 212 q 533 215 554 215 l 533 322 q 573 323 554 322 q 608 330 593 325 q 633 347 624 336 q 642 376 642 357 q 633 405 642 394 q 608 421 624 416 q 573 428 593 427 q 533 429 554 429 l 425 429 l 425 536 l 587 536 q 750 376 750 536 q 737 312 750 336 q 695 269 725 289 q 737 225 725 248 q 750 161 750 201 q 587 1 750 1 l 425 1 l 425 108 z "},"ª":{"ha":746,"x_min":107,"x_max":429,"o":"m 161 964 l 268 964 q 429 804 429 964 l 429 429 l 268 429 q 107 589 107 429 q 268 750 107 750 l 321 750 l 321 804 q 317 823 321 814 q 306 840 313 833 q 289 852 298 848 q 268 857 279 857 l 161 857 l 161 964 m 268 643 q 228 628 242 643 q 214 589 214 612 q 230 550 214 565 q 268 536 245 536 l 321 536 l 321 643 l 268 643 z "},"º":{"ha":746,"x_min":107,"x_max":643,"o":"m 107 696 q 128 801 107 752 q 185 886 149 850 q 271 943 222 922 q 375 964 319 964 q 479 943 431 964 q 565 886 528 922 q 622 801 601 850 q 643 696 643 752 q 622 592 643 641 q 565 507 601 543 q 479 450 528 471 q 375 429 431 429 q 271 450 319 429 q 185 507 222 471 q 128 592 149 543 q 107 696 107 641 m 214 696 q 227 634 214 663 q 261 583 239 605 q 313 548 283 561 q 375 536 342 536 q 437 548 408 536 q 489 583 467 561 q 523 634 511 605 q 536 696 536 663 q 523 759 536 730 q 489 810 511 788 q 437 845 467 832 q 375 857 408 857 q 313 845 342 857 q 261 810 283 832 q 227 759 239 788 q 214 696 214 730 m 107 321 l 643 321 l 643 214 l 107 214 l 107 321 z "},"ø":{"ha":746,"x_min":102,"x_max":648,"o":"m 227 0 l 102 0 q 103 8 102 3 q 110 24 104 13 q 126 56 115 35 q 158 111 138 77 q 121 184 134 144 q 107 268 107 224 l 107 482 q 128 587 107 538 q 185 672 149 635 q 271 729 222 708 q 375 750 319 750 q 443 741 410 750 q 504 717 475 732 l 523 750 l 648 750 q 647 742 648 747 q 640 725 646 736 q 623 694 634 714 q 592 639 612 673 q 629 566 616 606 q 643 482 643 526 l 643 268 q 622 163 643 212 q 565 78 601 115 q 479 21 528 42 q 375 0 431 0 q 307 9 340 0 q 246 33 275 18 l 227 0 m 536 482 q 534 505 536 494 q 529 528 532 517 l 299 126 q 375 107 334 107 q 437 120 408 107 q 489 154 467 132 q 523 205 511 176 q 536 268 536 235 l 536 482 m 214 268 q 221 222 214 242 l 450 624 q 414 638 433 633 q 375 643 395 643 q 313 630 342 643 q 261 596 283 618 q 227 545 239 574 q 214 482 214 515 l 214 268 z "},"ǿ":{"ha":746,"x_min":102,"x_max":648,"o":"m 268 857 l 214 911 l 482 1071 l 536 1017 l 268 857 m 227 0 l 102 0 q 103 8 102 3 q 110 24 104 13 q 126 56 115 35 q 158 111 138 77 q 121 184 134 144 q 107 268 107 224 l 107 482 q 128 587 107 538 q 185 672 149 635 q 271 729 222 708 q 375 750 319 750 q 443 741 410 750 q 504 717 475 732 l 523 750 l 648 750 q 647 742 648 747 q 640 725 646 736 q 623 694 634 714 q 592 639 612 673 q 629 566 616 606 q 643 482 643 526 l 643 268 q 622 163 643 212 q 565 78 601 115 q 479 21 528 42 q 375 0 431 0 q 307 9 340 0 q 246 33 275 18 l 227 0 m 536 482 q 534 505 536 494 q 529 528 532 517 l 299 126 q 375 107 334 107 q 437 120 408 107 q 489 154 467 132 q 523 205 511 176 q 536 268 536 235 l 536 482 m 214 268 q 221 222 214 242 l 450 624 q 414 638 433 633 q 375 643 395 643 q 313 630 342 643 q 261 596 283 618 q 227 545 239 574 q 214 482 214 515 l 214 268 z "},"õ":{"ha":746,"x_min":106,"x_max":643,"o":"m 107 482 q 128 587 107 538 q 185 672 149 635 q 271 729 222 708 q 375 750 319 750 q 479 729 431 750 q 565 672 528 708 q 622 587 601 635 q 643 482 643 538 l 643 268 q 622 163 643 212 q 565 78 601 115 q 479 21 528 42 q 375 0 431 0 q 271 21 319 0 q 185 78 222 42 q 128 163 149 115 q 107 268 107 212 l 107 482 m 214 268 q 227 205 214 235 q 261 154 239 176 q 313 120 283 132 q 375 107 342 107 q 437 120 408 107 q 489 154 467 132 q 523 205 511 176 q 536 268 536 235 l 536 482 q 523 545 536 515 q 489 596 511 574 q 437 630 467 618 q 375 643 408 643 q 313 630 342 643 q 261 596 283 618 q 227 545 239 574 q 214 482 214 515 l 214 268 m 642 1018 q 481 857 561 857 q 417 865 441 857 q 378 885 393 873 q 354 911 363 897 q 334 937 345 924 q 308 957 323 949 q 267 964 293 964 q 227 955 246 964 q 193 931 208 946 q 169 897 178 916 q 159 857 159 878 l 106 911 q 267 1072 186 1072 q 331 1064 307 1072 q 370 1044 355 1056 q 394 1018 385 1031 q 413 992 403 1004 q 439 972 424 980 q 481 964 454 964 q 520 974 501 964 q 554 998 539 983 q 579 1032 570 1013 q 588 1072 588 1051 l 642 1018 z "},"p":{"ha":746,"x_min":107,"x_max":643,"o":"m 107 750 l 214 750 l 214 696 q 289 736 248 722 q 375 750 330 750 q 479 729 431 750 q 565 672 528 708 q 622 587 601 635 q 643 482 643 538 l 643 268 q 622 163 643 212 q 565 78 601 115 q 479 21 528 42 q 375 0 431 0 q 289 14 330 0 q 214 54 248 28 l 214 -321 l 107 -321 l 107 750 m 375 643 q 313 633 342 643 q 262 603 284 623 q 227 552 240 583 q 214 482 214 522 l 214 268 q 227 198 214 228 q 262 148 240 168 q 313 117 284 127 q 375 107 342 107 q 437 120 408 107 q 489 154 467 132 q 523 205 511 176 q 536 268 536 235 l 536 482 q 523 545 536 515 q 489 596 511 574 q 437 630 467 618 q 375 643 408 643 z "},"¶":{"ha":746,"x_min":107,"x_max":643,"o":"m 321 429 q 243 447 281 429 q 174 495 204 465 q 125 564 144 526 q 107 643 107 603 l 107 750 q 125 829 107 790 q 174 898 144 867 q 243 946 204 928 q 321 964 281 964 l 643 964 l 643 -214 l 536 -214 l 536 857 l 429 857 l 429 -214 l 321 -214 l 321 429 z "},"(":{"ha":746,"x_min":214,"x_max":536,"o":"m 536 -214 q 456 -185 496 -214 q 381 -107 416 -156 q 315 6 345 -58 q 262 143 284 71 q 227 288 239 214 q 214 429 214 361 q 227 569 214 496 q 262 714 239 643 q 315 851 284 786 q 381 964 345 916 q 456 1042 416 1013 q 536 1072 496 1072 l 536 964 q 483 921 509 951 q 433 849 456 891 q 389 757 409 808 q 353 651 368 706 q 330 539 338 596 q 321 429 321 482 q 330 318 321 375 q 353 206 338 261 q 389 100 368 151 q 433 8 409 50 q 483 -64 456 -34 q 536 -107 509 -94 l 536 -214 z "},"₍":{"ha":746,"x_min":214,"x_max":429,"o":"m 429 -107 q 327 -88 368 -107 q 261 -34 286 -68 q 225 51 236 1 q 214 161 214 100 q 225 271 214 221 q 261 355 236 320 q 327 409 286 390 q 429 429 368 429 l 429 321 q 383 313 401 321 q 353 292 365 305 q 335 261 341 278 q 325 226 328 244 q 322 191 322 208 q 321 161 321 174 q 322 130 321 147 q 325 95 322 113 q 335 60 328 77 q 353 30 341 43 q 383 8 365 16 q 429 0 401 0 l 429 -107 z "},"⁽":{"ha":746,"x_min":214,"x_max":429,"o":"m 429 536 q 327 555 368 536 q 261 609 286 574 q 225 694 236 644 q 214 804 214 743 q 225 913 214 864 q 261 998 236 963 q 327 1052 286 1033 q 429 1072 368 1072 l 429 964 q 383 956 401 964 q 353 935 365 948 q 335 904 341 921 q 325 869 328 887 q 322 834 322 851 q 321 804 321 817 q 322 773 321 790 q 325 738 322 756 q 335 703 328 720 q 353 673 341 686 q 383 651 365 659 q 429 643 401 643 l 429 536 z "},")":{"ha":746,"x_min":214,"x_max":536,"o":"m 214 -107 q 268 -64 241 -94 q 317 8 294 -34 q 361 100 341 50 q 397 206 382 151 q 420 318 412 261 q 429 429 429 375 q 420 539 429 482 q 397 651 412 596 q 361 757 382 706 q 317 849 341 808 q 268 921 294 891 q 214 964 241 951 l 214 1072 q 294 1042 254 1072 q 369 964 334 1013 q 435 851 405 916 q 488 714 466 786 q 523 569 511 643 q 536 429 536 496 q 523 288 536 361 q 488 143 511 214 q 435 6 466 71 q 369 -107 405 -58 q 294 -185 334 -156 q 214 -214 254 -214 l 214 -107 z "},"₎":{"ha":746,"x_min":214,"x_max":429,"o":"m 214 0 q 259 8 241 0 q 290 30 278 16 q 308 60 302 43 q 318 95 315 77 q 321 130 321 113 q 321 161 321 147 q 321 191 321 174 q 318 226 321 208 q 308 261 315 244 q 290 292 302 278 q 259 313 278 305 q 214 321 241 321 l 214 429 q 316 409 275 429 q 382 355 357 390 q 418 271 407 320 q 429 161 429 221 q 418 51 429 100 q 382 -34 407 1 q 316 -88 357 -68 q 214 -107 275 -107 l 214 0 z "},"⁾":{"ha":746,"x_min":214,"x_max":429,"o":"m 214 643 q 259 651 241 643 q 290 673 278 659 q 308 703 302 686 q 318 738 315 720 q 321 773 321 756 q 321 804 321 790 q 321 834 321 817 q 318 869 321 851 q 308 904 315 887 q 290 935 302 921 q 259 956 278 948 q 214 964 241 964 l 214 1072 q 316 1052 275 1072 q 382 998 357 1033 q 418 913 407 963 q 429 804 429 864 q 418 694 429 743 q 382 609 407 644 q 316 555 357 574 q 214 536 275 536 l 214 643 z "},"∂":{"ha":746,"x_min":107,"x_max":746,"o":"m 734 696 q 697 467 718 566 q 654 294 677 368 q 606 170 631 220 q 553 87 581 120 q 498 37 526 54 q 440 11 469 19 q 380 1 410 3 q 319 0 349 0 q 248 13 279 0 q 194 46 217 25 q 154 94 170 66 q 127 151 137 121 q 112 211 117 180 q 107 268 107 241 q 137 439 107 368 q 213 556 166 511 q 316 622 259 601 q 429 643 373 643 q 523 626 479 643 q 602 578 568 609 l 627 696 q 628 759 634 730 q 605 810 622 788 q 561 845 587 832 q 500 857 534 857 q 498 865 501 857 q 492 885 496 873 q 486 911 488 897 q 486 937 484 924 q 496 957 488 949 q 524 964 505 964 q 623 943 579 964 q 696 886 667 922 q 735 801 725 850 q 734 696 746 752 m 241 375 q 231 336 235 361 q 227 282 227 311 q 231 221 227 252 q 247 165 236 190 q 276 123 258 140 q 321 107 294 107 q 393 119 355 107 q 466 165 431 132 q 527 257 500 198 q 566 408 554 315 q 554 459 565 435 q 526 499 544 482 q 483 526 507 516 q 429 536 458 536 q 365 523 395 536 q 309 489 334 511 q 266 437 283 467 q 241 375 248 408 z "},"%":{"ha":746,"x_min":0,"x_max":643,"o":"m 107 107 l 0 107 l 536 857 l 643 857 l 107 107 m 321 268 q 334 330 321 301 q 369 381 347 359 q 420 416 391 404 q 482 429 449 429 q 545 416 515 429 q 596 381 574 404 q 630 330 618 359 q 643 268 643 301 q 630 205 643 235 q 596 154 618 176 q 545 120 574 132 q 482 107 515 107 q 420 120 449 107 q 369 154 391 132 q 334 205 347 176 q 321 268 321 235 m 0 696 q 13 759 0 730 q 47 810 25 788 q 98 845 69 832 q 161 857 127 857 q 223 845 194 857 q 274 810 252 832 q 309 759 296 788 q 321 696 321 730 q 309 634 321 663 q 274 583 296 605 q 223 548 252 561 q 161 536 194 536 q 98 548 127 536 q 47 583 69 561 q 13 634 25 605 q 0 696 0 663 m 107 696 q 123 659 107 674 q 161 643 138 643 q 199 659 183 643 q 214 696 214 674 q 199 734 214 719 q 161 750 183 750 q 123 734 138 750 q 107 696 107 719 m 429 268 q 444 230 429 245 q 482 214 460 214 q 520 230 505 214 q 536 268 536 245 q 520 306 536 290 q 482 321 505 321 q 444 306 460 321 q 429 268 429 290 z "},".":{"ha":746,"x_min":214,"x_max":429,"o":"m 214 107 q 223 149 214 130 q 246 183 231 168 q 280 206 260 197 q 321 214 299 214 q 363 206 344 214 q 397 183 382 197 q 420 149 412 168 q 429 107 429 130 q 420 65 429 85 q 397 32 412 46 q 363 8 382 17 q 321 0 344 0 q 280 8 299 0 q 246 32 260 17 q 223 65 231 46 q 214 107 214 85 z "},"·":{"ha":746,"x_min":214,"x_max":429,"o":"m 214 536 q 223 577 214 558 q 246 611 231 597 q 280 634 260 626 q 321 643 299 643 q 363 634 344 643 q 397 611 382 626 q 420 577 412 597 q 429 536 429 558 q 420 494 429 513 q 397 460 412 475 q 363 437 382 446 q 321 429 344 429 q 280 437 299 429 q 246 460 260 446 q 223 494 231 475 q 214 536 214 513 z "},"‰":{"ha":746,"x_min":0,"x_max":746,"o":"m 127 107 l 0 107 l 515 857 l 643 857 l 347 426 q 375 429 360 429 q 436 416 408 429 q 481 387 462 405 q 526 416 501 405 q 588 429 555 429 q 649 416 621 429 q 700 381 678 404 q 733 330 721 359 q 746 268 746 301 q 733 205 746 235 q 700 154 721 176 q 649 120 678 132 q 588 107 621 107 q 526 119 555 107 q 481 149 501 131 q 436 119 462 131 q 375 107 408 107 q 314 120 342 107 q 263 154 285 132 q 229 205 242 176 q 219 240 222 222 l 127 107 m 5 696 q 18 759 5 730 q 52 810 31 788 q 102 845 73 832 q 163 857 131 857 q 225 845 196 857 q 275 810 254 832 q 309 759 296 788 q 321 696 321 730 q 309 634 321 663 q 275 583 296 605 q 225 548 254 561 q 163 536 196 536 q 102 548 131 536 q 52 583 73 561 q 18 634 31 605 q 5 696 5 663 m 111 696 q 126 659 111 674 q 163 643 142 643 q 201 659 185 643 q 216 696 216 674 q 201 734 216 719 q 163 750 185 750 q 126 734 142 750 q 111 696 111 719 m 536 268 q 551 230 536 245 q 588 214 566 214 q 625 230 610 214 q 641 268 641 245 q 625 306 641 290 q 588 321 610 321 q 551 306 566 321 q 536 268 536 290 m 323 268 q 338 230 323 245 q 375 214 353 214 q 412 230 397 214 q 428 268 428 245 q 412 306 428 290 q 375 321 397 321 q 338 306 353 321 q 323 268 323 290 z "},"₧":{"ha":746,"x_min":0,"x_max":750,"o":"m 643 429 q 604 428 623 429 q 569 422 585 427 q 545 406 554 417 q 536 375 536 395 q 552 345 536 356 q 591 324 568 333 q 643 307 615 315 q 694 287 671 298 q 734 258 718 275 q 750 214 750 241 l 750 107 q 740 68 750 87 q 710 34 730 49 q 660 9 690 18 q 589 0 629 0 l 482 0 q 412 11 442 0 q 362 47 382 22 q 332 113 342 72 q 321 214 321 154 l 321 643 q 311 564 321 603 q 281 495 301 526 q 231 447 261 465 q 161 429 201 429 l 107 429 l 107 0 l 0 0 l 0 964 l 161 964 q 231 954 201 964 q 281 918 261 943 q 311 851 301 892 q 321 750 321 810 l 321 964 l 429 964 l 429 750 l 536 750 l 536 643 l 429 643 l 429 433 q 439 473 429 454 q 470 506 450 492 q 519 528 490 519 q 589 536 549 536 l 750 536 l 750 429 l 643 429 m 214 750 q 212 789 214 770 q 205 824 210 808 q 189 848 199 839 q 161 857 178 857 l 107 857 l 107 536 l 165 536 q 194 545 184 536 q 208 569 203 554 q 214 604 213 585 q 214 643 214 623 l 214 750 m 429 214 q 429 175 429 194 q 435 141 430 156 q 451 116 440 125 q 482 107 462 107 l 536 107 q 597 112 576 107 q 629 124 619 116 q 641 141 640 132 q 643 161 643 151 q 627 193 643 181 q 587 214 611 205 q 536 231 564 223 q 484 250 508 239 q 445 278 460 261 q 429 321 429 294 l 429 214 z "},"φ":{"ha":746,"x_min":107,"x_max":643,"o":"m 321 589 q 344 677 321 642 q 403 730 368 712 q 481 747 439 747 q 559 730 523 747 q 619 677 595 712 q 643 589 643 642 l 643 268 q 627 176 643 219 q 582 97 610 132 q 513 38 553 62 q 429 5 474 14 l 429 -214 l 321 -214 l 321 5 q 236 38 275 14 q 169 97 197 62 q 123 176 140 132 q 107 268 107 219 l 107 750 l 214 750 l 214 268 q 222 218 214 241 q 244 174 230 194 q 278 139 258 154 q 321 116 298 124 l 321 589 m 536 517 q 519 608 536 578 q 482 638 503 638 q 445 608 462 638 q 429 517 429 578 l 429 116 q 471 139 452 124 q 505 174 491 154 q 528 218 519 194 q 536 268 536 241 l 536 517 z "},"π":{"ha":746,"x_min":0,"x_max":643,"o":"m 429 643 l 214 643 l 214 0 l 107 0 l 107 643 l 0 643 l 0 750 l 643 750 l 643 643 l 536 643 l 536 214 q 545 153 536 174 q 569 121 554 131 q 604 109 585 111 q 643 107 623 107 l 643 0 q 542 18 583 0 q 475 60 500 35 q 439 113 450 85 q 429 161 429 140 l 429 643 z "},"+":{"ha":746,"x_min":107,"x_max":643,"o":"m 321 429 l 107 429 l 107 536 l 321 536 l 321 750 l 429 750 l 429 536 l 643 536 l 643 429 l 429 429 l 429 214 l 321 214 l 321 429 z "},"±":{"ha":746,"x_min":107,"x_max":643,"o":"m 107 321 l 321 321 l 321 536 l 107 536 l 107 643 l 321 643 l 321 857 l 429 857 l 429 643 l 643 643 l 643 536 l 429 536 l 429 321 l 643 321 l 643 214 l 107 214 l 107 321 z "},"∏":{"ha":746,"x_min":107,"x_max":643,"o":"m 107 964 l 643 964 l 643 -321 l 536 -321 l 536 857 l 214 857 l 214 -321 l 107 -321 l 107 964 z "},"q":{"ha":746,"x_min":107,"x_max":643,"o":"m 536 54 q 461 14 502 28 q 375 0 420 0 q 271 21 319 0 q 185 78 222 42 q 128 163 149 115 q 107 268 107 212 l 107 482 q 128 587 107 538 q 185 672 149 635 q 271 729 222 708 q 375 750 319 750 q 461 736 420 750 q 536 696 502 722 l 536 750 l 643 750 l 643 -321 l 536 -321 l 536 54 m 214 268 q 227 205 214 235 q 261 154 239 176 q 313 120 283 132 q 375 107 342 107 q 437 117 408 107 q 488 148 466 127 q 523 198 510 168 q 536 268 536 228 l 536 482 q 523 552 536 522 q 488 603 510 583 q 437 633 466 623 q 375 643 408 643 q 313 630 342 643 q 261 596 283 618 q 227 545 239 574 q 214 482 214 515 l 214 268 z "},"?":{"ha":746,"x_min":107,"x_max":643,"o":"m 107 696 q 126 801 107 752 q 181 886 146 850 q 265 943 216 922 q 375 964 315 964 q 485 945 435 964 q 569 891 534 926 q 624 806 604 856 q 643 696 643 757 q 627 609 643 643 q 587 552 611 576 q 536 509 564 528 q 484 467 508 490 q 445 409 460 443 q 429 321 429 375 l 321 321 q 337 431 321 389 q 377 502 353 474 q 429 549 401 530 q 480 588 456 568 q 520 632 504 607 q 536 696 536 656 q 375 857 536 857 q 214 696 214 857 l 214 643 l 107 643 l 107 696 m 321 214 l 429 214 l 429 0 l 321 0 l 321 214 z "},"¿":{"ha":746,"x_min":107,"x_max":643,"o":"m 643 268 q 624 163 643 212 q 569 78 604 115 q 485 21 534 42 q 375 0 435 0 q 265 19 315 0 q 181 74 216 39 q 126 158 146 109 q 107 268 107 208 q 123 359 107 321 q 163 425 139 396 q 214 475 186 453 q 266 522 242 498 q 306 574 290 546 q 321 643 321 603 l 429 643 q 413 552 429 589 q 373 486 397 515 q 321 435 349 458 q 270 389 294 413 q 230 336 246 365 q 214 268 214 308 q 375 107 214 107 q 536 268 536 107 l 536 321 l 643 321 l 643 268 m 429 750 l 321 750 l 321 964 l 429 964 l 429 750 z "},"\"":{"ha":746,"x_min":107,"x_max":536,"o":"m 107 964 l 214 964 l 214 643 l 107 643 l 107 964 m 429 964 l 536 964 l 536 643 l 429 643 l 429 964 z "},"„":{"ha":746,"x_min":107,"x_max":643,"o":"m 161 -214 q 123 -199 138 -214 q 107 -161 107 -183 q 123 -123 107 -138 q 161 -107 138 -107 q 192 -100 181 -107 q 208 -79 203 -93 q 214 -46 213 -66 q 214 0 214 -26 q 173 8 192 0 q 139 32 153 17 q 116 65 124 46 q 107 107 107 85 q 116 149 107 130 q 139 183 124 168 q 173 206 153 197 q 214 214 192 214 q 256 206 237 214 q 290 183 275 197 q 313 149 304 168 q 321 107 321 130 l 321 0 q 311 -79 321 -40 q 281 -148 301 -117 q 231 -196 261 -178 q 161 -214 201 -214 m 482 -214 q 444 -199 460 -214 q 429 -161 429 -183 q 444 -123 429 -138 q 482 -107 460 -107 q 513 -100 503 -107 q 529 -79 524 -93 q 535 -46 534 -66 q 536 0 536 -26 q 494 8 513 0 q 460 32 475 17 q 437 65 446 46 q 429 107 429 85 q 437 149 429 130 q 460 183 446 168 q 494 206 475 197 q 536 214 513 214 q 577 206 558 214 q 611 183 597 197 q 634 149 626 168 q 643 107 643 130 l 643 0 q 633 -79 643 -40 q 603 -148 623 -117 q 552 -196 583 -178 q 482 -214 522 -214 z "},"“":{"ha":746,"x_min":107,"x_max":642,"o":"m 268 1072 q 306 1056 290 1072 q 321 1018 321 1040 q 306 980 321 996 q 268 964 290 964 q 237 957 248 964 q 221 937 226 950 q 215 903 216 923 q 214 857 214 883 q 256 849 237 857 q 290 826 275 840 q 313 792 304 811 q 321 750 321 772 q 313 708 321 728 q 290 674 304 689 q 256 651 275 660 q 214 643 237 643 q 173 651 192 643 q 139 674 153 660 q 116 708 124 689 q 107 750 107 728 l 107 857 q 117 936 107 897 q 148 1005 127 975 q 198 1053 168 1035 q 268 1072 228 1072 m 589 1072 q 627 1056 611 1072 q 642 1018 642 1040 q 627 980 642 996 q 589 964 611 964 q 557 957 568 964 q 542 937 547 950 q 536 903 536 923 q 535 857 535 883 q 577 849 557 857 q 611 826 596 840 q 634 792 625 811 q 642 750 642 772 q 634 708 642 728 q 611 674 625 689 q 577 651 596 660 q 535 643 557 643 q 494 651 513 643 q 460 674 475 660 q 437 708 446 689 q 429 750 429 728 l 429 857 q 439 936 429 897 q 469 1005 449 975 q 519 1053 489 1035 q 589 1072 549 1072 z "},"”":{"ha":746,"x_min":108,"x_max":643,"o":"m 161 643 q 123 659 139 643 q 108 696 108 674 q 123 734 108 719 q 161 750 139 750 q 193 757 182 750 q 209 778 203 764 q 214 811 214 791 q 214 857 214 831 q 173 866 193 857 q 139 889 154 874 q 116 923 125 903 q 108 964 108 942 q 116 1006 108 987 q 139 1040 125 1025 q 173 1063 154 1055 q 214 1072 193 1072 q 256 1063 237 1072 q 290 1040 275 1055 q 313 1006 304 1025 q 321 964 321 987 l 321 857 q 311 779 321 817 q 281 710 301 740 q 231 661 261 680 q 161 643 201 643 m 483 643 q 445 659 460 643 q 429 696 429 674 q 445 734 429 719 q 483 750 460 750 q 514 757 503 750 q 530 778 525 764 q 535 811 535 791 q 536 857 536 831 q 495 866 514 857 q 461 889 475 874 q 438 923 446 903 q 429 964 429 942 q 438 1006 429 987 q 461 1040 446 1025 q 495 1063 475 1055 q 536 1072 514 1072 q 577 1063 558 1072 q 611 1040 597 1055 q 634 1006 626 1025 q 643 964 643 987 l 643 857 q 633 779 643 817 q 603 710 623 740 q 553 661 583 680 q 483 643 523 643 z "},"‘":{"ha":746,"x_min":214,"x_max":429,"o":"m 375 1072 q 413 1056 397 1072 q 429 1018 429 1040 q 413 980 429 996 q 375 964 397 964 q 344 957 355 964 q 328 937 333 950 q 322 903 323 923 q 321 857 321 883 q 363 849 344 857 q 397 826 382 840 q 420 792 412 811 q 429 750 429 772 q 420 708 429 728 q 397 674 412 689 q 363 651 382 660 q 321 643 344 643 q 280 651 299 643 q 246 674 260 660 q 223 708 231 689 q 214 750 214 728 l 214 857 q 224 936 214 897 q 255 1005 235 975 q 305 1053 275 1035 q 375 1072 335 1072 z "},"’":{"ha":746,"x_min":214,"x_max":429,"o":"m 268 640 q 230 656 245 640 q 214 694 214 672 q 230 732 214 717 q 268 748 245 748 q 299 755 288 748 q 315 776 310 762 q 321 810 320 790 q 321 856 321 830 q 280 864 299 856 q 246 888 260 873 q 223 922 231 902 q 214 964 214 941 q 223 1006 214 986 q 246 1040 231 1025 q 280 1063 260 1054 q 321 1072 299 1072 q 363 1063 344 1072 q 397 1040 382 1054 q 420 1006 412 1025 q 429 964 429 986 l 429 856 q 418 777 429 816 q 388 707 408 738 q 338 659 368 677 q 268 640 308 640 z "},"‚":{"ha":746,"x_min":214,"x_max":429,"o":"m 268 -214 q 230 -199 245 -214 q 214 -161 214 -183 q 230 -123 214 -138 q 268 -107 245 -107 q 299 -100 288 -107 q 315 -79 310 -93 q 321 -46 320 -66 q 321 0 321 -26 q 280 8 299 0 q 246 32 260 17 q 223 65 231 46 q 214 107 214 85 q 223 149 214 130 q 246 183 231 168 q 280 206 260 197 q 321 214 299 214 q 363 206 344 214 q 397 183 382 197 q 420 149 412 168 q 429 107 429 130 l 429 0 q 418 -79 429 -40 q 388 -148 408 -117 q 338 -196 368 -178 q 268 -214 308 -214 z "},"'":{"ha":746,"x_min":321,"x_max":429,"o":"m 321 964 l 429 964 l 429 643 l 321 643 l 321 964 z "},"r":{"ha":746,"x_min":107,"x_max":637,"o":"m 107 0 l 107 750 l 214 750 l 214 642 q 252 682 226 663 q 310 716 279 701 q 374 741 342 732 q 429 750 406 750 q 512 734 477 750 q 572 689 547 718 q 612 621 597 660 q 637 536 628 581 l 526 536 q 512 578 518 559 q 495 612 505 598 q 470 635 486 627 q 429 643 455 643 q 382 634 407 643 q 334 611 358 626 q 289 575 311 595 q 251 530 267 554 q 224 480 234 507 q 214 428 214 454 l 214 0 l 107 0 z "},"ŕ":{"ha":746,"x_min":107,"x_max":637,"o":"m 107 0 l 107 750 l 214 750 l 214 642 q 252 682 226 663 q 310 716 279 701 q 374 741 342 732 q 429 750 406 750 q 512 734 477 750 q 572 689 547 718 q 612 621 597 660 q 637 536 628 581 l 526 536 q 512 578 518 559 q 495 612 505 598 q 470 635 486 627 q 429 643 455 643 q 382 634 407 643 q 334 611 358 626 q 289 575 311 595 q 251 530 267 554 q 224 480 234 507 q 214 428 214 454 l 214 0 l 107 0 m 268 857 l 214 911 l 482 1072 l 536 1018 l 268 857 z "},"√":{"ha":746,"x_min":0,"x_max":750,"o":"m 214 0 l 0 375 l 107 429 l 268 161 l 643 911 l 750 857 l 321 0 l 214 0 z "},"ř":{"ha":746,"x_min":107,"x_max":637,"o":"m 107 0 l 107 750 l 214 750 l 214 642 q 252 682 226 663 q 310 716 279 701 q 374 741 342 732 q 429 750 406 750 q 512 734 477 750 q 572 689 547 718 q 612 621 597 660 q 637 536 628 581 l 526 536 q 512 578 518 559 q 495 612 505 598 q 470 635 486 627 q 429 643 455 643 q 382 634 407 643 q 334 611 358 626 q 289 575 311 595 q 251 530 267 554 q 224 480 234 507 q 214 428 214 454 l 214 0 l 107 0 m 213 1018 l 267 1072 l 374 964 l 481 1072 l 534 1018 l 374 857 l 213 1018 z "},"ŗ":{"ha":746,"x_min":107,"x_max":637,"o":"m 107 0 l 107 750 l 214 750 l 214 642 q 252 682 226 663 q 310 716 279 701 q 374 741 342 732 q 429 750 406 750 q 512 734 477 750 q 572 689 547 718 q 612 621 597 660 q 637 536 628 581 l 526 536 q 512 578 518 559 q 495 612 505 598 q 470 635 486 627 q 429 643 455 643 q 382 634 407 643 q 334 611 358 626 q 289 575 311 595 q 251 530 267 554 q 224 480 234 507 q 214 428 214 454 l 214 0 l 107 0 m 161 -428 q 123 -412 139 -428 q 108 -374 108 -397 q 123 -336 108 -352 q 161 -321 139 -321 q 193 -314 182 -321 q 209 -293 203 -307 q 214 -259 214 -279 q 215 -214 215 -239 q 173 -205 193 -214 q 139 -182 154 -197 q 116 -148 125 -168 q 108 -106 108 -129 q 116 -65 108 -84 q 139 -31 125 -45 q 173 -8 154 -16 q 215 1 193 1 q 257 -8 237 1 q 291 -31 276 -16 q 314 -65 305 -45 q 322 -106 322 -84 l 322 -214 q 312 -292 322 -254 q 282 -361 302 -331 q 232 -410 262 -391 q 161 -428 201 -428 z "},"®":{"ha":746,"x_min":0,"x_max":750,"o":"m 0 482 q 27 670 0 582 q 104 823 55 758 q 223 926 154 888 q 375 964 292 964 q 527 926 458 964 q 646 823 596 888 q 723 670 695 758 q 750 482 750 582 q 723 295 750 382 q 646 141 695 207 q 527 38 596 76 q 375 0 458 0 q 223 38 292 0 q 104 141 154 76 q 27 295 55 207 q 0 482 0 382 m 107 482 q 126 336 107 405 q 180 217 145 268 q 264 137 215 166 q 375 107 314 107 q 486 137 436 107 q 570 217 535 166 q 624 336 605 268 q 643 482 643 405 q 624 628 643 559 q 570 747 605 696 q 486 828 535 798 q 375 857 436 857 q 264 828 314 857 q 180 747 215 798 q 126 628 145 696 q 107 482 107 559 m 321 429 l 321 214 l 214 214 l 214 750 l 375 750 q 437 738 408 750 q 489 703 467 725 q 523 652 511 681 q 536 589 536 623 q 527 529 536 558 q 502 478 517 500 q 468 442 487 456 q 429 429 449 429 l 536 214 l 429 214 l 321 429 m 375 536 q 413 551 397 536 q 429 589 429 567 q 413 627 429 612 q 375 643 397 643 l 321 643 l 321 536 l 375 536 z "},"⌐":{"ha":746,"x_min":107,"x_max":643,"o":"m 214 321 l 107 321 l 107 643 l 643 643 l 643 536 l 214 536 l 214 321 z "},"˚":{"ha":746,"x_min":214,"x_max":536,"o":"m 214 1018 q 227 1080 214 1051 q 261 1132 239 1109 q 313 1166 283 1154 q 375 1179 342 1179 q 437 1166 408 1179 q 489 1132 467 1154 q 523 1080 511 1109 q 536 1018 536 1051 q 523 956 536 985 q 489 904 511 926 q 437 870 467 882 q 375 857 408 857 q 313 870 342 857 q 261 904 283 882 q 227 956 239 926 q 214 1018 214 985 m 321 1018 q 337 980 321 996 q 375 964 353 964 q 413 980 397 964 q 429 1018 429 996 q 413 1056 429 1040 q 375 1072 397 1072 q 337 1056 353 1072 q 321 1018 321 1040 z "},"▐":{"ha":746,"x_min":429,"x_max":750,"o":"m 429 1339 l 750 1339 l 750 -429 l 429 -429 l 429 1339 z "},"s":{"ha":746,"x_min":107,"x_max":643,"o":"m 643 750 l 643 643 l 375 643 q 305 634 335 643 q 255 609 275 625 q 224 575 235 594 q 214 536 214 556 q 224 496 214 515 q 255 462 235 477 q 305 438 275 447 q 375 429 335 429 q 432 424 401 429 q 492 409 463 419 q 549 382 522 399 q 597 342 576 366 q 630 287 618 318 q 643 216 643 256 q 624 136 643 175 q 569 67 604 98 q 485 18 534 37 q 375 0 435 0 l 107 0 l 107 107 l 375 107 q 445 116 415 107 q 495 141 475 125 q 526 176 515 156 q 536 216 536 195 q 526 254 536 235 q 495 288 515 273 q 445 312 475 303 q 375 321 415 321 q 318 326 349 321 q 258 341 288 331 q 201 369 228 352 q 153 409 174 385 q 120 464 132 433 q 107 536 107 496 q 126 614 107 576 q 181 683 146 653 q 265 732 216 713 q 375 750 315 750 l 643 750 z "},"ﬆ":{"ha":746,"x_min":0,"x_max":750,"o":"m 536 321 q 537 243 536 281 q 549 174 539 204 q 581 125 559 144 q 643 107 603 107 l 750 107 l 750 0 l 643 0 q 542 20 583 0 q 475 80 500 40 q 439 181 450 121 q 429 321 429 241 l 429 643 l 214 643 q 175 634 194 643 q 141 609 156 625 q 116 575 125 594 q 107 536 107 556 q 108 496 107 515 q 114 462 109 477 q 130 438 119 447 q 161 429 140 429 q 231 410 201 429 q 281 362 261 392 q 311 293 301 332 q 321 216 321 255 q 303 136 321 175 q 255 67 285 98 q 186 18 224 37 q 107 0 147 0 l 0 0 l 0 107 l 107 107 q 146 116 127 107 q 181 141 165 125 q 205 175 196 156 q 214 214 214 194 q 214 253 214 234 q 208 287 213 272 q 192 312 203 302 q 161 321 181 321 q 91 332 121 321 q 40 368 60 343 q 10 434 20 393 q 0 536 0 475 q 18 614 0 576 q 67 683 37 653 q 136 732 97 713 q 214 750 174 750 l 429 750 l 429 964 l 536 964 l 536 750 l 750 750 l 750 643 l 536 643 l 536 321 z "}}}
